{
.appVersion = "3343";
.formatVersion = 3;
axes = (
{
name = Weight;
tag = wght;
}
);
customParameters = (
{
name = fsType;
value = (
);
},
{
name = "Use Typo Metrics";
value = 1;
},
{
name = "Axis Mappings";
value = {
wght = {
100 = 40;
200 = 50;
300 = 66;
400 = 84;
500 = 106;
600 = 130;
700 = 154;
800 = 178;
900 = 200;
};
};
},
{
name = "Variable Font Origin";
value = "91AB5BCA-6A50-42DA-B2F7-8181BF189245";
}
);
date = "2016-11-14 22:13:29 +0000";
familyName = "Libre Franklin";
featurePrefixes = (
{
automatic = 1;
code = "languagesystem DFLT dflt;

languagesystem latn dflt;
languagesystem latn AZE;
languagesystem latn CRT;
languagesystem latn KAZ;
languagesystem latn TAT;
languagesystem latn TRK;
languagesystem latn ROM;
languagesystem latn MOL;
languagesystem latn CAT;

languagesystem cyrl dflt;
languagesystem cyrl BSH;
languagesystem cyrl CHU;
";
name = Languagesystems;
}
);
features = (
{
automatic = 1;
code = "feature locl;
feature subs;
feature sinf;
feature sups;
feature numr;
feature dnom;
feature frac;
feature ordn;
";
tag = aalt;
},
{
automatic = 1;
code = "lookup ccmp_DFLT_1 {
	@CombiningTopAccents = [acutecomb brevecomb breveinvertedcomb caroncomb circumflexcomb commaturnedabovecomb dblgravecomb dieresiscomb dotaccentcomb gravecomb hookabovecomb hungarumlautcomb macroncomb ringcomb tildecomb];
	lookupflag UseMarkFilteringSet @CombiningTopAccents;
	sub i' @CombiningTopAccents by idotless;
	sub j' @CombiningTopAccents by jdotless;
} ccmp_DFLT_1;

lookup ccmp_DFLT_2 {
	lookupflag 0;
	sub brevecomb acutecomb by brevecomb_acutecomb;
	sub brevecomb gravecomb by brevecomb_gravecomb;
	sub brevecomb hookabovecomb by brevecomb_hookabovecomb;
	sub brevecomb tildecomb by brevecomb_tildecomb;
	sub circumflexcomb acutecomb by circumflexcomb_acutecomb;
	sub circumflexcomb gravecomb by circumflexcomb_gravecomb;
	sub circumflexcomb hookabovecomb by circumflexcomb_hookabovecomb;
	sub circumflexcomb tildecomb by circumflexcomb_tildecomb;
} ccmp_DFLT_2;


glyphs = (
{
glyphname = A;
kernLeft = A;
kernRight = A;
lastChange = "2025-08-29 20:44:13 +0000";
layers = (
{
anchors = (
{
name = bottom;
pos = (350,0);
},
{
name = ogonek;
pos = (639,11);
},
{
name = top;
pos = (350,742);
}
);
background = {
anchors = (
{
name = ogonek;
pos = (639,11);
},
{
name = top;
pos = (350,742);
}
);
shapes = (
{
closed = 1;
nodes = (
(60,0,l),
(85,0,ls),
(91,0,o),
(95,2,o),
(96,7,c),
(179,231,ls),
(181,236,o),
(183,238,o),
(189,238,c),
(511,238,ls),
(517,238,o),
(519,236,o),
(521,231,c),
(602,8,ls),
(604,2,o),
(608,0,o),
(615,0,c),
(639,0,ls),
(646,0,o),
(649,4,o),
(647,10,c),
(385,732,ls),
(383,739,o),
(377,742,o),
(367,742,c),
(334,742,ls),
(325,742,o),
(321,739,o),
(318,731,c),
(53,9,ls),
(51,3,o),
(54,0,o),
(60,0,c)
);
},
{
closed = 1;
nodes = (
(203,278,l),
(197,278,o),
(195,279,o),
(198,286,c),
(343,677,ls),
(348,691,o),
(353,691,o),
(358,678,c),
(501,288,ls),
(503,282,o),
(502,278,o),
(494,278,c)
);
}
);
};
layerId = "91AB5BCA-6A50-42DA-B2F7-8181BF189245";
shapes = (
{
closed = 1;
nodes = (
(60,0,l),
(85,0,ls),
(91,0,o),
(95,2,o),
(96,7,c),
(179,231,ls),
(181,236,o),
(183,238,o),
(189,238,c),
(511,238,ls),
(517,238,o),
(519,236,o),
(521,231,c),
(602,8,ls),
(604,2,o),
(608,0,o),
(615,0,c),
(639,0,ls),
(646,0,o),
(649,4,o),
(647,10,c),
(385,732,ls),
(383,739,o),
(377,742,o),
(367,742,c),
(334,742,ls),
(325,742,o),
(321,739,o),
(318,731,c),
(53,9,ls),
(51,3,o),
(54,0,o),
(60,0,c)
);
},
{
closed = 1;
nodes = (
(203,278,l),
(197,278,o),
(195,279,o),
(198,286,c),
(343,677,ls),
(348,691,o),
(353,691,o),
(358,678,c),
(501,288,ls),
(503,282,o),
(502,278,o),
(494,278,c)
);
}
);
width = 700;
},
{
anchors = (
{
name = bottom;
pos = (400,0);
},
{
name = ogonek;
pos = (745,7);
},
{
name = top;
pos = (395,742);
}
);
background = {
anchors = (
{
name = ogonek;
pos = (746,9);
},
{
name = top;
pos = (395,742);
}
);
shapes = (
{
closed = 1;
nodes = (
(43,0,l),
(195,0,ls),
(209,0,o),
(216,7,o),
(219,15,c),
(260,133,ls),
(262,140,o),
(267,144,o),
(275,144,c),
(487,144,ls),
(497,144,o),
(499,139,o),
(502,132,c),
(541,17,ls),
(545,4,o),
(553,0,o),
(563,0,c),
(759,0,ls),
(774,0,o),
(778,20,o),
(773,34,c),
(533,715,ls),
(527,731,o),
(514,742,o),
(497,742,c),
(300,742,ls),
(282,742,o),
(276,735,o),
(270,719,c),
(28,37,ls),
(20,15,o),
(28,0,o),
(43,0,c)
);
},
{
closed = 1;
nodes = (
(323,314,l),
(311,314,o),
(308,322,o),
(313,335,c),
(374,505,ls),
(376,512,o),
(383,512,o),
(386,505,c),
(446,334,ls),
(450,321,o),
(448,314,o),
(437,314,c)
);
}
);
};
layerId = "258ED206-D907-4350-8EBA-CBDDA1C16BF7";
shapes = (
{
closed = 1;
nodes = (
(43,0,l),
(195,0,ls),
(209,0,o),
(216,7,o),
(219,15,c),
(260,133,ls),
(262,140,o),
(267,144,o),
(275,144,c),
(487,144,ls),
(497,144,o),
(499,139,o),
(502,132,c),
(541,17,ls),
(545,4,o),
(553,0,o),
(563,0,c),
(759,0,ls),
(774,0,o),
(778,20,o),
(773,34,c),
(533,715,ls),
(527,731,o),
(514,742,o),
(497,742,c),
(300,742,ls),
(282,742,o),
(276,735,o),
(270,719,c),
(28,37,ls),
(20,15,o),
(28,0,o),
(43,0,c)
);
},
{
closed = 1;
nodes = (
(323,314,l),
(311,314,o),
(308,322,o),
(313,335,c),
(374,505,ls),
(376,512,o),
(383,512,o),
(386,505,c),
(446,334,ls),
(450,321,o),
(448,314,o),
(437,314,c)
);
}
);
width = 799;
}
);
unicode = 65;
},
{
glyphname = Abreve;
kernLeft = A;
kernRight = A;
lastChange = "2025-08-29 20:44:13 +0000";
layers = (
{
background = {
anchors = (
{
name = bottom;
pos = (350,0);
},
{
name = ogonek;
pos = (639,11);
},
{
name = top;
pos = (348,920);
}
);
shapes = (
{
closed = 1;
nodes = (
(60,0,l),
(85,0,ls),
(91,0,o),
(95,2,o),
(96,7,c),
(179,231,ls),
(181,236,o),
(183,238,o),
(189,238,c),
(511,238,ls),
(517,238,o),
(519,236,o),
(521,231,c),
(602,8,ls),
(604,2,o),
(608,0,o),
(615,0,c),
(639,0,ls),
(646,0,o),
(649,4,o),
(647,10,c),
(385,732,ls),
(383,739,o),
(377,742,o),
(367,742,c),
(334,742,ls),
(325,742,o),
(321,739,o),
(318,731,c),
(53,9,ls),
(51,3,o),
(54,0,o),
(60,0,c)
);
},
{
closed = 1;
nodes = (
(203,278,l),
(197,278,o),
(195,279,o),
(198,286,c),
(343,677,ls),
(348,691,o),
(353,691,o),
(358,678,c),
(501,288,ls),
(503,282,o),
(502,278,o),
(494,278,c)
);
},
{
closed = 1;
nodes = (
(437,954,ls),
(433,954,o),
(431,953,o),
(428,948,cs),
(417,929,o),
(394,903,o),
(348,903,cs),
(299,903,o),
(283,934,o),
(273,947,cs),
(269,952,o),
(267,954,o),
(261,954,cs),
(226,954,ls),
(220,954,o),
(221,949,o),
(222,946,cs),
(234,910,o),
(271,862,o),
(348,862,cs),
(428,862,o),
(470,913,o),
(479,945,cs),
(481,952,o),
(480,954,o),
(472,954,cs)
);
}
);
};
layerId = "91AB5BCA-6A50-42DA-B2F7-8181BF189245";
shapes = (
{
ref = A;
},
{
pos = (211,212);
ref = brevecomb;
}
);
width = 700;
},
{
background = {
anchors = (
{
name = bottom;
pos = (400,0);
},
{
name = ogonek;
pos = (746,9);
},
{
name = top;
pos = (395,934);
}
);
shapes = (
{
closed = 1;
nodes = (
(43,0,l),
(195,0,ls),
(209,0,o),
(216,7,o),
(219,15,c),
(260,133,ls),
(262,140,o),
(267,144,o),
(275,144,c),
(487,144,ls),
(497,144,o),
(499,139,o),
(502,132,c),
(541,17,ls),
(545,4,o),
(553,0,o),
(563,0,c),
(759,0,ls),
(774,0,o),
(778,20,o),
(773,34,c),
(533,715,ls),
(527,731,o),
(514,742,o),
(497,742,c),
(300,742,ls),
(282,742,o),
(276,735,o),
(270,719,c),
(28,37,ls),
(20,15,o),
(28,0,o),
(43,0,c)
);
},
{
closed = 1;
nodes = (
(323,314,l),
(311,314,o),
(308,322,o),
(313,335,c),
(374,505,ls),
(376,512,o),
(383,512,o),
(386,505,c),
(446,334,ls),
(450,321,o),
(448,314,o),
(437,314,c)
);
},
{
closed = 1;
nodes = (
(501,954,ls),
(493,954,o),
(488,953,o),
(481,941,cs),
(464,913,o),
(426,894,o),
(396,894,cs),
(363,894,o),
(329,914,o),
(310,940,cs),
(302,951,o),
(298,954,o),
(286,954,cs),
(209,954,ls),
(199,954,o),
(196,946,o),
(198,938,cs),
(222,843,o),
(309,805,o),
(396,805,cs),
(484,805,o),
(560,848,o),
(592,936,cs),
(596,947,o),
(593,954,o),
(579,954,cs)
);
}
);
};
layerId = "258ED206-D907-4350-8EBA-CBDDA1C16BF7";
shapes = (
{
ref = A;
},
{
pos = (184,212);
ref = brevecomb;
}
);
width = 799;
}
);
unicode = 258;
},
{
glyphname = Abreveacute;
kernLeft = A;
kernRight = A;
lastChange = "2025-08-29 20:44:13 +0000";
layers = (
{
background = {
anchors = (
{
name = bottom;
pos = (350,0);
},
{
name = ogonek;
pos = (639,11);
},
{
name = top;
pos = (458,933);
}
);
shapes = (
{
closed = 1;
nodes = (
(60,0,l),
(85,0,ls),
(91,0,o),
(95,2,o),
(96,7,c),
(179,231,ls),
(181,236,o),
(183,238,o),
(189,238,c),
(511,238,ls),
(517,238,o),
(519,236,o),
(521,231,c),
(602,8,ls),
(604,2,o),
(608,0,o),
(615,0,c),
(639,0,ls),
(646,0,o),
(649,4,o),
(647,10,c),
(385,732,ls),
(383,739,o),
(377,742,o),
(367,742,c),
(334,742,ls),
(325,742,o),
(321,739,o),
(318,731,c),
(53,9,ls),
(51,3,o),
(54,0,o),
(60,0,c)
);
},
{
closed = 1;
nodes = (
(203,278,l),
(197,278,o),
(195,279,o),
(198,286,c),
(343,677,ls),
(348,691,o),
(353,691,o),
(358,678,c),
(501,288,ls),
(503,282,o),
(502,278,o),
(494,278,c)
);
},
{
closed = 1;
nodes = (
(544,742,ls),
(540,742,o),
(538,741,o),
(535,736,cs),
(524,717,o),
(501,691,o),
(455,691,cs),
(406,691,o),
(390,722,o),
(380,735,cs),
(376,740,o),
(374,742,o),
(368,742,cs),
(333,742,ls),
(327,742,o),
(328,737,o),
(329,734,cs),
(341,698,o),
(378,650,o),
(455,650,cs),
(535,650,o),
(577,701,o),
(586,733,cs),
(588,740,o),
(587,742,o),
(579,742,cs)
);
},
{
closed = 1;
nodes = (
(573,933,o),
(569,934,o),
(566,933,cs),
(337,842,ls),
(334,841,o),
(332,837,o),
(334,832,cs),
(339,817,ls),
(341,811,o),
(344,810,o),
(350,812,cs),
(577,886,ls),
(585,889,o),
(586,892,o),
(584,898,cs),
(574,930,ls)
);
}
);
};
layerId = "91AB5BCA-6A50-42DA-B2F7-8181BF189245";
shapes = (
{
ref = A;
},
{
pos = (62,212);
ref = brevecomb_acutecomb;
}
);
width = 700;
},
{
background = {
anchors = (
{
name = bottom;
pos = (400,0);
},
{
name = ogonek;
pos = (746,9);
},
{
name = top;
pos = (455,982);
}
);
shapes = (
{
closed = 1;
nodes = (
(43,0,l),
(195,0,ls),
(209,0,o),
(216,7,o),
(219,15,c),
(260,133,ls),
(262,140,o),
(267,144,o),
(275,144,c),
(487,144,ls),
(497,144,o),
(499,139,o),
(502,132,c),
(541,17,ls),
(545,4,o),
(553,0,o),
(563,0,c),
(759,0,ls),
(774,0,o),
(778,20,o),
(773,34,c),
(533,715,ls),
(527,731,o),
(514,742,o),
(497,742,c),
(300,742,ls),
(282,742,o),
(276,735,o),
(270,719,c),
(28,37,ls),
(20,15,o),
(28,0,o),
(43,0,c)
);
},
{
closed = 1;
nodes = (
(323,314,l),
(311,314,o),
(308,322,o),
(313,335,c),
(374,505,ls),
(376,512,o),
(383,512,o),
(386,505,c),
(446,334,ls),
(450,321,o),
(448,314,o),
(437,314,c)
);
},
{
closed = 1;
nodes = (
(560,742,ls),
(552,742,o),
(547,741,o),
(540,729,cs),
(523,701,o),
(485,682,o),
(455,682,cs),
(422,682,o),
(388,702,o),
(369,728,cs),
(361,739,o),
(357,742,o),
(345,742,cs),
(268,742,ls),
(258,742,o),
(255,734,o),
(257,726,cs),
(281,631,o),
(368,593,o),
(455,593,cs),
(543,593,o),
(619,636,o),
(651,724,cs),
(655,735,o),
(652,742,o),
(638,742,cs)
);
},
{
closed = 1;
nodes = (
(571,939,o),
(563,944,o),
(554,940,cs),
(314,842,ls),
(305,838,o),
(302,830,o),
(306,818,cs),
(321,775,ls),
(326,761,o),
(333,758,o),
(350,762,cs),
(583,818,ls),
(603,823,o),
(607,835,o),
(602,850,cs),
(575,928,ls)
);
}
);
};
layerId = "258ED206-D907-4350-8EBA-CBDDA1C16BF7";
shapes = (
{
ref = A;
},
{
pos = (86,212);
ref = brevecomb_acutecomb;
}
);
width = 799;
}
);
unicode = 7854;
},
{
glyphname = Abrevedotbelow;
kernLeft = A;
kernRight = A;
lastChange = "2025-08-29 20:44:13 +0000";
layers = (
{
background = {
anchors = (
{
name = bottom;
pos = (350,0);
},
{
name = ogonek;
pos = (639,11);
},
{
name = top;
pos = (348,920);
}
);
shapes = (
{
closed = 1;
nodes = (
(60,0,l),
(85,0,ls),
(91,0,o),
(95,2,o),
(96,7,c),
(179,231,ls),
(181,236,o),
(183,238,o),
(189,238,c),
(511,238,ls),
(517,238,o),
(519,236,o),
(521,231,c),
(602,8,ls),
(604,2,o),
(608,0,o),
(615,0,c),
(639,0,ls),
(646,0,o),
(649,4,o),
(647,10,c),
(385,732,ls),
(383,739,o),
(377,742,o),
(367,742,c),
(334,742,ls),
(325,742,o),
(321,739,o),
(318,731,c),
(53,9,ls),
(51,3,o),
(54,0,o),
(60,0,c)
);
},
{
closed = 1;
nodes = (
(203,278,l),
(197,278,o),
(195,279,o),
(198,286,c),
(343,677,ls),
(348,691,o),
(353,691,o),
(358,678,c),
(501,288,ls),
(503,282,o),
(502,278,o),
(494,278,c)
);
},
{
closed = 1;
nodes = (
(448,-64,o),
(446,-62,o),
(439,-62,cs),
(405,-62,ls),
(398,-62,o),
(396,-64,o),
(396,-72,cs),
(396,-155,ls),
(396,-163,o),
(398,-165,o),
(407,-165,cs),
(436,-165,ls),
(446,-165,o),
(448,-163,o),
(448,-153,cs),
(448,-72,ls)
);
},
{
closed = 1;
nodes = (
(437,954,ls),
(433,954,o),
(431,953,o),
(428,948,cs),
(417,929,o),
(394,903,o),
(348,903,cs),
(299,903,o),
(283,934,o),
(273,947,cs),
(269,952,o),
(267,954,o),
(261,954,cs),
(226,954,ls),
(220,954,o),
(221,949,o),
(222,946,cs),
(234,910,o),
(271,862,o),
(348,862,cs),
(428,862,o),
(470,913,o),
(479,945,cs),
(481,952,o),
(480,954,o),
(472,954,cs)
);
}
);
};
layerId = "91AB5BCA-6A50-42DA-B2F7-8181BF189245";
shapes = (
{
ref = A;
},
{
pos = (314,0);
ref = dotbelowcomb;
},
{
pos = (211,212);
ref = brevecomb;
}
);
width = 700;
},
{
background = {
anchors = (
{
name = bottom;
pos = (400,0);
},
{
name = ogonek;
pos = (746,9);
},
{
name = top;
pos = (395,934);
}
);
shapes = (
{
closed = 1;
nodes = (
(43,0,l),
(195,0,ls),
(209,0,o),
(216,7,o),
(219,15,c),
(260,133,ls),
(262,140,o),
(267,144,o),
(275,144,c),
(487,144,ls),
(497,144,o),
(499,139,o),
(502,132,c),
(541,17,ls),
(545,4,o),
(553,0,o),
(563,0,c),
(759,0,ls),
(774,0,o),
(778,20,o),
(773,34,c),
(533,715,ls),
(527,731,o),
(514,742,o),
(497,742,c),
(300,742,ls),
(282,742,o),
(276,735,o),
(270,719,c),
(28,37,ls),
(20,15,o),
(28,0,o),
(43,0,c)
);
},
{
closed = 1;
nodes = (
(323,314,l),
(311,314,o),
(308,322,o),
(313,335,c),
(374,505,ls),
(376,512,o),
(383,512,o),
(386,505,c),
(446,334,ls),
(450,321,o),
(448,314,o),
(437,314,c)
);
},
{
closed = 1;
nodes = (
(642,-45,o),
(638,-39,o),
(629,-39,cs),
(507,-39,ls),
(498,-39,o),
(494,-45,o),
(494,-57,cs),
(494,-146,ls),
(494,-158,o),
(498,-165,o),
(513,-165,cs),
(618,-165,ls),
(635,-165,o),
(642,-158,o),
(642,-143,cs),
(642,-55,ls)
);
},
{
closed = 1;
nodes = (
(501,954,ls),
(493,954,o),
(488,953,o),
(481,941,cs),
(464,913,o),
(426,894,o),
(396,894,cs),
(363,894,o),
(329,914,o),
(310,940,cs),
(302,951,o),
(298,954,o),
(286,954,cs),
(209,954,ls),
(199,954,o),
(196,946,o),
(198,938,cs),
(222,843,o),
(309,805,o),
(396,805,cs),
(484,805,o),
(560,848,o),
(592,936,cs),
(596,947,o),
(593,954,o),
(579,954,cs)
);
}
);
};
layerId = "258ED206-D907-4350-8EBA-CBDDA1C16BF7";
shapes = (
{
ref = A;
},
{
pos = (316,0);
ref = dotbelowcomb;
},
{
pos = (184,212);
ref = brevecomb;
}
);
width = 799;
}
);
unicode = 7862;
},
{
glyphname = Abrevegrave;
kernLeft = A;
kernRight = A;
lastChange = "2025-08-29 20:44:13 +0000";
layers = (
{
background = {
anchors = (
{
name = bottom;
pos = (350,0);
},
{
name = ogonek;
pos = (639,11);
},
{
name = top;
pos = (456,708);
}
);
shapes = (
{
closed = 1;
nodes = (
(60,0,l),
(85,0,ls),
(91,0,o),
(95,2,o),
(96,7,c),
(179,231,ls),
(181,236,o),
(183,238,o),
(189,238,c),
(511,238,ls),
(517,238,o),
(519,236,o),
(521,231,c),
(602,8,ls),
(604,2,o),
(608,0,o),
(615,0,c),
(639,0,ls),
(646,0,o),
(649,4,o),
(647,10,c),
(385,732,ls),
(383,739,o),
(377,742,o),
(367,742,c),
(334,742,ls),
(325,742,o),
(321,739,o),
(318,731,c),
(53,9,ls),
(51,3,o),
(54,0,o),
(60,0,c)
);
},
{
closed = 1;
nodes = (
(203,278,l),
(197,278,o),
(195,279,o),
(198,286,c),
(343,677,ls),
(348,691,o),
(353,691,o),
(358,678,c),
(501,288,ls),
(503,282,o),
(502,278,o),
(494,278,c)
);
},
{
closed = 1;
nodes = (
(545,742,ls),
(541,742,o),
(539,741,o),
(536,736,cs),
(525,717,o),
(502,691,o),
(456,691,cs),
(407,691,o),
(391,722,o),
(381,735,cs),
(377,740,o),
(375,742,o),
(369,742,cs),
(334,742,ls),
(328,742,o),
(329,737,o),
(330,734,cs),
(342,698,o),
(379,650,o),
(456,650,cs),
(536,650,o),
(578,701,o),
(587,733,cs),
(589,740,o),
(588,742,o),
(580,742,cs)
);
},
{
closed = 1;
nodes = (
(338,894,ls),
(336,888,o),
(337,885,o),
(345,882,cs),
(572,808,ls),
(578,806,o),
(581,807,o),
(583,813,cs),
(588,828,ls),
(590,833,o),
(588,837,o),
(585,838,cs),
(356,929,ls),
(353,930,o),
(349,929,o),
(348,926,cs)
);
}
);
};
layerId = "91AB5BCA-6A50-42DA-B2F7-8181BF189245";
shapes = (
{
ref = A;
},
{
pos = (62,212);
ref = brevecomb_gravecomb;
}
);
width = 700;
},
{
background = {
anchors = (
{
name = bottom;
pos = (400,0);
},
{
name = ogonek;
pos = (746,9);
},
{
name = top;
pos = (444,722);
}
);
shapes = (
{
closed = 1;
nodes = (
(43,0,l),
(195,0,ls),
(209,0,o),
(216,7,o),
(219,15,c),
(260,133,ls),
(262,140,o),
(267,144,o),
(275,144,c),
(487,144,ls),
(497,144,o),
(499,139,o),
(502,132,c),
(541,17,ls),
(545,4,o),
(553,0,o),
(563,0,c),
(759,0,ls),
(774,0,o),
(778,20,o),
(773,34,c),
(533,715,ls),
(527,731,o),
(514,742,o),
(497,742,c),
(300,742,ls),
(282,742,o),
(276,735,o),
(270,719,c),
(28,37,ls),
(20,15,o),
(28,0,o),
(43,0,c)
);
},
{
closed = 1;
nodes = (
(323,314,l),
(311,314,o),
(308,322,o),
(313,335,c),
(374,505,ls),
(376,512,o),
(383,512,o),
(386,505,c),
(446,334,ls),
(450,321,o),
(448,314,o),
(437,314,c)
);
},
{
closed = 1;
nodes = (
(550,742,ls),
(542,742,o),
(537,741,o),
(530,729,cs),
(513,701,o),
(475,682,o),
(445,682,cs),
(412,682,o),
(378,702,o),
(359,728,cs),
(351,739,o),
(347,742,o),
(335,742,cs),
(258,742,ls),
(248,742,o),
(245,734,o),
(247,726,cs),
(271,631,o),
(358,593,o),
(445,593,cs),
(533,593,o),
(609,636,o),
(641,724,cs),
(645,735,o),
(642,742,o),
(628,742,cs)
);
},
{
closed = 1;
nodes = (
(297,853,ls),
(292,838,o),
(296,826,o),
(316,821,cs),
(549,765,ls),
(566,761,o),
(573,764,o),
(578,778,cs),
(593,821,ls),
(597,833,o),
(594,841,o),
(585,845,cs),
(346,943,ls),
(337,947,o),
(329,942,o),
(325,931,cs)
);
}
);
};
layerId = "258ED206-D907-4350-8EBA-CBDDA1C16BF7";
shapes = (
{
ref = A;
},
{
pos = (97,212);
ref = brevecomb_gravecomb;
}
);
width = 799;
}
);
unicode = 7856;
},
{
glyphname = Abrevehookabove;
kernLeft = A;
kernRight = A;
lastChange = "2025-08-29 20:44:13 +0000";
layers = (
{
background = {
anchors = (
{
name = bottom;
pos = (350,0);
},
{
name = ogonek;
pos = (639,11);
},
{
name = top;
pos = (948,920);
}
);
shapes = (
{
closed = 1;
nodes = (
(60,0,l),
(85,0,ls),
(91,0,o),
(95,2,o),
(96,7,c),
(179,231,ls),
(181,236,o),
(183,238,o),
(189,238,c),
(511,238,ls),
(517,238,o),
(519,236,o),
(521,231,c),
(602,8,ls),
(604,2,o),
(608,0,o),
(615,0,c),
(639,0,ls),
(646,0,o),
(649,4,o),
(647,10,c),
(385,732,ls),
(383,739,o),
(377,742,o),
(367,742,c),
(334,742,ls),
(325,742,o),
(321,739,o),
(318,731,c),
(53,9,ls),
(51,3,o),
(54,0,o),
(60,0,c)
);
},
{
closed = 1;
nodes = (
(203,278,l),
(197,278,o),
(195,279,o),
(198,286,c),
(343,677,ls),
(348,691,o),
(353,691,o),
(358,678,c),
(501,288,ls),
(503,282,o),
(502,278,o),
(494,278,c)
);
},
{
closed = 1;
nodes = (
(1037,954,ls),
(1033,954,o),
(1031,953,o),
(1028,948,cs),
(1017,929,o),
(994,903,o),
(948,903,cs),
(899,903,o),
(883,934,o),
(873,947,cs),
(869,952,o),
(867,954,o),
(861,954,cs),
(826,954,ls),
(820,954,o),
(821,949,o),
(822,946,cs),
(834,910,o),
(871,862,o),
(948,862,cs),
(1028,862,o),
(1070,913,o),
(1079,945,cs),
(1081,952,o),
(1080,954,o),
(1072,954,cs)
);
},
{
closed = 1;
nodes = (
(901,1135,o),
(928,1145,o),
(948,1145,cs),
(991,1145,o),
(1019,1120,o),
(1019,1080,cs),
(1019,1049,o),
(994,1020,o),
(963,989,cs),
(961,987,o),
(959,988,o),
(957,990,cs),
(943,1007,ls),
(941,1009,o),
(942,1012,o),
(944,1014,cs),
(968,1038,o),
(987,1061,o),
(987,1078,cs),
(987,1103,o),
(970,1111,o),
(945,1111,cs),
(928,1111,o),
(912,1102,o),
(895,1091,cs),
(892,1089,o),
(891,1091,o),
(890,1093,cs),
(880,1116,ls),
(878,1120,o),
(879,1121,o),
(882,1123,cs)
);
}
);
};
layerId = "91AB5BCA-6A50-42DA-B2F7-8181BF189245";
shapes = (
{
ref = A;
},
{
pos = (57,212);
ref = brevecomb_hookabovecomb;
}
);
width = 700;
},
{
background = {
anchors = (
{
name = bottom;
pos = (400,0);
},
{
name = ogonek;
pos = (746,9);
},
{
name = top;
pos = (395,934);
}
);
shapes = (
{
closed = 1;
nodes = (
(43,0,l),
(195,0,ls),
(209,0,o),
(216,7,o),
(219,15,c),
(260,133,ls),
(262,140,o),
(267,144,o),
(275,144,c),
(487,144,ls),
(497,144,o),
(499,139,o),
(502,132,c),
(541,17,ls),
(545,4,o),
(553,0,o),
(563,0,c),
(759,0,ls),
(774,0,o),
(778,20,o),
(773,34,c),
(533,715,ls),
(527,731,o),
(514,742,o),
(497,742,c),
(300,742,ls),
(282,742,o),
(276,735,o),
(270,719,c),
(28,37,ls),
(20,15,o),
(28,0,o),
(43,0,c)
);
},
{
closed = 1;
nodes = (
(323,314,l),
(311,314,o),
(308,322,o),
(313,335,c),
(374,505,ls),
(376,512,o),
(383,512,o),
(386,505,c),
(446,334,ls),
(450,321,o),
(448,314,o),
(437,314,c)
);
},
{
closed = 1;
nodes = (
(501,954,ls),
(493,954,o),
(488,953,o),
(481,941,cs),
(464,913,o),
(426,894,o),
(396,894,cs),
(363,894,o),
(329,914,o),
(310,940,cs),
(302,951,o),
(298,954,o),
(286,954,cs),
(209,954,ls),
(199,954,o),
(196,946,o),
(198,938,cs),
(222,843,o),
(309,805,o),
(396,805,cs),
(484,805,o),
(560,848,o),
(592,936,cs),
(596,947,o),
(593,954,o),
(579,954,cs)
);
},
{
closed = 1;
nodes = (
(322,1156,o),
(346,1167,o),
(375,1167,cs),
(438,1167,o),
(487,1130,o),
(487,1072,cs),
(487,1021,o),
(450,984,o),
(402,948,cs),
(394,942,o),
(387,945,o),
(382,951,cs),
(354,990,ls),
(349,997,o),
(352,1005,o),
(356,1008,cs),
(392,1035,o),
(408,1046,o),
(408,1067,cs),
(408,1083,o),
(388,1088,o),
(374,1088,cs),
(357,1088,o),
(341,1083,o),
(321,1072,cs),
(314,1068,o),
(308,1072,o),
(304,1079,cs),
(279,1126,ls),
(274,1136,o),
(278,1140,o),
(286,1143,cs)
);
}
);
};
layerId = "258ED206-D907-4350-8EBA-CBDDA1C16BF7";
shapes = (
{
ref = A;
},
{
pos = (92,212);
ref = brevecomb_hookabovecomb;
}
);
width = 799;
}
);
unicode = 7858;
},
{
glyphname = Abrevetilde;
kernLeft = A;
kernRight = A;
lastChange = "2025-08-29 20:44:13 +0000";
layers = (
{
background = {
anchors = (
{
name = bottom;
pos = (350,0);
},
{
name = ogonek;
pos = (639,11);
},
{
name = top;
pos = (457,829);
}
);
shapes = (
{
closed = 1;
nodes = (
(60,0,l),
(85,0,ls),
(91,0,o),
(95,2,o),
(96,7,c),
(179,231,ls),
(181,236,o),
(183,238,o),
(189,238,c),
(511,238,ls),
(517,238,o),
(519,236,o),
(521,231,c),
(602,8,ls),
(604,2,o),
(608,0,o),
(615,0,c),
(639,0,ls),
(646,0,o),
(649,4,o),
(647,10,c),
(385,732,ls),
(383,739,o),
(377,742,o),
(367,742,c),
(334,742,ls),
(325,742,o),
(321,739,o),
(318,731,c),
(53,9,ls),
(51,3,o),
(54,0,o),
(60,0,c)
);
},
{
closed = 1;
nodes = (
(203,278,l),
(197,278,o),
(195,279,o),
(198,286,c),
(343,677,ls),
(348,691,o),
(353,691,o),
(358,678,c),
(501,288,ls),
(503,282,o),
(502,278,o),
(494,278,c)
);
},
{
closed = 1;
nodes = (
(556,742,ls),
(552,742,o),
(550,741,o),
(547,736,cs),
(536,717,o),
(513,691,o),
(467,691,cs),
(418,691,o),
(402,722,o),
(392,735,cs),
(388,740,o),
(386,742,o),
(380,742,cs),
(345,742,ls),
(339,742,o),
(340,737,o),
(341,734,cs),
(353,698,o),
(390,650,o),
(467,650,cs),
(547,650,o),
(589,701,o),
(598,733,cs),
(600,740,o),
(599,742,o),
(591,742,cs)
);
},
{
closed = 1;
nodes = (
(598,874,o),
(599,875,o),
(597,879,cs),
(589,897,ls),
(586,903,o),
(583,904,o),
(576,900,cs),
(559,890,o),
(548,884,o),
(526,884,cs),
(482,884,o),
(451,909,o),
(407,909,cs),
(377,909,o),
(359,897,o),
(339,883,cs),
(336,881,o),
(335,880,o),
(337,875,cs),
(344,859,ls),
(347,852,o),
(349,852,o),
(355,855,cs),
(368,862,o),
(381,875,o),
(411,875,cs),
(452,875,o),
(473,851,o),
(525,851,cs),
(561,851,o),
(579,862,o),
(592,870,cs)
);
}
);
};
layerId = "91AB5BCA-6A50-42DA-B2F7-8181BF189245";
shapes = (
{
ref = A;
},
{
pos = (44,212);
ref = brevecomb_tildecomb;
}
);
width = 700;
},
{
background = {
anchors = (
{
name = bottom;
pos = (400,0);
},
{
name = ogonek;
pos = (746,9);
},
{
name = top;
pos = (433,933);
}
);
shapes = (
{
closed = 1;
nodes = (
(43,0,l),
(195,0,ls),
(209,0,o),
(216,7,o),
(219,15,c),
(260,133,ls),
(262,140,o),
(267,144,o),
(275,144,c),
(487,144,ls),
(497,144,o),
(499,139,o),
(502,132,c),
(541,17,ls),
(545,4,o),
(553,0,o),
(563,0,c),
(759,0,ls),
(774,0,o),
(778,20,o),
(773,34,c),
(533,715,ls),
(527,731,o),
(514,742,o),
(497,742,c),
(300,742,ls),
(282,742,o),
(276,735,o),
(270,719,c),
(28,37,ls),
(20,15,o),
(28,0,o),
(43,0,c)
);
},
{
closed = 1;
nodes = (
(323,314,l),
(311,314,o),
(308,322,o),
(313,335,c),
(374,505,ls),
(376,512,o),
(383,512,o),
(386,505,c),
(446,334,ls),
(450,321,o),
(448,314,o),
(437,314,c)
);
},
{
closed = 1;
nodes = (
(555,742,ls),
(547,742,o),
(542,741,o),
(535,729,cs),
(518,701,o),
(480,682,o),
(450,682,cs),
(417,682,o),
(383,702,o),
(364,728,cs),
(356,739,o),
(352,742,o),
(340,742,cs),
(263,742,ls),
(253,742,o),
(250,734,o),
(252,726,cs),
(276,631,o),
(363,593,o),
(450,593,cs),
(538,593,o),
(614,636,o),
(646,724,cs),
(650,735,o),
(647,742,o),
(633,742,cs)
);
},
{
closed = 1;
nodes = (
(647,841,o),
(650,849,o),
(647,861,cs),
(633,926,ls),
(630,941,o),
(619,942,o),
(609,935,cs),
(591,922,o),
(564,907,o),
(532,907,cs),
(485,907,o),
(429,941,o),
(366,941,cs),
(319,941,o),
(293,921,o),
(268,900,cs),
(253,887,o),
(257,879,o),
(260,869,cs),
(277,815,ls),
(282,799,o),
(289,799,o),
(300,807,cs),
(326,826,o),
(343,832,o),
(371,832,cs),
(428,832,o),
(474,801,o),
(533,801,cs),
(574,801,o),
(612,816,o),
(633,831,cs)
);
}
);
};
layerId = "258ED206-D907-4350-8EBA-CBDDA1C16BF7";
shapes = (
{
ref = A;
},
{
pos = (92,212);
ref = brevecomb_tildecomb;
}
);
width = 799;
}
);
unicode = 7860;
},
{
glyphname = Acircumflexacute;
kernLeft = A;
kernRight = A;
lastChange = "2025-08-29 20:44:13 +0000";
layers = (
{
background = {
anchors = (
{
name = bottom;
pos = (350,0);
},
{
name = ogonek;
pos = (639,11);
},
{
name = top;
pos = (465,799);
},
{
name = topviet;
pos = (550,715);
}
);
shapes = (
{
closed = 1;
nodes = (
(60,0,l),
(85,0,ls),
(91,0,o),
(95,2,o),
(96,7,c),
(179,231,ls),
(181,236,o),
(183,238,o),
(189,238,c),
(511,238,ls),
(517,238,o),
(519,236,o),
(521,231,c),
(602,8,ls),
(604,2,o),
(608,0,o),
(615,0,c),
(639,0,ls),
(646,0,o),
(649,4,o),
(647,10,c),
(385,732,ls),
(383,739,o),
(377,742,o),
(367,742,c),
(334,742,ls),
(325,742,o),
(321,739,o),
(318,731,c),
(53,9,ls),
(51,3,o),
(54,0,o),
(60,0,c)
);
},
{
closed = 1;
nodes = (
(203,278,l),
(197,278,o),
(195,279,o),
(198,286,c),
(343,677,ls),
(348,691,o),
(353,691,o),
(358,678,c),
(501,288,ls),
(503,282,o),
(502,278,o),
(494,278,c)
);
},
{
closed = 1;
nodes = (
(535,646,o),
(539,644,o),
(545,644,cs),
(586,644,ls),
(594,644,o),
(594,648,o),
(587,654,cs),
(489,734,ls),
(485,737,o),
(481,742,o),
(473,742,cs),
(455,742,ls),
(446,742,o),
(441,738,o),
(435,733,cs),
(336,654,ls),
(330,649,o),
(331,644,o),
(338,644,cs),
(375,644,ls),
(382,644,o),
(383,645,o),
(390,650,cs),
(452,698,ls),
(463,706,o),
(461,706,o),
(471,698,cs),
(530,650,ls)
);
},
{
closed = 1;
nodes = (
(579,889,o),
(575,890,o),
(572,889,cs),
(343,798,ls),
(340,797,o),
(338,793,o),
(340,788,cs),
(345,773,ls),
(347,767,o),
(350,766,o),
(356,768,cs),
(583,842,ls),
(591,845,o),
(592,848,o),
(590,854,cs),
(580,886,ls)
);
}
);
};
layerId = "91AB5BCA-6A50-42DA-B2F7-8181BF189245";
shapes = (
{
ref = A;
},
{
pos = (58,212);
ref = circumflexcomb_acutecomb;
}
);
width = 700;
},
{
background = {
anchors = (
{
name = bottom;
pos = (400,0);
},
{
name = ogonek;
pos = (746,9);
},
{
name = top;
pos = (448,906);
},
{
name = topviet;
pos = (596,699);
}
);
shapes = (
{
closed = 1;
nodes = (
(43,0,l),
(195,0,ls),
(209,0,o),
(216,7,o),
(219,15,c),
(260,133,ls),
(262,140,o),
(267,144,o),
(275,144,c),
(487,144,ls),
(497,144,o),
(499,139,o),
(502,132,c),
(541,17,ls),
(545,4,o),
(553,0,o),
(563,0,c),
(759,0,ls),
(774,0,o),
(778,20,o),
(773,34,c),
(533,715,ls),
(527,731,o),
(514,742,o),
(497,742,c),
(300,742,ls),
(282,742,o),
(276,735,o),
(270,719,c),
(28,37,ls),
(20,15,o),
(28,0,o),
(43,0,c)
);
},
{
closed = 1;
nodes = (
(323,314,l),
(311,314,o),
(308,322,o),
(313,335,c),
(374,505,ls),
(376,512,o),
(383,512,o),
(386,505,c),
(446,334,ls),
(450,321,o),
(448,314,o),
(437,314,c)
);
},
{
closed = 1;
nodes = (
(512,595,o),
(520,595,o),
(532,595,cs),
(637,595,ls),
(651,595,o),
(650,601,o),
(639,613,cs),
(528,739,ls),
(521,746,o),
(514,752,o),
(500,752,cs),
(405,752,ls),
(386,752,o),
(377,747,o),
(368,737,cs),
(256,613,ls),
(246,602,o),
(247,595,o),
(259,595,cs),
(358,595,ls),
(371,595,o),
(375,594,o),
(384,604,cs),
(430,658,ls),
(447,677,o),
(450,676,o),
(464,658,cs),
(505,604,ls)
);
},
{
closed = 1;
nodes = (
(565,934,o),
(557,939,o),
(548,935,cs),
(308,837,ls),
(299,833,o),
(296,825,o),
(300,813,cs),
(315,770,ls),
(320,756,o),
(327,753,o),
(344,757,cs),
(577,813,ls),
(597,818,o),
(601,830,o),
(596,845,cs),
(569,923,ls)
);
}
);
};
layerId = "258ED206-D907-4350-8EBA-CBDDA1C16BF7";
shapes = (
{
ref = A;
},
{
pos = (92,212);
ref = circumflexcomb_acutecomb;
}
);
width = 799;
}
);
unicode = 7844;
},
{
glyphname = Acircumflexdotbelow;
kernLeft = A;
kernRight = A;
lastChange = "2025-08-29 20:44:13 +0000";
layers = (
{
background = {
anchors = (
{
name = bottom;
pos = (350,0);
},
{
name = ogonek;
pos = (639,11);
},
{
name = top;
pos = (349,876);
},
{
name = topviet;
pos = (438,927);
}
);
shapes = (
{
closed = 1;
nodes = (
(60,0,l),
(85,0,ls),
(91,0,o),
(95,2,o),
(96,7,c),
(179,231,ls),
(181,236,o),
(183,238,o),
(189,238,c),
(511,238,ls),
(517,238,o),
(519,236,o),
(521,231,c),
(602,8,ls),
(604,2,o),
(608,0,o),
(615,0,c),
(639,0,ls),
(646,0,o),
(649,4,o),
(647,10,c),
(385,732,ls),
(383,739,o),
(377,742,o),
(367,742,c),
(334,742,ls),
(325,742,o),
(321,739,o),
(318,731,c),
(53,9,ls),
(51,3,o),
(54,0,o),
(60,0,c)
);
},
{
closed = 1;
nodes = (
(203,278,l),
(197,278,o),
(195,279,o),
(198,286,c),
(343,677,ls),
(348,691,o),
(353,691,o),
(358,678,c),
(501,288,ls),
(503,282,o),
(502,278,o),
(494,278,c)
);
},
{
closed = 1;
nodes = (
(376,-64,o),
(374,-62,o),
(367,-62,cs),
(333,-62,ls),
(326,-62,o),
(324,-64,o),
(324,-72,cs),
(324,-155,ls),
(324,-163,o),
(326,-165,o),
(335,-165,cs),
(364,-165,ls),
(374,-165,o),
(376,-163,o),
(376,-153,cs),
(376,-72,ls)
);
},
{
closed = 1;
nodes = (
(423,858,o),
(427,856,o),
(433,856,cs),
(474,856,ls),
(482,856,o),
(482,860,o),
(475,866,cs),
(377,946,ls),
(373,949,o),
(369,954,o),
(361,954,cs),
(343,954,ls),
(334,954,o),
(329,950,o),
(323,945,cs),
(224,866,ls),
(218,861,o),
(219,856,o),
(226,856,cs),
(263,856,ls),
(270,856,o),
(271,857,o),
(278,862,cs),
(340,910,ls),
(351,918,o),
(349,918,o),
(359,910,cs),
(418,862,ls)
);
}
);
};
layerId = "91AB5BCA-6A50-42DA-B2F7-8181BF189245";
shapes = (
{
ref = A;
},
{
pos = (314,0);
ref = dotbelowcomb;
},
{
pos = (210,212);
ref = circumflexcomb;
}
);
width = 700;
},
{
background = {
anchors = (
{
name = bottom;
pos = (400,0);
},
{
name = ogonek;
pos = (746,9);
},
{
name = top;
pos = (804,929);
},
{
name = topviet;
pos = (952,911);
}
);
shapes = (
{
closed = 1;
nodes = (
(43,0,l),
(195,0,ls),
(209,0,o),
(216,7,o),
(219,15,c),
(260,133,ls),
(262,140,o),
(267,144,o),
(275,144,c),
(487,144,ls),
(497,144,o),
(499,139,o),
(502,132,c),
(541,17,ls),
(545,4,o),
(553,0,o),
(563,0,c),
(759,0,ls),
(774,0,o),
(778,20,o),
(773,34,c),
(533,715,ls),
(527,731,o),
(514,742,o),
(497,742,c),
(300,742,ls),
(282,742,o),
(276,735,o),
(270,719,c),
(28,37,ls),
(20,15,o),
(28,0,o),
(43,0,c)
);
},
{
closed = 1;
nodes = (
(323,314,l),
(311,314,o),
(308,322,o),
(313,335,c),
(374,505,ls),
(376,512,o),
(383,512,o),
(386,505,c),
(446,334,ls),
(450,321,o),
(448,314,o),
(437,314,c)
);
},
{
closed = 1;
nodes = (
(620,-45,o),
(616,-39,o),
(607,-39,cs),
(485,-39,ls),
(476,-39,o),
(472,-45,o),
(472,-57,cs),
(472,-146,ls),
(472,-158,o),
(476,-165,o),
(491,-165,cs),
(596,-165,ls),
(613,-165,o),
(620,-158,o),
(620,-143,cs),
(620,-55,ls)
);
},
{
closed = 1;
nodes = (
(868,807,o),
(876,807,o),
(888,807,cs),
(993,807,ls),
(1007,807,o),
(1006,813,o),
(995,825,cs),
(884,951,ls),
(877,958,o),
(870,964,o),
(856,964,cs),
(761,964,ls),
(742,964,o),
(733,959,o),
(724,949,cs),
(612,825,ls),
(602,814,o),
(603,807,o),
(615,807,cs),
(714,807,ls),
(727,807,o),
(731,806,o),
(740,816,cs),
(786,870,ls),
(803,889,o),
(806,888,o),
(820,870,cs),
(861,816,ls)
);
}
);
};
layerId = "258ED206-D907-4350-8EBA-CBDDA1C16BF7";
shapes = (
{
ref = A;
},
{
pos = (316,0);
ref = dotbelowcomb;
},
{
pos = (185,212);
ref = circumflexcomb;
}
);
width = 799;
}
);
unicode = 7852;
},
{
glyphname = Acircumflexgrave;
kernLeft = A;
kernRight = A;
lastChange = "2025-08-29 20:44:13 +0000";
layers = (
{
background = {
anchors = (
{
name = bottom;
pos = (350,0);
},
{
name = ogonek;
pos = (639,11);
},
{
name = top;
pos = (468,664);
},
{
name = topviet;
pos = (557,715);
}
);
shapes = (
{
closed = 1;
nodes = (
(60,0,l),
(85,0,ls),
(91,0,o),
(95,2,o),
(96,7,c),
(179,231,ls),
(181,236,o),
(183,238,o),
(189,238,c),
(511,238,ls),
(517,238,o),
(519,236,o),
(521,231,c),
(602,8,ls),
(604,2,o),
(608,0,o),
(615,0,c),
(639,0,ls),
(646,0,o),
(649,4,o),
(647,10,c),
(385,732,ls),
(383,739,o),
(377,742,o),
(367,742,c),
(334,742,ls),
(325,742,o),
(321,739,o),
(318,731,c),
(53,9,ls),
(51,3,o),
(54,0,o),
(60,0,c)
);
},
{
closed = 1;
nodes = (
(203,278,l),
(197,278,o),
(195,279,o),
(198,286,c),
(343,677,ls),
(348,691,o),
(353,691,o),
(358,678,c),
(501,288,ls),
(503,282,o),
(502,278,o),
(494,278,c)
);
},
{
closed = 1;
nodes = (
(542,646,o),
(546,644,o),
(552,644,cs),
(593,644,ls),
(601,644,o),
(601,648,o),
(594,654,cs),
(496,734,ls),
(492,737,o),
(488,742,o),
(480,742,cs),
(462,742,ls),
(453,742,o),
(448,738,o),
(442,733,cs),
(343,654,ls),
(337,649,o),
(338,644,o),
(345,644,cs),
(382,644,ls),
(389,644,o),
(390,645,o),
(397,650,cs),
(459,698,ls),
(470,706,o),
(468,706,o),
(478,698,cs),
(537,650,ls)
);
},
{
closed = 1;
nodes = (
(350,850,ls),
(348,844,o),
(349,841,o),
(357,838,cs),
(584,764,ls),
(590,762,o),
(593,763,o),
(595,769,cs),
(600,784,ls),
(602,789,o),
(600,793,o),
(597,794,cs),
(368,885,ls),
(365,886,o),
(361,885,o),
(360,882,cs)
);
}
);
};
layerId = "91AB5BCA-6A50-42DA-B2F7-8181BF189245";
shapes = (
{
ref = A;
},
{
pos = (50,212);
ref = circumflexcomb_gravecomb;
}
);
width = 700;
},
{
background = {
anchors = (
{
name = bottom;
pos = (400,0);
},
{
name = ogonek;
pos = (746,9);
},
{
name = top;
pos = (454,717);
},
{
name = topviet;
pos = (602,699);
}
);
shapes = (
{
closed = 1;
nodes = (
(43,0,l),
(195,0,ls),
(209,0,o),
(216,7,o),
(219,15,c),
(260,133,ls),
(262,140,o),
(267,144,o),
(275,144,c),
(487,144,ls),
(497,144,o),
(499,139,o),
(502,132,c),
(541,17,ls),
(545,4,o),
(553,0,o),
(563,0,c),
(759,0,ls),
(774,0,o),
(778,20,o),
(773,34,c),
(533,715,ls),
(527,731,o),
(514,742,o),
(497,742,c),
(300,742,ls),
(282,742,o),
(276,735,o),
(270,719,c),
(28,37,ls),
(20,15,o),
(28,0,o),
(43,0,c)
);
},
{
closed = 1;
nodes = (
(323,314,l),
(311,314,o),
(308,322,o),
(313,335,c),
(374,505,ls),
(376,512,o),
(383,512,o),
(386,505,c),
(446,334,ls),
(450,321,o),
(448,314,o),
(437,314,c)
);
},
{
closed = 1;
nodes = (
(518,595,o),
(526,595,o),
(538,595,cs),
(643,595,ls),
(657,595,o),
(656,601,o),
(645,613,cs),
(534,739,ls),
(527,746,o),
(520,752,o),
(506,752,cs),
(411,752,ls),
(392,752,o),
(383,747,o),
(374,737,cs),
(262,613,ls),
(252,602,o),
(253,595,o),
(265,595,cs),
(364,595,ls),
(377,595,o),
(381,594,o),
(390,604,cs),
(436,658,ls),
(453,677,o),
(456,676,o),
(470,658,cs),
(511,604,ls)
);
},
{
closed = 1;
nodes = (
(307,848,ls),
(302,833,o),
(306,821,o),
(326,816,cs),
(559,760,ls),
(576,756,o),
(583,759,o),
(588,773,cs),
(603,816,ls),
(607,828,o),
(604,836,o),
(595,840,cs),
(356,938,ls),
(347,942,o),
(339,937,o),
(335,926,cs)
);
}
);
};
layerId = "258ED206-D907-4350-8EBA-CBDDA1C16BF7";
shapes = (
{
ref = A;
},
{
pos = (86,212);
ref = circumflexcomb_gravecomb;
}
);
width = 799;
}
);
unicode = 7846;
},
{
glyphname = Acircumflexhookabove;
kernLeft = A;
kernRight = A;
lastChange = "2025-08-29 20:44:13 +0000";
layers = (
{
background = {
anchors = (
{
name = bottom;
pos = (350,0);
},
{
name = ogonek;
pos = (639,11);
},
{
name = top;
pos = (452,664);
},
{
name = topviet;
pos = (541,715);
}
);
shapes = (
{
closed = 1;
nodes = (
(60,0,l),
(85,0,ls),
(91,0,o),
(95,2,o),
(96,7,c),
(179,231,ls),
(181,236,o),
(183,238,o),
(189,238,c),
(511,238,ls),
(517,238,o),
(519,236,o),
(521,231,c),
(602,8,ls),
(604,2,o),
(608,0,o),
(615,0,c),
(639,0,ls),
(646,0,o),
(649,4,o),
(647,10,c),
(385,732,ls),
(383,739,o),
(377,742,o),
(367,742,c),
(334,742,ls),
(325,742,o),
(321,739,o),
(318,731,c),
(53,9,ls),
(51,3,o),
(54,0,o),
(60,0,c)
);
},
{
closed = 1;
nodes = (
(203,278,l),
(197,278,o),
(195,279,o),
(198,286,c),
(343,677,ls),
(348,691,o),
(353,691,o),
(358,678,c),
(501,288,ls),
(503,282,o),
(502,278,o),
(494,278,c)
);
},
{
closed = 1;
nodes = (
(526,646,o),
(530,644,o),
(536,644,cs),
(577,644,ls),
(585,644,o),
(585,648,o),
(578,654,cs),
(480,734,ls),
(476,737,o),
(472,742,o),
(464,742,cs),
(446,742,ls),
(437,742,o),
(432,738,o),
(426,733,cs),
(327,654,ls),
(321,649,o),
(322,644,o),
(329,644,cs),
(366,644,ls),
(373,644,o),
(374,645,o),
(381,650,cs),
(443,698,ls),
(454,706,o),
(452,706,o),
(462,698,cs),
(521,650,ls)
);
},
{
closed = 1;
nodes = (
(523,876,o),
(550,886,o),
(570,886,cs),
(613,886,o),
(641,861,o),
(641,821,cs),
(641,790,o),
(616,761,o),
(585,730,cs),
(583,728,o),
(581,729,o),
(579,731,cs),
(565,748,ls),
(563,750,o),
(564,753,o),
(566,755,cs),
(590,779,o),
(609,802,o),
(609,819,cs),
(609,844,o),
(592,852,o),
(567,852,cs),
(550,852,o),
(534,843,o),
(517,832,cs),
(514,830,o),
(513,832,o),
(512,834,cs),
(502,857,ls),
(500,861,o),
(501,862,o),
(504,864,cs)
);
}
);
};
layerId = "91AB5BCA-6A50-42DA-B2F7-8181BF189245";
shapes = (
{
ref = A;
},
{
pos = (40,212);
ref = circumflexcomb_hookabovecomb;
}
);
width = 700;
},
{
background = {
anchors = (
{
name = bottom;
pos = (400,0);
},
{
name = ogonek;
pos = (746,9);
},
{
name = top;
pos = (397,717);
},
{
name = topviet;
pos = (545,699);
}
);
shapes = (
{
closed = 1;
nodes = (
(43,0,l),
(195,0,ls),
(209,0,o),
(216,7,o),
(219,15,c),
(260,133,ls),
(262,140,o),
(267,144,o),
(275,144,c),
(487,144,ls),
(497,144,o),
(499,139,o),
(502,132,c),
(541,17,ls),
(545,4,o),
(553,0,o),
(563,0,c),
(759,0,ls),
(774,0,o),
(778,20,o),
(773,34,c),
(533,715,ls),
(527,731,o),
(514,742,o),
(497,742,c),
(300,742,ls),
(282,742,o),
(276,735,o),
(270,719,c),
(28,37,ls),
(20,15,o),
(28,0,o),
(43,0,c)
);
},
{
closed = 1;
nodes = (
(323,314,l),
(311,314,o),
(308,322,o),
(313,335,c),
(374,505,ls),
(376,512,o),
(383,512,o),
(386,505,c),
(446,334,ls),
(450,321,o),
(448,314,o),
(437,314,c)
);
},
{
closed = 1;
nodes = (
(461,595,o),
(469,595,o),
(481,595,cs),
(586,595,ls),
(600,595,o),
(599,601,o),
(588,613,cs),
(477,739,ls),
(470,746,o),
(463,752,o),
(449,752,cs),
(354,752,ls),
(335,752,o),
(326,747,o),
(317,737,cs),
(205,613,ls),
(195,602,o),
(196,595,o),
(208,595,cs),
(307,595,ls),
(320,595,o),
(324,594,o),
(333,604,cs),
(379,658,ls),
(396,677,o),
(399,676,o),
(413,658,cs),
(454,604,ls)
);
},
{
closed = 1;
nodes = (
(545,912,o),
(569,923,o),
(598,923,cs),
(661,923,o),
(710,886,o),
(710,828,cs),
(710,777,o),
(673,740,o),
(625,704,cs),
(617,698,o),
(610,701,o),
(605,707,cs),
(577,746,ls),
(572,753,o),
(575,761,o),
(579,764,cs),
(615,791,o),
(631,802,o),
(631,823,cs),
(631,839,o),
(611,844,o),
(597,844,cs),
(580,844,o),
(564,839,o),
(544,828,cs),
(537,824,o),
(531,828,o),
(527,835,cs),
(502,882,ls),
(497,892,o),
(501,896,o),
(509,899,cs)
);
}
);
};
layerId = "258ED206-D907-4350-8EBA-CBDDA1C16BF7";
shapes = (
{
ref = A;
},
{
pos = (94,212);
ref = circumflexcomb_hookabovecomb;
}
);
width = 799;
}
);
unicode = 7848;
},
{
glyphname = Acircumflextilde;
kernLeft = A;
kernRight = A;
lastChange = "2025-08-29 20:44:13 +0000";
layers = (
{
background = {
anchors = (
{
name = bottom;
pos = (350,0);
},
{
name = ogonek;
pos = (639,11);
},
{
name = top;
pos = (471,785);
},
{
name = topviet;
pos = (570,715);
}
);
shapes = (
{
closed = 1;
nodes = (
(60,0,l),
(85,0,ls),
(91,0,o),
(95,2,o),
(96,7,c),
(179,231,ls),
(181,236,o),
(183,238,o),
(189,238,c),
(511,238,ls),
(517,238,o),
(519,236,o),
(521,231,c),
(602,8,ls),
(604,2,o),
(608,0,o),
(615,0,c),
(639,0,ls),
(646,0,o),
(649,4,o),
(647,10,c),
(385,732,ls),
(383,739,o),
(377,742,o),
(367,742,c),
(334,742,ls),
(325,742,o),
(321,739,o),
(318,731,c),
(53,9,ls),
(51,3,o),
(54,0,o),
(60,0,c)
);
},
{
closed = 1;
nodes = (
(203,278,l),
(197,278,o),
(195,279,o),
(198,286,c),
(343,677,ls),
(348,691,o),
(353,691,o),
(358,678,c),
(501,288,ls),
(503,282,o),
(502,278,o),
(494,278,c)
);
},
{
closed = 1;
nodes = (
(555,646,o),
(559,644,o),
(565,644,cs),
(606,644,ls),
(614,644,o),
(614,648,o),
(607,654,cs),
(509,734,ls),
(505,737,o),
(501,742,o),
(493,742,cs),
(475,742,ls),
(466,742,o),
(461,738,o),
(455,733,cs),
(356,654,ls),
(350,649,o),
(351,644,o),
(358,644,cs),
(395,644,ls),
(402,644,o),
(403,645,o),
(410,650,cs),
(472,698,ls),
(483,706,o),
(481,706,o),
(491,698,cs),
(550,650,ls)
);
},
{
closed = 1;
nodes = (
(612,830,o),
(613,831,o),
(611,835,cs),
(603,853,ls),
(600,859,o),
(597,860,o),
(590,856,cs),
(573,846,o),
(562,840,o),
(540,840,cs),
(496,840,o),
(465,865,o),
(421,865,cs),
(391,865,o),
(373,853,o),
(353,839,cs),
(350,837,o),
(349,836,o),
(351,831,cs),
(358,815,ls),
(361,808,o),
(363,808,o),
(369,811,cs),
(382,818,o),
(395,831,o),
(425,831,cs),
(466,831,o),
(487,807,o),
(539,807,cs),
(575,807,o),
(593,818,o),
(606,826,cs)
);
}
);
};
layerId = "91AB5BCA-6A50-42DA-B2F7-8181BF189245";
shapes = (
{
ref = A;
},
{
pos = (37,212);
ref = circumflexcomb_tildecomb;
}
);
width = 700;
},
{
background = {
anchors = (
{
name = bottom;
pos = (400,0);
},
{
name = ogonek;
pos = (746,9);
},
{
name = top;
pos = (435,928);
},
{
name = topviet;
pos = (599,699);
}
);
shapes = (
{
closed = 1;
nodes = (
(43,0,l),
(195,0,ls),
(209,0,o),
(216,7,o),
(219,15,c),
(260,133,ls),
(262,140,o),
(267,144,o),
(275,144,c),
(487,144,ls),
(497,144,o),
(499,139,o),
(502,132,c),
(541,17,ls),
(545,4,o),
(553,0,o),
(563,0,c),
(759,0,ls),
(774,0,o),
(778,20,o),
(773,34,c),
(533,715,ls),
(527,731,o),
(514,742,o),
(497,742,c),
(300,742,ls),
(282,742,o),
(276,735,o),
(270,719,c),
(28,37,ls),
(20,15,o),
(28,0,o),
(43,0,c)
);
},
{
closed = 1;
nodes = (
(323,314,l),
(311,314,o),
(308,322,o),
(313,335,c),
(374,505,ls),
(376,512,o),
(383,512,o),
(386,505,c),
(446,334,ls),
(450,321,o),
(448,314,o),
(437,314,c)
);
},
{
closed = 1;
nodes = (
(515,595,o),
(523,595,o),
(535,595,cs),
(640,595,ls),
(654,595,o),
(653,601,o),
(642,613,cs),
(531,739,ls),
(524,746,o),
(517,752,o),
(503,752,cs),
(408,752,ls),
(389,752,o),
(380,747,o),
(371,737,cs),
(259,613,ls),
(249,602,o),
(250,595,o),
(262,595,cs),
(361,595,ls),
(374,595,o),
(378,594,o),
(387,604,cs),
(433,658,ls),
(450,677,o),
(453,676,o),
(467,658,cs),
(508,604,ls)
);
},
{
closed = 1;
nodes = (
(649,836,o),
(652,844,o),
(649,856,cs),
(635,921,ls),
(632,936,o),
(621,937,o),
(611,930,cs),
(593,917,o),
(566,902,o),
(534,902,cs),
(487,902,o),
(431,936,o),
(368,936,cs),
(321,936,o),
(295,916,o),
(270,895,cs),
(255,882,o),
(259,874,o),
(262,864,cs),
(279,810,ls),
(284,794,o),
(291,794,o),
(302,802,cs),
(328,821,o),
(345,827,o),
(373,827,cs),
(430,827,o),
(476,796,o),
(535,796,cs),
(576,796,o),
(614,811,o),
(635,826,cs)
);
}
);
};
layerId = "258ED206-D907-4350-8EBA-CBDDA1C16BF7";
shapes = (
{
ref = A;
},
{
pos = (85,212);
ref = circumflexcomb_tildecomb;
}
);
width = 799;
}
);
unicode = 7850;
},
{
glyphname = Aring;
kernLeft = A;
kernRight = A;
lastChange = "2025-08-29 20:44:13 +0000";
layers = (
{
background = {
anchors = (
{
name = bottom;
pos = (350,0);
},
{
name = ogonek;
pos = (639,11);
},
{
name = top;
pos = (350,742);
}
);
shapes = (
{
closed = 1;
nodes = (
(60,0,l),
(85,0,ls),
(91,0,o),
(95,2,o),
(96,7,c),
(179,231,ls),
(181,236,o),
(183,238,o),
(189,238,c),
(511,238,ls),
(517,238,o),
(519,236,o),
(521,231,c),
(602,8,ls),
(604,2,o),
(608,0,o),
(615,0,c),
(639,0,ls),
(646,0,o),
(649,4,o),
(647,10,c),
(385,732,ls),
(383,739,o),
(377,742,o),
(367,742,c),
(334,742,ls),
(325,742,o),
(321,739,o),
(318,731,c),
(53,9,ls),
(51,3,o),
(54,0,o),
(60,0,c)
);
},
{
closed = 1;
nodes = (
(203,278,l),
(197,278,o),
(195,279,o),
(198,286,c),
(343,677,ls),
(348,691,o),
(353,691,o),
(358,678,c),
(501,288,ls),
(503,282,o),
(502,278,o),
(494,278,c)
);
},
{
closed = 1;
nodes = (
(670,921,o),
(626,964,o),
(570,964,cs),
(515,964,o),
(470,921,o),
(470,868,cs),
(470,810,o),
(514,766,o),
(570,766,cs),
(626,766,o),
(670,809,o),
(670,866,cs)
);
},
{
closed = 1;
nodes = (
(627,834,o),
(602,806,o),
(569,806,cs),
(538,806,o),
(510,834,o),
(510,865,cs),
(510,900,o),
(538,924,o),
(569,924,cs),
(602,924,o),
(627,900,o),
(627,865,cs)
);
}
);
};
layerId = "91AB5BCA-6A50-42DA-B2F7-8181BF189245";
shapes = (
{
ref = A;
},
{
pos = (240,212);
ref = ringcomb;
}
);
width = 700;
},
{
background = {
anchors = (
{
name = bottom;
pos = (400,0);
},
{
name = ogonek;
pos = (746,9);
},
{
name = top;
pos = (395,742);
}
);
shapes = (
{
closed = 1;
nodes = (
(43,0,l),
(195,0,ls),
(209,0,o),
(216,7,o),
(219,15,c),
(260,133,ls),
(262,140,o),
(267,144,o),
(275,144,c),
(487,144,ls),
(497,144,o),
(499,139,o),
(502,132,c),
(541,17,ls),
(545,4,o),
(553,0,o),
(563,0,c),
(759,0,ls),
(774,0,o),
(778,20,o),
(773,34,c),
(533,715,ls),
(527,731,o),
(514,742,o),
(497,742,c),
(300,742,ls),
(282,742,o),
(276,735,o),
(270,719,c),
(28,37,ls),
(20,15,o),
(28,0,o),
(43,0,c)
);
},
{
closed = 1;
nodes = (
(323,314,l),
(311,314,o),
(308,322,o),
(313,335,c),
(374,505,ls),
(376,512,o),
(383,512,o),
(386,505,c),
(446,334,ls),
(450,321,o),
(448,314,o),
(437,314,c)
);
},
{
closed = 1;
nodes = (
(765,907,o),
(713,958,o),
(648,958,cs),
(584,958,o),
(531,908,o),
(531,845,cs),
(531,778,o),
(583,726,o),
(648,726,cs),
(713,726,o),
(765,777,o),
(765,843,cs)
);
},
{
closed = 1;
nodes = (
(695,816,o),
(674,793,o),
(647,793,cs),
(621,793,o),
(598,816,o),
(598,842,cs),
(598,869,o),
(621,889,o),
(647,889,cs),
(674,889,o),
(695,869,o),
(695,842,cs)
);
}
);
};
layerId = "258ED206-D907-4350-8EBA-CBDDA1C16BF7";
shapes = (
{
ref = A;
},
{
pos = (268,212);
ref = ringcomb;
}
);
width = 799;
}
);
unicode = 197;
},
{
glyphname = Aringacute;
kernLeft = A;
kernRight = A;
lastChange = "2025-08-29 20:44:13 +0000";
layers = (
{
background = {
shapes = (
{
closed = 1;
nodes = (
(418,802,l),
(418,857,o),
(374,900,o),
(318,900,c),
(263,900,o),
(218,857,o),
(218,804,c),
(218,746,o),
(262,702,o),
(318,702,c),
(374,702,o),
(418,745,o),
(418,802,c)
);
},
{
closed = 1;
nodes = (
(375,801,l),
(375,770,o),
(350,742,o),
(317,742,c),
(286,742,o),
(258,770,o),
(258,801,c),
(258,836,o),
(286,860,o),
(317,860,c),
(350,860,o),
(375,836,o),
(375,801,c)
);
},
{
closed = 1;
nodes = (
(303,742,l),
(294,742,o),
(290,739,o),
(287,731,c),
(40,9,l),
(38,4,o),
(41,0,o),
(47,0,c),
(69,0,ls),
(75,0,o),
(78,2,o),
(80,7,c),
(157,231,ls),
(159,236,o),
(161,238,o),
(167,238,c),
(463,238,ls),
(469,238,o),
(471,236,o),
(473,231,c),
(549,8,ls),
(551,2,o),
(554,0,o),
(561,0,c),
(588,0,ls),
(595,0,o),
(598,4,o),
(596,10,c),
(353,732,l),
(351,739,o),
(345,742,o),
(335,742,c)
);
},
{
closed = 1;
nodes = (
(455,288,l),
(457,282,o),
(456,278,o),
(448,278,c),
(179,278,ls),
(173,278,o),
(172,279,o),
(175,286,c),
(308,677,ls),
(313,691,o),
(319,691,o),
(323,678,c)
);
},
{
closed = 1;
nodes = (
(339,964,l),
(328,964,o),
(323,960,o),
(321,951,c),
(303,875,l),
(341,875,l),
(372,948,ls),
(376,958,o),
(373,964,o),
(362,964,c)
);
}
);
};
layerId = "91AB5BCA-6A50-42DA-B2F7-8181BF189245";
shapes = (
{
closed = 1;
nodes = (
(418,802,l),
(418,857,o),
(374,900,o),
(318,900,c),
(263,900,o),
(218,857,o),
(218,804,c),
(218,746,o),
(262,702,o),
(318,702,c),
(374,702,o),
(418,745,o),
(418,802,c)
);
},
{
closed = 1;
nodes = (
(375,801,l),
(375,770,o),
(350,742,o),
(317,742,c),
(286,742,o),
(258,770,o),
(258,801,c),
(258,836,o),
(286,860,o),
(317,860,c),
(350,860,o),
(375,836,o),
(375,801,c)
);
},
{
closed = 1;
nodes = (
(303,742,l),
(294,742,o),
(290,739,o),
(287,731,c),
(40,9,l),
(38,4,o),
(41,0,o),
(47,0,c),
(69,0,ls),
(75,0,o),
(78,2,o),
(80,7,c),
(157,231,ls),
(159,236,o),
(161,238,o),
(167,238,c),
(463,238,ls),
(469,238,o),
(471,236,o),
(473,231,c),
(549,8,ls),
(551,2,o),
(554,0,o),
(561,0,c),
(588,0,ls),
(595,0,o),
(598,4,o),
(596,10,c),
(353,732,l),
(351,739,o),
(345,742,o),
(335,742,c)
);
},
{
closed = 1;
nodes = (
(455,288,l),
(457,282,o),
(456,278,o),
(448,278,c),
(179,278,ls),
(173,278,o),
(172,279,o),
(175,286,c),
(308,677,ls),
(313,691,o),
(319,691,o),
(323,678,c)
);
},
{
closed = 1;
nodes = (
(339,964,l),
(328,964,o),
(323,960,o),
(321,951,c),
(303,875,l),
(341,875,l),
(372,948,ls),
(376,958,o),
(373,964,o),
(362,964,c)
);
}
);
width = 637;
},
{
background = {
shapes = (
{
closed = 1;
nodes = (
(471,796,l),
(471,856,o),
(422,899,o),
(361,899,c),
(301,899,o),
(251,857,o),
(251,798,c),
(251,735,o),
(300,693,o),
(361,693,c),
(422,693,o),
(471,734,o),
(471,796,c)
);
},
{
closed = 1;
nodes = (
(408,795,l),
(408,769,o),
(387,746,o),
(360,746,c),
(334,746,o),
(311,769,o),
(311,795,c),
(311,822,o),
(334,842,o),
(360,842,c),
(387,842,o),
(408,822,o),
(408,795,c)
);
},
{
closed = 1;
nodes = (
(259,742,l),
(242,742,o),
(235,735,o),
(230,719,c),
(-4,37,ls),
(-12,15,o),
(-4,0,o),
(11,0,c),
(163,0,ls),
(177,0,o),
(184,7,o),
(187,15,c),
(225,133,ls),
(227,140,o),
(232,144,o),
(240,144,c),
(441,144,ls),
(451,144,o),
(453,139,o),
(456,132,c),
(492,17,ls),
(496,4,o),
(504,0,o),
(514,0,c),
(710,0,ls),
(725,0,o),
(729,20,o),
(724,34,c),
(492,715,ls),
(487,731,o),
(474,742,o),
(457,742,c)
);
},
{
closed = 1;
nodes = (
(400,334,l),
(404,321,o),
(402,314,o),
(391,314,c),
(288,314,ls),
(276,314,o),
(273,322,o),
(278,335,c),
(334,505,ls),
(336,512,o),
(342,512,o),
(345,505,c)
);
},
{
closed = 1;
nodes = (
(370,964,l),
(351,964,o),
(338,958,o),
(332,933,c),
(318,875,l),
(404,875,l),
(429,935,ls),
(435,949,o),
(431,964,o),
(415,964,c)
);
}
);
};
layerId = "258ED206-D907-4350-8EBA-CBDDA1C16BF7";
shapes = (
{
closed = 1;
nodes = (
(471,796,l),
(471,856,o),
(422,899,o),
(361,899,c),
(301,899,o),
(251,857,o),
(251,798,c),
(251,735,o),
(300,693,o),
(361,693,c),
(422,693,o),
(471,734,o),
(471,796,c)
);
},
{
closed = 1;
nodes = (
(408,795,l),
(408,769,o),
(387,746,o),
(360,746,c),
(334,746,o),
(311,769,o),
(311,795,c),
(311,822,o),
(334,842,o),
(360,842,c),
(387,842,o),
(408,822,o),
(408,795,c)
);
},
{
closed = 1;
nodes = (
(259,742,l),
(242,742,o),
(235,735,o),
(230,719,c),
(-4,37,ls),
(-12,15,o),
(-4,0,o),
(11,0,c),
(163,0,ls),
(177,0,o),
(184,7,o),
(187,15,c),
(225,133,ls),
(227,140,o),
(232,144,o),
(240,144,c),
(441,144,ls),
(451,144,o),
(453,139,o),
(456,132,c),
(492,17,ls),
(496,4,o),
(504,0,o),
(514,0,c),
(710,0,ls),
(725,0,o),
(729,20,o),
(724,34,c),
(492,715,ls),
(487,731,o),
(474,742,o),
(457,742,c)
);
},
{
closed = 1;
nodes = (
(400,334,l),
(404,321,o),
(402,314,o),
(391,314,c),
(288,314,ls),
(276,314,o),
(273,322,o),
(278,335,c),
(334,505,ls),
(336,512,o),
(342,512,o),
(345,505,c)
);
},
{
closed = 1;
nodes = (
(370,964,l),
(351,964,o),
(338,958,o),
(332,933,c),
(318,875,l),
(404,875,l),
(429,935,ls),
(435,949,o),
(431,964,o),
(415,964,c)
);
}
);
width = 710;
}
);
unicode = 506;
},
{
glyphname = AE;
kernLeft = AE;
kernRight = E;
lastChange = "2025-08-29 20:50:01 +0000";
layers = (
{
anchors = (
{
name = top;
pos = (601,742);
}
);
background = {
anchors = (
{
name = top;
pos = (681,742);
}
);
shapes = (
{
closed = 1;
nodes = (
(903,40,l),
(550,40,ls),
(543,40,o),
(541,41,o),
(541,49,c),
(541,346,ls),
(541,354,o),
(543,355,o),
(550,355,c),
(818,355,ls),
(824,355,o),
(826,356,o),
(826,362,c),
(826,388,ls),
(826,393,o),
(824,395,o),
(819,395,c),
(550,395,ls),
(543,395,o),
(541,396,o),
(541,402,c),
(541,693,ls),
(541,701,o),
(543,702,o),
(550,702,c),
(888,702,ls),
(894,702,o),
(896,703,o),
(896,709,c),
(896,735,ls),
(896,740,o),
(894,742,o),
(889,742,c),
(484,742,ls),
(475,742,o),
(470,739,o),
(466,731,c),
(53,9,ls),
(50,4,o),
(52,0,o),
(58,0,c),
(83,0,ls),
(89,0,o),
(92,2,o),
(95,7,c),
(224,231,ls),
(227,236,o),
(230,238,o),
(236,238,c),
(490,238,ls),
(493,238,o),
(495,236,o),
(495,233,c),
(495,10,ls),
(495,2,o),
(497,0,o),
(504,0,c),
(904,0,ls),
(909,0,o),
(911,2,o),
(911,7,c),
(911,33,ls),
(911,39,o),
(909,40,o),
(903,40,c)
);
},
{
closed = 1;
nodes = (
(487,278,l),
(255,278,ls),
(249,278,o),
(248,279,o),
(252,286,c),
(480,677,ls),
(488,691,o),
(494,691,o),
(495,678,c),
(495,287,ls),
(495,282,o),
(493,278,o),
(487,278,c)
);
}
);
};
layerId = "91AB5BCA-6A50-42DA-B2F7-8181BF189245";
shapes = (
{
closed = 1;
nodes = (
(903,40,l),
(550,40,ls),
(543,40,o),
(541,41,o),
(541,49,c),
(541,346,ls),
(541,354,o),
(543,355,o),
(550,355,c),
(818,355,ls),
(824,355,o),
(826,356,o),
(826,362,c),
(826,388,ls),
(826,393,o),
(824,395,o),
(819,395,c),
(550,395,ls),
(543,395,o),
(541,396,o),
(541,402,c),
(541,693,ls),
(541,701,o),
(543,702,o),
(550,702,c),
(888,702,ls),
(894,702,o),
(896,703,o),
(896,709,c),
(896,735,ls),
(896,740,o),
(894,742,o),
(889,742,c),
(484,742,ls),
(475,742,o),
(470,739,o),
(466,731,c),
(53,9,ls),
(50,4,o),
(52,0,o),
(58,0,c),
(83,0,ls),
(89,0,o),
(92,2,o),
(95,7,c),
(224,231,ls),
(227,236,o),
(230,238,o),
(236,238,c),
(490,238,ls),
(493,238,o),
(495,236,o),
(495,233,c),
(495,10,ls),
(495,2,o),
(497,0,o),
(504,0,c),
(904,0,ls),
(909,0,o),
(911,2,o),
(911,7,c),
(911,33,ls),
(911,39,o),
(909,40,o),
(903,40,c)
);
},
{
closed = 1;
nodes = (
(487,278,l),
(255,278,ls),
(249,278,o),
(248,279,o),
(252,286,c),
(480,677,ls),
(488,691,o),
(494,691,o),
(495,678,c),
(495,287,ls),
(495,282,o),
(493,278,o),
(487,278,c)
);
}
);
width = 963;
},
{
anchors = (
{
name = top;
pos = (691,742);
}
);
background = {
anchors = (
{
name = top;
pos = (721,742);
}
);
shapes = (
{
closed = 1;
nodes = (
(1072,164,l),
(747,164,ls),
(738,164,o),
(735,167,o),
(735,178,c),
(735,278,ls),
(735,286,o),
(741,292,o),
(751,292,c),
(936,292,ls),
(949,292,o),
(954,300,o),
(954,309,c),
(954,433,ls),
(954,446,o),
(947,453,o),
(933,453,c),
(753,453,ls),
(743,453,o),
(735,460,o),
(735,474,c),
(735,559,ls),
(735,572,o),
(743,578,o),
(758,578,c),
(1058,578,ls),
(1076,578,o),
(1084,589,o),
(1084,605,c),
(1085,721,ls),
(1085,734,o),
(1079,742,o),
(1067,742,c),
(418,742,ls),
(401,742,o),
(393,735,o),
(385,719,c),
(31,37,ls),
(19,15,o),
(25,0,o),
(40,0,c),
(192,0,ls),
(206,0,o),
(214,7,o),
(218,15,c),
(277,133,l),
(280,140,o),
(286,144,o),
(294,144,c),
(495,144,ls),
(505,144,o),
(508,139,o),
(508,130,c),
(508,25,ls),
(508,8,o),
(515,0,o),
(535,0,c),
(1070,0,ls),
(1087,0,o),
(1094,10,o),
(1094,22,c),
(1094,145,ls),
(1094,159,o),
(1086,164,o),
(1072,164,c)
);
},
{
closed = 1;
nodes = (
(489,314,l),
(372,314,ls),
(360,314,o),
(358,322,o),
(366,335,c),
(468,537,ls),
(484,567,o),
(508,565,o),
(508,535,c),
(508,334,ls),
(508,321,o),
(501,314,o),
(489,314,c)
);
}
);
};
layerId = "258ED206-D907-4350-8EBA-CBDDA1C16BF7";
shapes = (
{
closed = 1;
nodes = (
(1072,164,l),
(747,164,ls),
(738,164,o),
(735,167,o),
(735,178,c),
(735,278,ls),
(735,286,o),
(741,292,o),
(751,292,c),
(936,292,ls),
(949,292,o),
(954,300,o),
(954,309,c),
(954,433,ls),
(954,446,o),
(947,453,o),
(933,453,c),
(753,453,ls),
(743,453,o),
(735,460,o),
(735,474,c),
(735,559,ls),
(735,572,o),
(743,578,o),
(758,578,c),
(1059,578,ls),
(1077,578,o),
(1085,589,o),
(1085,605,c),
(1085,721,ls),
(1085,734,o),
(1079,742,o),
(1067,742,c),
(418,742,ls),
(401,742,o),
(393,735,o),
(385,719,c),
(31,37,ls),
(19,15,o),
(25,0,o),
(40,0,c),
(192,0,ls),
(206,0,o),
(214,7,o),
(218,15,c),
(277,133,l),
(280,140,o),
(286,144,o),
(294,144,c),
(495,144,ls),
(505,144,o),
(508,139,o),
(508,130,c),
(508,25,ls),
(508,8,o),
(515,0,o),
(535,0,c),
(1070,0,ls),
(1087,0,o),
(1094,10,o),
(1094,22,c),
(1094,145,ls),
(1094,159,o),
(1086,164,o),
(1072,164,c)
);
},
{
closed = 1;
nodes = (
(489,314,l),
(372,314,ls),
(360,314,o),
(358,322,o),
(366,335,c),
(468,537,ls),
(484,567,o),
(508,565,o),
(508,535,c),
(508,334,ls),
(508,321,o),
(501,314,o),
(489,314,c)
);
}
);
width = 1127;
}
);
metricLeft = A;
metricRight = E;
unicode = 198;
},
{
glyphname = B;
kernLeft = H;
kernRight = B;
lastChange = "2025-08-29 20:44:13 +0000";
layers = (
{
background = {
shapes = (
{
closed = 1;
nodes = (
(122,0,l),
(331,0,ls),
(506,0,o),
(609,65,o),
(609,197,c),
(609,297,o),
(550,356,o),
(460,373,c),
(454,374,o),
(454,380,o),
(460,382,c),
(548,409,o),
(591,467,o),
(591,551,c),
(591,675,o),
(494,742,o),
(328,742,c),
(123,742,ls),
(116,742,o),
(114,740,o),
(114,732,c),
(114,8,ls),
(114,3,o),
(117,0,o),
(122,0,c)
);
},
{
closed = 1;
nodes = (
(167,40,l),
(162,40,o),
(160,43,o),
(160,50,c),
(160,346,ls),
(160,353,o),
(163,355,o),
(171,355,c),
(340,355,ls),
(465,355,o),
(561,311,o),
(561,191,c),
(561,82,o),
(484,40,o),
(326,40,c)
);
},
{
closed = 1;
nodes = (
(167,395,l),
(162,395,o),
(160,398,o),
(160,405,c),
(160,694,ls),
(160,700,o),
(163,702,o),
(169,702,c),
(324,702,ls),
(459,702,o),
(543,654,o),
(543,546,c),
(543,424,o),
(433,395,o),
(340,395,c)
);
}
);
};
layerId = "91AB5BCA-6A50-42DA-B2F7-8181BF189245";
shapes = (
{
closed = 1;
nodes = (
(122,0,l),
(331,0,ls),
(506,0,o),
(609,65,o),
(609,197,c),
(609,297,o),
(550,356,o),
(460,373,c),
(454,374,o),
(454,380,o),
(460,382,c),
(548,409,o),
(591,467,o),
(591,551,c),
(591,675,o),
(494,742,o),
(328,742,c),
(123,742,ls),
(116,742,o),
(114,740,o),
(114,732,c),
(114,8,ls),
(114,3,o),
(117,0,o),
(122,0,c)
);
},
{
closed = 1;
nodes = (
(167,40,l),
(162,40,o),
(160,43,o),
(160,50,c),
(160,346,ls),
(160,353,o),
(163,355,o),
(171,355,c),
(340,355,ls),
(465,355,o),
(561,311,o),
(561,191,c),
(561,82,o),
(484,40,o),
(326,40,c)
);
},
{
closed = 1;
nodes = (
(167,395,l),
(162,395,o),
(160,398,o),
(160,405,c),
(160,694,ls),
(160,700,o),
(163,702,o),
(169,702,c),
(324,702,ls),
(459,702,o),
(543,654,o),
(543,546,c),
(543,424,o),
(433,395,o),
(340,395,c)
);
}
);
width = 684;
},
{
background = {
shapes = (
{
closed = 1;
nodes = (
(75,0,l),
(391,0,ls),
(607,0,o),
(710,65,o),
(710,202,c),
(710,287,o),
(671,338,o),
(561,379,c),
(558,380,o),
(558,385,o),
(561,386,c),
(661,432,o),
(692,477,o),
(692,546,c),
(692,675,o),
(582,742,o),
(375,742,c),
(77,742,ls),
(62,742,o),
(52,731,o),
(52,716,c),
(52,22,ls),
(52,10,o),
(61,0,o),
(75,0,c)
);
},
{
closed = 1;
nodes = (
(296,150,l),
(283,150,o),
(279,157,o),
(279,172,c),
(279,277,ls),
(279,292,o),
(285,298,o),
(302,298,c),
(391,298,ls),
(441,298,o),
(474,268,o),
(474,227,c),
(474,188,o),
(444,150,o),
(386,150,c)
);
},
{
closed = 1;
nodes = (
(296,452,l),
(283,452,o),
(279,459,o),
(279,474,c),
(279,572,ls),
(279,587,o),
(285,592,o),
(302,592,c),
(384,592,ls),
(431,592,o),
(468,564,o),
(468,520,c),
(468,481,o),
(438,452,o),
(391,452,c)
);
}
);
};
layerId = "258ED206-D907-4350-8EBA-CBDDA1C16BF7";
shapes = (
{
closed = 1;
nodes = (
(75,0,l),
(391,0,ls),
(607,0,o),
(710,65,o),
(710,202,c),
(710,287,o),
(671,338,o),
(561,379,c),
(558,380,o),
(558,385,o),
(561,386,c),
(661,432,o),
(692,477,o),
(692,546,c),
(692,675,o),
(582,742,o),
(375,742,c),
(77,742,ls),
(62,742,o),
(52,731,o),
(52,716,c),
(52,22,ls),
(52,10,o),
(61,0,o),
(75,0,c)
);
},
{
closed = 1;
nodes = (
(296,150,l),
(283,150,o),
(279,157,o),
(279,172,c),
(279,277,ls),
(279,292,o),
(285,298,o),
(302,298,c),
(391,298,ls),
(441,298,o),
(474,268,o),
(474,227,c),
(474,188,o),
(444,150,o),
(386,150,c)
);
},
{
closed = 1;
nodes = (
(296,452,l),
(283,452,o),
(279,459,o),
(279,474,c),
(279,572,ls),
(279,587,o),
(285,592,o),
(302,592,c),
(384,592,ls),
(431,592,o),
(468,564,o),
(468,520,c),
(468,481,o),
(438,452,o),
(391,452,c)
);
}
);
width = 739;
}
);
unicode = 66;
},
{
glyphname = C;
kernLeft = O;
kernRight = C;
lastChange = "2025-08-29 20:44:13 +0000";
layers = (
{
anchors = (
{
name = bottom;
pos = (381,0);
},
{
name = top;
pos = (375,742);
}
);
background = {
anchors = (
{
name = bottom;
pos = (381,0);
},
{
name = top;
pos = (375,742);
}
);
shapes = (
{
closed = 1;
nodes = (
(375,752,l),
(188,752,o),
(78,610,o),
(78,368,c),
(78,127,o),
(188,-10,o),
(381,-10,c),
(502,-10,o),
(602,61,o),
(637,171,c),
(638,175,o),
(637,177,o),
(635,178,c),
(601,188,ls),
(598,189,o),
(596,188,o),
(595,186,c),
(555,81,o),
(489,32,o),
(385,32,c),
(212,32,o),
(126,153,o),
(126,368,c),
(126,591,o),
(214,710,o),
(377,710,c),
(478,710,o),
(558,647,o),
(581,552,c),
(582,546,o),
(584,544,o),
(588,545,c),
(624,549,ls),
(629,549,o),
(630,551,o),
(629,556,c),
(617,659,o),
(497,752,o),
(375,752,c)
);
}
);
};
guides = (
{
angle = 90;
pos = (636,369);
}
);
layerId = "91AB5BCA-6A50-42DA-B2F7-8181BF189245";
shapes = (
{
closed = 1;
nodes = (
(375,752,l),
(188,752,o),
(78,610,o),
(78,368,c),
(78,127,o),
(188,-10,o),
(381,-10,c),
(502,-10,o),
(602,61,o),
(637,171,c),
(638,175,o),
(637,177,o),
(635,178,c),
(601,188,ls),
(598,189,o),
(596,188,o),
(595,186,c),
(555,81,o),
(489,32,o),
(385,32,c),
(212,32,o),
(126,153,o),
(126,368,c),
(126,591,o),
(214,710,o),
(377,710,c),
(478,710,o),
(558,647,o),
(581,552,c),
(582,546,o),
(584,544,o),
(588,545,c),
(624,549,ls),
(629,549,o),
(630,551,o),
(629,556,c),
(617,659,o),
(497,752,o),
(375,752,c)
);
}
);
width = 695;
},
{
anchors = (
{
name = bottom;
pos = (383,0);
},
{
name = top;
pos = (385,742);
}
);
background = {
anchors = (
{
name = bottom;
pos = (383,0);
},
{
name = top;
pos = (385,742);
}
);
shapes = (
{
closed = 1;
nodes = (
(385,752,l),
(168,752,o),
(30,606,o),
(30,381,c),
(30,155,o),
(168,-10,o),
(383,-10,c),
(614,-10,o),
(700,167,o),
(710,221,c),
(714,247,o),
(703,252,o),
(696,254,c),
(571,279,ls),
(555,282,o),
(546,279,o),
(543,271,c),
(508,183,o),
(457,154,o),
(390,154,c),
(309,154,o),
(268,212,o),
(268,377,c),
(268,540,o),
(316,598,o),
(391,598,c),
(457,598,o),
(483,553,o),
(494,495,c),
(497,481,o),
(498,476,o),
(513,476,c),
(688,487,l),
(703,489,o),
(707,494,o),
(701,522,c),
(675,655,o),
(554,752,o),
(385,752,c)
);
}
);
};
layerId = "258ED206-D907-4350-8EBA-CBDDA1C16BF7";
shapes = (
{
closed = 1;
nodes = (
(385,752,l),
(168,752,o),
(30,606,o),
(30,381,c),
(30,155,o),
(168,-10,o),
(383,-10,c),
(614,-10,o),
(700,167,o),
(710,221,c),
(714,247,o),
(703,252,o),
(696,254,c),
(571,279,ls),
(555,282,o),
(546,279,o),
(543,271,c),
(508,183,o),
(457,154,o),
(390,154,c),
(309,154,o),
(268,212,o),
(268,377,c),
(268,540,o),
(316,598,o),
(391,598,c),
(457,598,o),
(483,553,o),
(494,495,c),
(497,481,o),
(498,476,o),
(513,476,c),
(688,487,l),
(703,489,o),
(707,494,o),
(701,522,c),
(675,655,o),
(554,752,o),
(385,752,c)
);
}
);
width = 737;
}
);
unicode = 67;
},
{
glyphname = D;
kernLeft = H;
kernRight = O;
lastChange = "2025-08-29 20:44:13 +0000";
layers = (
{
anchors = (
{
name = bottom;
pos = (354,0);
},
{
name = center;
pos = (342,371);
},
{
name = top;
pos = (336,742);
}
);
background = {
anchors = (
{
name = center;
pos = (342,371);
},
{
name = top;
pos = (336,742);
}
);
shapes = (
{
closed = 1;
nodes = (
(123,742,l),
(117,742,o),
(114,740,o),
(114,734,c),
(114,10,ls),
(114,3,o),
(117,0,o),
(123,0,c),
(225,0,ls),
(497,0,o),
(626,115,o),
(626,376,c),
(626,624,o),
(514,739,o),
(239,741,c),
(181,741,o),
(125,742,o),
(123,742,c)
);
},
{
closed = 1;
nodes = (
(167,701,l),
(169,701,o),
(212,701,o),
(230,701,c),
(471,696,o),
(578,628,o),
(578,372,c),
(578,130,o),
(479,40,o),
(221,40,c),
(171,40,ls),
(163,40,o),
(160,43,o),
(160,49,c),
(160,687,ls),
(160,695,o),
(163,701,o),
(167,701,c)
);
}
);
};
layerId = "91AB5BCA-6A50-42DA-B2F7-8181BF189245";
shapes = (
{
closed = 1;
nodes = (
(225,0,ls),
(499,0,o),
(626,115,o),
(626,379,cs),
(626,622,o),
(518,739,o),
(239,741,cs),
(201,741,o),
(162,742,o),
(124,742,cs),
(117,742,o),
(114,738,o),
(114,732,cs),
(114,10,ls),
(114,3,o),
(117,0,o),
(123,0,cs)
);
},
{
closed = 1;
nodes = (
(163,40,o),
(160,43,o),
(160,49,cs),
(160,687,ls),
(160,695,o),
(162,701,o),
(170,701,cs),
(223,701,ls),
(465,701,o),
(578,633,o),
(578,371,cs),
(578,130,o),
(478,40,o),
(221,40,cs),
(171,40,ls)
);
}
);
width = 703;
},
{
anchors = (
{
name = bottom;
pos = (378,0);
},
{
name = center;
pos = (390,371);
},
{
name = top;
pos = (390,742);
}
);
background = {
anchors = (
{
name = center;
pos = (390,371);
},
{
name = top;
pos = (390,742);
}
);
shapes = (
{
closed = 1;
nodes = (
(79,742,l),
(59,742,o),
(52,736,o),
(52,717,c),
(52,30,ls),
(52,8,o),
(61,0,o),
(81,0,c),
(344,0,ls),
(607,0,o),
(740,157,o),
(740,373,c),
(740,584,o),
(613,731,o),
(345,741,c),
(287,743,o),
(98,742,o),
(79,742,c)
);
},
{
closed = 1;
nodes = (
(289,585,l),
(295,585,o),
(325,583,o),
(349,581,c),
(446,572,o),
(502,513,o),
(502,376,c),
(502,215,o),
(426,157,o),
(300,157,c),
(293,157,ls),
(282,157,o),
(279,160,o),
(279,172,c),
(279,571,ls),
(279,582,o),
(282,585,o),
(289,585,c)
);
}
);
};
layerId = "258ED206-D907-4350-8EBA-CBDDA1C16BF7";
shapes = (
{
closed = 1;
nodes = (
(344,0,ls),
(607,0,o),
(740,157,o),
(740,372,cs),
(740,583,o),
(612,732,o),
(345,741,cs),
(287,743,o),
(146,742,o),
(79,742,cs),
(59,742,o),
(52,736,o),
(52,717,cs),
(52,30,ls),
(52,8,o),
(61,0,o),
(81,0,cs)
);
},
{
closed = 1;
nodes = (
(282,157,o),
(279,160,o),
(279,172,cs),
(279,571,ls),
(279,582,o),
(282,585,o),
(289,585,cs),
(313,585,ls),
(443,585,o),
(502,513,o),
(502,374,cs),
(502,215,o),
(425,157,o),
(300,157,cs),
(293,157,ls)
);
}
);
width = 771;
}
);
unicode = 68;
},
{
glyphname = DZ;
kernLeft = H;
kernRight = Z;
lastChange = "2025-08-29 20:44:13 +0000";
layers = (
{
background = {
anchors = (
{
name = bottom;
pos = (953,0);
},
{
name = center;
pos = (342,371);
},
{
name = top;
pos = (946,742);
}
);
shapes = (
{
closed = 1;
nodes = (
(124,742,l),
(117,742,o),
(114,738,o),
(114,732,c),
(114,10,ls),
(114,3,o),
(117,0,o),
(123,0,c),
(225,0,ls),
(499,0,o),
(626,115,o),
(626,379,c),
(626,622,o),
(518,739,o),
(239,741,c),
(229,741,o),
(127,742,o),
(124,742,c)
);
},
{
closed = 1;
nodes = (
(170,701,l),
(223,701,ls),
(465,701,o),
(578,633,o),
(578,371,c),
(578,130,o),
(478,40,o),
(221,40,c),
(171,40,ls),
(163,40,o),
(160,43,o),
(160,49,c),
(160,687,ls),
(160,695,o),
(162,701,o),
(170,701,c)
);
},
{
closed = 1;
nodes = (
(704,0,l),
(1178,0,ls),
(1183,0,o),
(1185,3,o),
(1185,7,c),
(1185,35,ls),
(1185,39,o),
(1183,40,o),
(1179,40,c),
(758,40,ls),
(754,40,o),
(753,43,o),
(756,48,c),
(1180,707,ls),
(1183,712,o),
(1185,714,o),
(1185,719,c),
(1185,736,ls),
(1185,740,o),
(1183,742,o),
(1179,742,c),
(712,742,ls),
(708,742,o),
(706,740,o),
(706,736,c),
(706,709,ls),
(706,704,o),
(708,702,o),
(713,702,c),
(1119,702,ls),
(1124,702,o),
(1126,700,o),
(1123,695,c),
(703,39,ls),
(698,32,o),
(696,28,o),
(696,22,c),
(696,7,ls),
(696,2,o),
(698,0,o),
(704,0,c)
);
}
);
};
layerId = "91AB5BCA-6A50-42DA-B2F7-8181BF189245";
shapes = (
{
ref = D;
},
{
pos = (683,0);
ref = Z;
}
);
userData = {
com.schriftgestaltung.Glyphs.glyph.leftMetricsKey = D;
com.schriftgestaltung.Glyphs.glyph.rightMetricsKey = Z;
};
width = 1283;
},
{
background = {
anchors = (
{
name = bottom;
pos = (1085,0);
},
{
name = center;
pos = (390,371);
},
{
name = top;
pos = (1109,742);
}
);
shapes = (
{
closed = 1;
nodes = (
(79,742,l),
(59,742,o),
(52,736,o),
(52,717,c),
(52,30,ls),
(52,8,o),
(61,0,o),
(81,0,c),
(344,0,ls),
(607,0,o),
(740,157,o),
(740,372,c),
(740,583,o),
(612,732,o),
(345,741,c),
(287,743,o),
(146,742,o),
(79,742,c)
);
},
{
closed = 1;
nodes = (
(289,585,l),
(313,585,ls),
(443,585,o),
(502,513,o),
(502,374,c),
(502,215,o),
(425,157,o),
(300,157,c),
(293,157,ls),
(282,157,o),
(279,160,o),
(279,172,c),
(279,571,ls),
(279,582,o),
(282,585,o),
(289,585,c)
);
},
{
closed = 1;
nodes = (
(790,0,l),
(1391,0,ls),
(1408,0,o),
(1415,10,o),
(1415,22,c),
(1415,147,ls),
(1415,161,o),
(1407,166,o),
(1393,166,c),
(1096,166,ls),
(1087,166,o),
(1077,169,o),
(1084,180,c),
(1404,630,ls),
(1417,648,o),
(1421,656,o),
(1421,671,c),
(1421,722,ls),
(1421,734,o),
(1414,742,o),
(1402,742,c),
(815,742,ls),
(804,742,o),
(797,734,o),
(797,721,c),
(797,601,ls),
(797,583,o),
(802,577,o),
(819,577,c),
(1084,577,ls),
(1098,577,o),
(1100,572,o),
(1093,561,c),
(785,121,ls),
(766,94,o),
(764,91,o),
(764,70,c),
(764,25,ls),
(764,5,o),
(770,0,o),
(790,0,c)
);
}
);
};
layerId = "258ED206-D907-4350-8EBA-CBDDA1C16BF7";
shapes = (
{
ref = D;
},
{
pos = (751,0);
ref = Z;
}
);
userData = {
com.schriftgestaltung.Glyphs.glyph.leftMetricsKey = D;
com.schriftgestaltung.Glyphs.glyph.rightMetricsKey = Z;
};
width = 1465;
}
);
unicode = 497;
},
{
glyphname = Dcaron;
kernLeft = H;
kernRight = O;
lastChange = "2025-08-29 20:44:13 +0000";
layers = (
{
background = {
anchors = (
{
name = center;
pos = (342,371);
},
{
name = top;
pos = (336,864);
}
);
shapes = (
{
closed = 1;
nodes = (
(124,742,l),
(117,742,o),
(114,738,o),
(114,732,c),
(114,10,ls),
(114,3,o),
(117,0,o),
(123,0,c),
(225,0,ls),
(499,0,o),
(626,115,o),
(626,379,c),
(626,622,o),
(518,739,o),
(239,741,c),
(229,741,o),
(127,742,o),
(124,742,c)
);
},
{
closed = 1;
nodes = (
(170,701,l),
(223,701,ls),
(465,701,o),
(578,633,o),
(578,371,c),
(578,130,o),
(478,40,o),
(221,40,c),
(171,40,ls),
(163,40,o),
(160,43,o),
(160,49,c),
(160,687,ls),
(160,695,o),
(162,701,o),
(170,701,c)
);
},
{
closed = 1;
nodes = (
(345,900,ls),
(335,892,o),
(337,892,o),
(326,900,cs),
(264,948,ls),
(257,953,o),
(256,954,o),
(249,954,cs),
(212,954,ls),
(205,954,o),
(204,949,o),
(210,944,cs),
(309,865,ls),
(315,860,o),
(320,856,o),
(329,856,cs),
(347,856,ls),
(355,856,o),
(359,861,o),
(363,864,cs),
(461,944,ls),
(468,950,o),
(468,954,o),
(460,954,cs),
(419,954,ls),
(413,954,o),
(409,952,o),
(404,948,cs)
);
}
);
};
layerId = "91AB5BCA-6A50-42DA-B2F7-8181BF189245";
shapes = (
{
ref = D;
},
{
pos = (196,212);
ref = caroncomb;
}
);
width = 703;
},
{
background = {
anchors = (
{
name = center;
pos = (390,371);
},
{
name = top;
pos = (783,945);
}
);
shapes = (
{
closed = 1;
nodes = (
(79,742,l),
(59,742,o),
(52,736,o),
(52,717,c),
(52,30,ls),
(52,8,o),
(61,0,o),
(81,0,c),
(344,0,ls),
(607,0,o),
(740,157,o),
(740,372,c),
(740,583,o),
(612,732,o),
(345,741,c),
(287,743,o),
(146,742,o),
(79,742,c)
);
},
{
closed = 1;
nodes = (
(289,585,l),
(313,585,ls),
(443,585,o),
(502,513,o),
(502,374,c),
(502,215,o),
(425,157,o),
(300,157,c),
(293,157,ls),
(282,157,o),
(279,160,o),
(279,172,c),
(279,571,ls),
(279,582,o),
(282,585,o),
(289,585,c)
);
},
{
closed = 1;
nodes = (
(799,891,ls),
(785,873,o),
(781,871,o),
(765,891,cs),
(719,946,ls),
(711,956,o),
(706,955,o),
(693,955,cs),
(594,955,ls),
(582,955,o),
(582,948,o),
(591,937,cs),
(703,812,ls),
(712,802,o),
(721,797,o),
(740,797,cs),
(835,797,ls),
(849,797,o),
(856,803,o),
(863,810,cs),
(974,937,ls),
(985,949,o),
(986,955,o),
(972,955,cs),
(867,955,ls),
(855,955,o),
(847,955,o),
(840,946,cs)
);
}
);
};
layerId = "258ED206-D907-4350-8EBA-CBDDA1C16BF7";
shapes = (
{
ref = D;
},
{
pos = (180,212);
ref = caroncomb;
}
);
width = 771;
}
);
unicode = 270;
},
{
glyphname = Ddotbelow;
kernLeft = H;
kernRight = O;
lastChange = "2025-08-29 20:44:13 +0000";
layers = (
{
background = {
anchors = (
{
name = center;
pos = (342,371);
},
{
name = top;
pos = (336,742);
}
);
shapes = (
{
closed = 1;
nodes = (
(124,742,l),
(117,742,o),
(114,738,o),
(114,732,c),
(114,10,ls),
(114,3,o),
(117,0,o),
(123,0,c),
(225,0,ls),
(499,0,o),
(626,115,o),
(626,379,c),
(626,622,o),
(518,739,o),
(239,741,c),
(229,741,o),
(127,742,o),
(124,742,c)
);
},
{
closed = 1;
nodes = (
(170,701,l),
(223,701,ls),
(465,701,o),
(578,633,o),
(578,371,c),
(578,130,o),
(478,40,o),
(221,40,c),
(171,40,ls),
(163,40,o),
(160,43,o),
(160,49,c),
(160,687,ls),
(160,695,o),
(162,701,o),
(170,701,c)
);
},
{
closed = 1;
nodes = (
(430,-64,o),
(428,-62,o),
(421,-62,cs),
(387,-62,ls),
(380,-62,o),
(378,-64,o),
(378,-72,cs),
(378,-155,ls),
(378,-163,o),
(380,-165,o),
(389,-165,cs),
(418,-165,ls),
(428,-165,o),
(430,-163,o),
(430,-153,cs),
(430,-72,ls)
);
}
);
};
layerId = "91AB5BCA-6A50-42DA-B2F7-8181BF189245";
shapes = (
{
ref = D;
},
{
pos = (318,0);
ref = dotbelowcomb;
}
);
width = 703;
},
{
background = {
anchors = (
{
name = center;
pos = (390,371);
},
{
name = top;
pos = (390,742);
}
);
shapes = (
{
closed = 1;
nodes = (
(79,742,l),
(59,742,o),
(52,736,o),
(52,717,c),
(52,30,ls),
(52,8,o),
(61,0,o),
(81,0,c),
(344,0,ls),
(607,0,o),
(740,157,o),
(740,372,c),
(740,583,o),
(612,732,o),
(345,741,c),
(287,743,o),
(146,742,o),
(79,742,c)
);
},
{
closed = 1;
nodes = (
(289,585,l),
(313,585,ls),
(443,585,o),
(502,513,o),
(502,374,c),
(502,215,o),
(425,157,o),
(300,157,c),
(293,157,ls),
(282,157,o),
(279,160,o),
(279,172,c),
(279,571,ls),
(279,582,o),
(282,585,o),
(289,585,c)
);
},
{
closed = 1;
nodes = (
(602,-45,o),
(598,-39,o),
(589,-39,cs),
(467,-39,ls),
(458,-39,o),
(454,-45,o),
(454,-57,cs),
(454,-146,ls),
(454,-158,o),
(458,-165,o),
(473,-165,cs),
(578,-165,ls),
(595,-165,o),
(602,-158,o),
(602,-143,cs),
(602,-55,ls)
);
}
);
};
layerId = "258ED206-D907-4350-8EBA-CBDDA1C16BF7";
shapes = (
{
ref = D;
},
{
pos = (294,0);
ref = dotbelowcomb;
}
);
width = 771;
}
);
unicode = 7692;
},
{
glyphname = Dmacronbelow;
kernLeft = H;
kernRight = O;
lastChange = "2025-08-29 20:44:13 +0000";
layers = (
{
background = {
anchors = (
{
name = bottom;
pos = (291,-102);
},
{
name = center;
pos = (342,371);
},
{
name = top;
pos = (336,742);
}
);
shapes = (
{
closed = 1;
nodes = (
(124,742,l),
(117,742,o),
(114,738,o),
(114,732,c),
(114,10,ls),
(114,3,o),
(117,0,o),
(123,0,c),
(225,0,ls),
(499,0,o),
(626,115,o),
(626,379,c),
(626,622,o),
(518,739,o),
(239,741,c),
(229,741,o),
(127,742,o),
(124,742,c)
);
},
{
closed = 1;
nodes = (
(170,701,l),
(223,701,ls),
(465,701,o),
(578,633,o),
(578,371,c),
(578,130,o),
(478,40,o),
(221,40,c),
(171,40,ls),
(163,40,o),
(160,43,o),
(160,49,c),
(160,687,ls),
(160,695,o),
(162,701,o),
(170,701,c)
);
},
{
closed = 1;
nodes = (
(441,-64,o),
(438,-62,o),
(434,-62,cs),
(145,-62,ls),
(142,-62,o),
(140,-64,o),
(140,-69,cs),
(140,-95,ls),
(140,-100,o),
(142,-102,o),
(148,-102,cs),
(431,-102,ls),
(438,-102,o),
(441,-100,o),
(441,-94,cs),
(441,-68,ls)
);
}
);
};
layerId = "91AB5BCA-6A50-42DA-B2F7-8181BF189245";
shapes = (
{
ref = D;
},
{
pos = (103,0);
ref = macronbelowcomb;
}
);
width = 703;
},
{
background = {
anchors = (
{
name = bottom;
pos = (266,-180);
},
{
name = center;
pos = (390,371);
},
{
name = top;
pos = (390,742);
}
);
shapes = (
{
closed = 1;
nodes = (
(79,742,l),
(59,742,o),
(52,736,o),
(52,717,c),
(52,30,ls),
(52,8,o),
(61,0,o),
(81,0,c),
(344,0,ls),
(607,0,o),
(740,157,o),
(740,372,c),
(740,583,o),
(612,732,o),
(345,741,c),
(287,743,o),
(146,742,o),
(79,742,c)
);
},
{
closed = 1;
nodes = (
(289,585,l),
(313,585,ls),
(443,585,o),
(502,513,o),
(502,374,c),
(502,215,o),
(425,157,o),
(300,157,c),
(293,157,ls),
(282,157,o),
(279,160,o),
(279,172,c),
(279,571,ls),
(279,582,o),
(282,585,o),
(289,585,c)
);
},
{
closed = 1;
nodes = (
(447,-48,o),
(440,-40,o),
(429,-40,cs),
(104,-40,ls),
(92,-40,o),
(85,-48,o),
(85,-63,cs),
(85,-155,ls),
(85,-172,o),
(91,-180,o),
(111,-180,cs),
(414,-180,ls),
(437,-180,o),
(447,-172,o),
(447,-152,cs),
(447,-60,ls)
);
}
);
};
layerId = "258ED206-D907-4350-8EBA-CBDDA1C16BF7";
shapes = (
{
ref = D;
},
{
pos = (97,0);
ref = macronbelowcomb;
}
);
width = 771;
}
);
metricRight = D;
unicode = 7694;
},
{
glyphname = Dz;
kernLeft = H;
kernRight = z;
lastChange = "2025-08-29 20:44:13 +0000";
layers = (
{
background = {
anchors = (
{
name = center;
pos = (342,371);
},
{
name = top;
pos = (896,530);
}
);
shapes = (
{
closed = 1;
nodes = (
(124,742,l),
(117,742,o),
(114,738,o),
(114,732,c),
(114,10,ls),
(114,3,o),
(117,0,o),
(123,0,c),
(225,0,ls),
(499,0,o),
(626,115,o),
(626,379,c),
(626,622,o),
(518,739,o),
(239,741,c),
(229,741,o),
(127,742,o),
(124,742,c)
);
},
{
closed = 1;
nodes = (
(170,701,l),
(223,701,ls),
(465,701,o),
(578,633,o),
(578,371,c),
(578,130,o),
(478,40,o),
(221,40,c),
(171,40,ls),
(163,40,o),
(160,43,o),
(160,49,c),
(160,687,ls),
(160,695,o),
(162,701,o),
(170,701,c)
);
},
{
closed = 1;
nodes = (
(694,0,l),
(1064,0,ls),
(1070,0,o),
(1072,2,o),
(1072,8,c),
(1072,29,ls),
(1072,33,o),
(1070,35,o),
(1066,35,c),
(739,35,ls),
(735,35,o),
(733,37,o),
(737,42,c),
(1058,478,ls),
(1063,484,o),
(1065,491,o),
(1065,499,c),
(1065,524,ls),
(1065,528,o),
(1063,530,o),
(1060,530,c),
(716,530,ls),
(712,530,o),
(710,528,o),
(710,523,c),
(710,502,ls),
(710,496,o),
(712,495,o),
(717,495,c),
(1014,495,ls),
(1019,495,o),
(1021,492,o),
(1017,487,c),
(696,50,ls),
(690,42,o),
(688,37,o),
(688,30,c),
(688,7,ls),
(688,2,o),
(689,0,o),
(694,0,c)
);
}
);
};
layerId = "91AB5BCA-6A50-42DA-B2F7-8181BF189245";
shapes = (
{
ref = D;
},
{
pos = (703,0);
ref = z;
}
);
userData = {
com.schriftgestaltung.Glyphs.glyph.leftMetricsKey = D;
com.schriftgestaltung.Glyphs.glyph.rightMetricsKey = z;
};
width = 1161;
},
{
background = {
anchors = (
{
name = center;
pos = (390,371);
},
{
name = top;
pos = (1026,530);
}
);
shapes = (
{
closed = 1;
nodes = (
(79,742,l),
(59,742,o),
(52,736,o),
(52,717,c),
(52,30,ls),
(52,8,o),
(61,0,o),
(81,0,c),
(344,0,ls),
(607,0,o),
(740,157,o),
(740,372,c),
(740,583,o),
(612,732,o),
(345,741,c),
(287,743,o),
(146,742,o),
(79,742,c)
);
},
{
closed = 1;
nodes = (
(289,585,l),
(313,585,ls),
(443,585,o),
(502,513,o),
(502,374,c),
(502,215,o),
(425,157,o),
(300,157,c),
(293,157,ls),
(282,157,o),
(279,160,o),
(279,172,c),
(279,571,ls),
(279,582,o),
(282,585,o),
(289,585,c)
);
},
{
closed = 1;
nodes = (
(793,0,l),
(1243,0,ls),
(1260,0,o),
(1268,10,o),
(1268,22,c),
(1268,105,ls),
(1268,119,o),
(1259,124,o),
(1245,124,c),
(1040,124,ls),
(1026,124,o),
(1023,131,o),
(1032,143,c),
(1250,418,ls),
(1262,435,o),
(1267,444,o),
(1267,459,c),
(1267,511,ls),
(1267,522,o),
(1260,530,o),
(1248,530,c),
(807,530,ls),
(796,530,o),
(789,522,o),
(789,510,c),
(789,431,ls),
(789,413,o),
(794,408,o),
(811,408,c),
(991,408,ls),
(1005,408,o),
(1009,403,o),
(1001,392,c),
(788,121,ls),
(769,96,o),
(767,91,o),
(767,70,c),
(767,25,ls),
(767,5,o),
(773,0,o),
(793,0,c)
);
}
);
};
layerId = "258ED206-D907-4350-8EBA-CBDDA1C16BF7";
shapes = (
{
ref = D;
},
{
pos = (771,0);
ref = z;
}
);
userData = {
com.schriftgestaltung.Glyphs.glyph.leftMetricsKey = D;
com.schriftgestaltung.Glyphs.glyph.rightMetricsKey = z;
};
width = 1315;
}
);
unicode = 498;
},
{
glyphname = Eth;
kernLeft = H;
kernRight = O;
lastChange = "2025-08-29 20:44:13 +0000";
layers = (
{
background = {
anchors = (
{
name = center;
pos = (342,371);
},
{
name = top;
pos = (336,742);
}
);
shapes = (
{
closed = 1;
nodes = (
(342,387,l),
(342,392,o),
(340,395,o),
(335,395,c),
(42,395,ls),
(37,395,o),
(35,392,o),
(35,386,c),
(35,363,ls),
(35,356,o),
(37,353,o),
(45,353,c),
(329,353,ls),
(338,353,o),
(342,356,o),
(342,364,c)
);
},
{
closed = 1;
nodes = (
(124,742,l),
(117,742,o),
(114,738,o),
(114,732,c),
(114,10,ls),
(114,3,o),
(117,0,o),
(123,0,c),
(225,0,ls),
(499,0,o),
(626,115,o),
(626,379,c),
(626,622,o),
(518,739,o),
(239,741,c),
(229,741,o),
(127,742,o),
(124,742,c)
);
},
{
closed = 1;
nodes = (
(170,701,l),
(223,701,ls),
(465,701,o),
(578,633,o),
(578,371,c),
(578,130,o),
(478,40,o),
(221,40,c),
(171,40,ls),
(163,40,o),
(160,43,o),
(160,49,c),
(160,687,ls),
(160,695,o),
(162,701,o),
(170,701,c)
);
}
);
};
layerId = "91AB5BCA-6A50-42DA-B2F7-8181BF189245";
shapes = (
{
closed = 1;
nodes = (
(342,387,l),
(342,392,o),
(340,395,o),
(335,395,c),
(42,395,ls),
(37,395,o),
(35,392,o),
(35,386,c),
(35,363,ls),
(35,356,o),
(37,353,o),
(45,353,c),
(329,353,ls),
(338,353,o),
(342,356,o),
(342,364,c)
);
},
{
ref = D;
}
);
width = 703;
},
{
background = {
anchors = (
{
name = center;
pos = (410,371);
},
{
name = top;
pos = (410,742);
}
);
shapes = (
{
closed = 1;
nodes = (
(432,414,l),
(432,426,o),
(425,434,o),
(414,434,c),
(43,434,ls),
(31,434,o),
(24,426,o),
(24,411,c),
(24,318,ls),
(24,301,o),
(30,293,o),
(50,293,c),
(399,293,ls),
(422,293,o),
(432,301,o),
(432,321,c)
);
},
{
closed = 1;
nodes = (
(99,742,l),
(79,742,o),
(72,736,o),
(72,717,c),
(72,30,ls),
(72,8,o),
(81,0,o),
(101,0,c),
(364,0,ls),
(627,0,o),
(760,157,o),
(760,372,c),
(760,583,o),
(632,732,o),
(365,741,c),
(307,743,o),
(166,742,o),
(99,742,c)
);
},
{
closed = 1;
nodes = (
(309,585,l),
(333,585,ls),
(463,585,o),
(522,513,o),
(522,374,c),
(522,215,o),
(445,157,o),
(320,157,c),
(313,157,ls),
(302,157,o),
(299,160,o),
(299,172,c),
(299,571,ls),
(299,582,o),
(302,585,o),
(309,585,c)
);
}
);
};
layerId = "258ED206-D907-4350-8EBA-CBDDA1C16BF7";
shapes = (
{
closed = 1;
nodes = (
(432,414,l),
(432,426,o),
(425,434,o),
(414,434,c),
(43,434,ls),
(31,434,o),
(24,426,o),
(24,411,c),
(24,318,ls),
(24,301,o),
(30,293,o),
(50,293,c),
(399,293,ls),
(422,293,o),
(432,301,o),
(432,321,c)
);
},
{
pos = (20,0);
ref = D;
}
);
width = 791;
}
);
metricRight = D;
unicode = 208;
},
{
glyphname = E;
kernLeft = H;
kernRight = E;
lastChange = "2025-08-29 20:44:13 +0000";
layers = (
{
anchors = (
{
name = bottom;
pos = (364,0);
},
{
name = ogonek;
pos = (549,10);
},
{
name = top;
pos = (345,742);
}
);
background = {
anchors = (
{
name = bottom;
pos = (364,0);
},
{
name = ogonek;
pos = (549,10);
},
{
name = top;
pos = (345,742);
}
);
shapes = (
{
closed = 1;
nodes = (
(114,732,l),
(114,10,ls),
(114,2,o),
(116,0,o),
(123,0,c),
(553,0,ls),
(558,0,o),
(560,2,o),
(560,7,c),
(560,33,ls),
(560,39,o),
(558,40,o),
(552,40,c),
(169,40,ls),
(162,40,o),
(160,41,o),
(160,49,c),
(160,346,ls),
(160,354,o),
(162,355,o),
(169,355,c),
(457,355,ls),
(463,355,o),
(465,356,o),
(465,362,c),
(465,388,ls),
(465,393,o),
(463,395,o),
(458,395,c),
(169,395,ls),
(162,395,o),
(160,396,o),
(160,402,c),
(160,693,ls),
(160,701,o),
(162,702,o),
(169,702,c),
(537,702,ls),
(543,702,o),
(545,703,o),
(545,709,c),
(545,735,ls),
(545,740,o),
(543,742,o),
(538,742,c),
(123,742,ls),
(116,742,o),
(114,740,o),
(114,732,c)
);
}
);
};
layerId = "91AB5BCA-6A50-42DA-B2F7-8181BF189245";
shapes = (
{
closed = 1;
nodes = (
(114,732,l),
(114,10,ls),
(114,2,o),
(116,0,o),
(123,0,c),
(553,0,ls),
(558,0,o),
(560,2,o),
(560,7,c),
(560,33,ls),
(560,39,o),
(558,40,o),
(552,40,c),
(169,40,ls),
(162,40,o),
(160,41,o),
(160,49,c),
(160,346,ls),
(160,354,o),
(162,355,o),
(169,355,c),
(457,355,ls),
(463,355,o),
(465,356,o),
(465,362,c),
(465,388,ls),
(465,393,o),
(463,395,o),
(458,395,c),
(169,395,ls),
(162,395,o),
(160,396,o),
(160,402,c),
(160,693,ls),
(160,701,o),
(162,702,o),
(169,702,c),
(537,702,ls),
(543,702,o),
(545,703,o),
(545,709,c),
(545,735,ls),
(545,740,o),
(543,742,o),
(538,742,c),
(123,742,ls),
(116,742,o),
(114,740,o),
(114,732,c)
);
}
);
width = 612;
},
{
anchors = (
{
name = bottom;
pos = (336,0);
},
{
name = ogonek;
pos = (610,10);
},
{
name = top;
pos = (336,742);
}
);
background = {
anchors = (
{
name = bottom;
pos = (336,0);
},
{
name = ogonek;
pos = (610,10);
},
{
name = top;
pos = (336,742);
}
);
shapes = (
{
closed = 1;
nodes = (
(52,719,l),
(52,25,ls),
(52,8,o),
(59,0,o),
(79,0,c),
(614,0,ls),
(631,0,o),
(638,10,o),
(638,22,c),
(638,145,ls),
(638,159,o),
(630,164,o),
(616,164,c),
(291,164,ls),
(282,164,o),
(279,167,o),
(279,178,c),
(279,278,ls),
(279,286,o),
(285,292,o),
(295,292,c),
(480,292,ls),
(493,292,o),
(498,300,o),
(498,309,c),
(498,433,ls),
(498,446,o),
(491,453,o),
(477,453,c),
(297,453,ls),
(287,453,o),
(279,460,o),
(279,474,c),
(279,559,ls),
(279,572,o),
(287,578,o),
(302,578,c),
(602,578,ls),
(620,578,o),
(628,589,o),
(628,605,c),
(629,721,ls),
(629,734,o),
(623,742,o),
(611,742,c),
(71,742,ls),
(59,742,o),
(52,734,o),
(52,719,c)
);
}
);
};
layerId = "258ED206-D907-4350-8EBA-CBDDA1C16BF7";
shapes = (
{
closed = 1;
nodes = (
(52,719,l),
(52,25,ls),
(52,8,o),
(59,0,o),
(79,0,c),
(614,0,ls),
(631,0,o),
(638,10,o),
(638,22,c),
(638,145,ls),
(638,159,o),
(630,164,o),
(616,164,c),
(291,164,ls),
(282,164,o),
(279,167,o),
(279,178,c),
(279,278,ls),
(279,286,o),
(285,292,o),
(295,292,c),
(480,292,ls),
(493,292,o),
(498,300,o),
(498,309,c),
(498,433,ls),
(498,446,o),
(491,453,o),
(477,453,c),
(297,453,ls),
(287,453,o),
(279,460,o),
(279,474,c),
(279,559,ls),
(279,572,o),
(287,578,o),
(302,578,c),
(603,578,ls),
(621,578,o),
(629,589,o),
(629,605,c),
(629,721,ls),
(629,734,o),
(623,742,o),
(611,742,c),
(71,742,ls),
(59,742,o),
(52,734,o),
(52,719,c)
);
}
);
width = 671;
}
);
unicode = 69;
},
{
glyphname = Ecircumflexacute;
kernLeft = H;
kernRight = E;
lastChange = "2025-08-29 20:44:13 +0000";
layers = (
{
background = {
anchors = (
{
name = bottom;
pos = (364,0);
},
{
name = ogonek;
pos = (549,10);
},
{
name = top;
pos = (460,799);
},
{
name = topviet;
pos = (545,715);
}
);
shapes = (
{
closed = 1;
nodes = (
(114,732,l),
(114,10,ls),
(114,2,o),
(116,0,o),
(123,0,c),
(553,0,ls),
(558,0,o),
(560,2,o),
(560,7,c),
(560,33,ls),
(560,39,o),
(558,40,o),
(552,40,c),
(169,40,ls),
(162,40,o),
(160,41,o),
(160,49,c),
(160,346,ls),
(160,354,o),
(162,355,o),
(169,355,c),
(457,355,ls),
(463,355,o),
(465,356,o),
(465,362,c),
(465,388,ls),
(465,393,o),
(463,395,o),
(458,395,c),
(169,395,ls),
(162,395,o),
(160,396,o),
(160,402,c),
(160,693,ls),
(160,701,o),
(162,702,o),
(169,702,c),
(537,702,ls),
(543,702,o),
(545,703,o),
(545,709,c),
(545,735,ls),
(545,740,o),
(543,742,o),
(538,742,c),
(123,742,ls),
(116,742,o),
(114,740,o),
(114,732,c)
);
},
{
closed = 1;
nodes = (
(530,646,o),
(534,644,o),
(540,644,cs),
(581,644,ls),
(589,644,o),
(589,648,o),
(582,654,cs),
(484,734,ls),
(480,737,o),
(476,742,o),
(468,742,cs),
(450,742,ls),
(441,742,o),
(436,738,o),
(430,733,cs),
(331,654,ls),
(325,649,o),
(326,644,o),
(333,644,cs),
(370,644,ls),
(377,644,o),
(378,645,o),
(385,650,cs),
(447,698,ls),
(458,706,o),
(456,706,o),
(466,698,cs),
(525,650,ls)
);
},
{
closed = 1;
nodes = (
(574,889,o),
(570,890,o),
(567,889,cs),
(338,798,ls),
(335,797,o),
(333,793,o),
(335,788,cs),
(340,773,ls),
(342,767,o),
(345,766,o),
(351,768,cs),
(578,842,ls),
(586,845,o),
(587,848,o),
(585,854,cs),
(575,886,ls)
);
}
);
};
layerId = "91AB5BCA-6A50-42DA-B2F7-8181BF189245";
shapes = (
{
ref = E;
},
{
pos = (53,212);
ref = circumflexcomb_acutecomb;
}
);
width = 612;
},
{
background = {
anchors = (
{
name = bottom;
pos = (336,0);
},
{
name = ogonek;
pos = (610,10);
},
{
name = top;
pos = (389,906);
},
{
name = topviet;
pos = (537,699);
}
);
shapes = (
{
closed = 1;
nodes = (
(52,719,l),
(52,25,ls),
(52,8,o),
(59,0,o),
(79,0,c),
(614,0,ls),
(631,0,o),
(638,10,o),
(638,22,c),
(638,145,ls),
(638,159,o),
(630,164,o),
(616,164,c),
(291,164,ls),
(282,164,o),
(279,167,o),
(279,178,c),
(279,278,ls),
(279,286,o),
(285,292,o),
(295,292,c),
(480,292,ls),
(493,292,o),
(498,300,o),
(498,309,c),
(498,433,ls),
(498,446,o),
(491,453,o),
(477,453,c),
(297,453,ls),
(287,453,o),
(279,460,o),
(279,474,c),
(279,559,ls),
(279,572,o),
(287,578,o),
(302,578,c),
(602,578,ls),
(620,578,o),
(628,589,o),
(628,605,c),
(629,721,ls),
(629,734,o),
(623,742,o),
(611,742,c),
(71,742,ls),
(59,742,o),
(52,734,o),
(52,719,c)
);
},
{
closed = 1;
nodes = (
(453,595,o),
(461,595,o),
(473,595,cs),
(578,595,ls),
(592,595,o),
(591,601,o),
(580,613,cs),
(469,739,ls),
(462,746,o),
(455,752,o),
(441,752,cs),
(346,752,ls),
(327,752,o),
(318,747,o),
(309,737,cs),
(197,613,ls),
(187,602,o),
(188,595,o),
(200,595,cs),
(299,595,ls),
(312,595,o),
(316,594,o),
(325,604,cs),
(371,658,ls),
(388,677,o),
(391,676,o),
(405,658,cs),
(446,604,ls)
);
},
{
closed = 1;
nodes = (
(506,934,o),
(498,939,o),
(489,935,cs),
(249,837,ls),
(240,833,o),
(237,825,o),
(241,813,cs),
(256,770,ls),
(261,756,o),
(268,753,o),
(285,757,cs),
(518,813,ls),
(538,818,o),
(542,830,o),
(537,845,cs),
(510,923,ls)
);
}
);
};
layerId = "258ED206-D907-4350-8EBA-CBDDA1C16BF7";
shapes = (
{
ref = E;
},
{
pos = (33,212);
ref = circumflexcomb_acutecomb;
}
);
width = 671;
}
);
unicode = 7870;
},
{
glyphname = Ecircumflexdotbelow;
kernLeft = H;
kernRight = E;
lastChange = "2025-08-29 20:44:13 +0000";
layers = (
{
background = {
anchors = (
{
name = bottom;
pos = (364,0);
},
{
name = ogonek;
pos = (549,10);
},
{
name = top;
pos = (344,876);
},
{
name = topviet;
pos = (433,927);
}
);
shapes = (
{
closed = 1;
nodes = (
(114,732,l),
(114,10,ls),
(114,2,o),
(116,0,o),
(123,0,c),
(553,0,ls),
(558,0,o),
(560,2,o),
(560,7,c),
(560,33,ls),
(560,39,o),
(558,40,o),
(552,40,c),
(169,40,ls),
(162,40,o),
(160,41,o),
(160,49,c),
(160,346,ls),
(160,354,o),
(162,355,o),
(169,355,c),
(457,355,ls),
(463,355,o),
(465,356,o),
(465,362,c),
(465,388,ls),
(465,393,o),
(463,395,o),
(458,395,c),
(169,395,ls),
(162,395,o),
(160,396,o),
(160,402,c),
(160,693,ls),
(160,701,o),
(162,702,o),
(169,702,c),
(537,702,ls),
(543,702,o),
(545,703,o),
(545,709,c),
(545,735,ls),
(545,740,o),
(543,742,o),
(538,742,c),
(123,742,ls),
(116,742,o),
(114,740,o),
(114,732,c)
);
},
{
closed = 1;
nodes = (
(462,-64,o),
(460,-62,o),
(453,-62,cs),
(419,-62,ls),
(412,-62,o),
(410,-64,o),
(410,-72,cs),
(410,-155,ls),
(410,-163,o),
(412,-165,o),
(421,-165,cs),
(450,-165,ls),
(460,-165,o),
(462,-163,o),
(462,-153,cs),
(462,-72,ls)
);
},
{
closed = 1;
nodes = (
(418,858,o),
(422,856,o),
(428,856,cs),
(469,856,ls),
(477,856,o),
(477,860,o),
(470,866,cs),
(372,946,ls),
(368,949,o),
(364,954,o),
(356,954,cs),
(338,954,ls),
(329,954,o),
(324,950,o),
(318,945,cs),
(219,866,ls),
(213,861,o),
(214,856,o),
(221,856,cs),
(258,856,ls),
(265,856,o),
(266,857,o),
(273,862,cs),
(335,910,ls),
(346,918,o),
(344,918,o),
(354,910,cs),
(413,862,ls)
);
}
);
};
layerId = "91AB5BCA-6A50-42DA-B2F7-8181BF189245";
shapes = (
{
ref = E;
},
{
pos = (328,0);
ref = dotbelowcomb;
},
{
pos = (205,212);
ref = circumflexcomb;
}
);
width = 612;
},
{
background = {
anchors = (
{
name = bottom;
pos = (336,0);
},
{
name = ogonek;
pos = (610,10);
},
{
name = top;
pos = (335,929);
},
{
name = topviet;
pos = (483,911);
}
);
shapes = (
{
closed = 1;
nodes = (
(52,719,l),
(52,25,ls),
(52,8,o),
(59,0,o),
(79,0,c),
(614,0,ls),
(631,0,o),
(638,10,o),
(638,22,c),
(638,145,ls),
(638,159,o),
(630,164,o),
(616,164,c),
(291,164,ls),
(282,164,o),
(279,167,o),
(279,178,c),
(279,278,ls),
(279,286,o),
(285,292,o),
(295,292,c),
(480,292,ls),
(493,292,o),
(498,300,o),
(498,309,c),
(498,433,ls),
(498,446,o),
(491,453,o),
(477,453,c),
(297,453,ls),
(287,453,o),
(279,460,o),
(279,474,c),
(279,559,ls),
(279,572,o),
(287,578,o),
(302,578,c),
(602,578,ls),
(620,578,o),
(628,589,o),
(628,605,c),
(629,721,ls),
(629,734,o),
(623,742,o),
(611,742,c),
(71,742,ls),
(59,742,o),
(52,734,o),
(52,719,c)
);
},
{
closed = 1;
nodes = (
(578,-45,o),
(574,-39,o),
(565,-39,cs),
(443,-39,ls),
(434,-39,o),
(430,-45,o),
(430,-57,cs),
(430,-146,ls),
(430,-158,o),
(434,-165,o),
(449,-165,cs),
(554,-165,ls),
(571,-165,o),
(578,-158,o),
(578,-143,cs),
(578,-55,ls)
);
},
{
closed = 1;
nodes = (
(399,807,o),
(407,807,o),
(419,807,cs),
(524,807,ls),
(538,807,o),
(537,813,o),
(526,825,cs),
(415,951,ls),
(408,958,o),
(401,964,o),
(387,964,cs),
(292,964,ls),
(273,964,o),
(264,959,o),
(255,949,cs),
(143,825,ls),
(133,814,o),
(134,807,o),
(146,807,cs),
(245,807,ls),
(258,807,o),
(262,806,o),
(271,816,cs),
(317,870,ls),
(334,889,o),
(337,888,o),
(351,870,cs),
(392,816,ls)
);
}
);
};
layerId = "258ED206-D907-4350-8EBA-CBDDA1C16BF7";
shapes = (
{
ref = E;
},
{
pos = (252,0);
ref = dotbelowcomb;
},
{
pos = (126,212);
ref = circumflexcomb;
}
);
width = 671;
}
);
unicode = 7878;
},
{
glyphname = Ecircumflexgrave;
kernLeft = H;
kernRight = E;
lastChange = "2025-08-29 20:44:13 +0000";
layers = (
{
background = {
anchors = (
{
name = bottom;
pos = (364,0);
},
{
name = ogonek;
pos = (549,10);
},
{
name = top;
pos = (463,664);
},
{
name = topviet;
pos = (552,715);
}
);
shapes = (
{
closed = 1;
nodes = (
(114,732,l),
(114,10,ls),
(114,2,o),
(116,0,o),
(123,0,c),
(553,0,ls),
(558,0,o),
(560,2,o),
(560,7,c),
(560,33,ls),
(560,39,o),
(558,40,o),
(552,40,c),
(169,40,ls),
(162,40,o),
(160,41,o),
(160,49,c),
(160,346,ls),
(160,354,o),
(162,355,o),
(169,355,c),
(457,355,ls),
(463,355,o),
(465,356,o),
(465,362,c),
(465,388,ls),
(465,393,o),
(463,395,o),
(458,395,c),
(169,395,ls),
(162,395,o),
(160,396,o),
(160,402,c),
(160,693,ls),
(160,701,o),
(162,702,o),
(169,702,c),
(537,702,ls),
(543,702,o),
(545,703,o),
(545,709,c),
(545,735,ls),
(545,740,o),
(543,742,o),
(538,742,c),
(123,742,ls),
(116,742,o),
(114,740,o),
(114,732,c)
);
},
{
closed = 1;
nodes = (
(537,646,o),
(541,644,o),
(547,644,cs),
(588,644,ls),
(596,644,o),
(596,648,o),
(589,654,cs),
(491,734,ls),
(487,737,o),
(483,742,o),
(475,742,cs),
(457,742,ls),
(448,742,o),
(443,738,o),
(437,733,cs),
(338,654,ls),
(332,649,o),
(333,644,o),
(340,644,cs),
(377,644,ls),
(384,644,o),
(385,645,o),
(392,650,cs),
(454,698,ls),
(465,706,o),
(463,706,o),
(473,698,cs),
(532,650,ls)
);
},
{
closed = 1;
nodes = (
(345,850,ls),
(343,844,o),
(344,841,o),
(352,838,cs),
(579,764,ls),
(585,762,o),
(588,763,o),
(590,769,cs),
(595,784,ls),
(597,789,o),
(595,793,o),
(592,794,cs),
(363,885,ls),
(360,886,o),
(356,885,o),
(355,882,cs)
);
}
);
};
layerId = "91AB5BCA-6A50-42DA-B2F7-8181BF189245";
shapes = (
{
ref = E;
},
{
pos = (45,212);
ref = circumflexcomb_gravecomb;
}
);
width = 612;
},
{
background = {
anchors = (
{
name = bottom;
pos = (336,0);
},
{
name = ogonek;
pos = (610,10);
},
{
name = top;
pos = (395,717);
},
{
name = topviet;
pos = (543,699);
}
);
shapes = (
{
closed = 1;
nodes = (
(52,719,l),
(52,25,ls),
(52,8,o),
(59,0,o),
(79,0,c),
(614,0,ls),
(631,0,o),
(638,10,o),
(638,22,c),
(638,145,ls),
(638,159,o),
(630,164,o),
(616,164,c),
(291,164,ls),
(282,164,o),
(279,167,o),
(279,178,c),
(279,278,ls),
(279,286,o),
(285,292,o),
(295,292,c),
(480,292,ls),
(493,292,o),
(498,300,o),
(498,309,c),
(498,433,ls),
(498,446,o),
(491,453,o),
(477,453,c),
(297,453,ls),
(287,453,o),
(279,460,o),
(279,474,c),
(279,559,ls),
(279,572,o),
(287,578,o),
(302,578,c),
(602,578,ls),
(620,578,o),
(628,589,o),
(628,605,c),
(629,721,ls),
(629,734,o),
(623,742,o),
(611,742,c),
(71,742,ls),
(59,742,o),
(52,734,o),
(52,719,c)
);
},
{
closed = 1;
nodes = (
(459,595,o),
(467,595,o),
(479,595,cs),
(584,595,ls),
(598,595,o),
(597,601,o),
(586,613,cs),
(475,739,ls),
(468,746,o),
(461,752,o),
(447,752,cs),
(352,752,ls),
(333,752,o),
(324,747,o),
(315,737,cs),
(203,613,ls),
(193,602,o),
(194,595,o),
(206,595,cs),
(305,595,ls),
(318,595,o),
(322,594,o),
(331,604,cs),
(377,658,ls),
(394,677,o),
(397,676,o),
(411,658,cs),
(452,604,ls)
);
},
{
closed = 1;
nodes = (
(248,848,ls),
(243,833,o),
(247,821,o),
(267,816,cs),
(500,760,ls),
(517,756,o),
(524,759,o),
(529,773,cs),
(544,816,ls),
(548,828,o),
(545,836,o),
(536,840,cs),
(297,938,ls),
(288,942,o),
(280,937,o),
(276,926,cs)
);
}
);
};
layerId = "258ED206-D907-4350-8EBA-CBDDA1C16BF7";
shapes = (
{
ref = E;
},
{
pos = (27,212);
ref = circumflexcomb_gravecomb;
}
);
width = 671;
}
);
unicode = 7872;
},
{
glyphname = Ecircumflexhookabove;
kernLeft = H;
kernRight = E;
lastChange = "2025-08-29 20:44:13 +0000";
layers = (
{
background = {
anchors = (
{
name = bottom;
pos = (364,0);
},
{
name = ogonek;
pos = (549,10);
},
{
name = top;
pos = (447,664);
},
{
name = topviet;
pos = (536,715);
}
);
shapes = (
{
closed = 1;
nodes = (
(114,732,l),
(114,10,ls),
(114,2,o),
(116,0,o),
(123,0,c),
(553,0,ls),
(558,0,o),
(560,2,o),
(560,7,c),
(560,33,ls),
(560,39,o),
(558,40,o),
(552,40,c),
(169,40,ls),
(162,40,o),
(160,41,o),
(160,49,c),
(160,346,ls),
(160,354,o),
(162,355,o),
(169,355,c),
(457,355,ls),
(463,355,o),
(465,356,o),
(465,362,c),
(465,388,ls),
(465,393,o),
(463,395,o),
(458,395,c),
(169,395,ls),
(162,395,o),
(160,396,o),
(160,402,c),
(160,693,ls),
(160,701,o),
(162,702,o),
(169,702,c),
(537,702,ls),
(543,702,o),
(545,703,o),
(545,709,c),
(545,735,ls),
(545,740,o),
(543,742,o),
(538,742,c),
(123,742,ls),
(116,742,o),
(114,740,o),
(114,732,c)
);
},
{
closed = 1;
nodes = (
(521,646,o),
(525,644,o),
(531,644,cs),
(572,644,ls),
(580,644,o),
(580,648,o),
(573,654,cs),
(475,734,ls),
(471,737,o),
(467,742,o),
(459,742,cs),
(441,742,ls),
(432,742,o),
(427,738,o),
(421,733,cs),
(322,654,ls),
(316,649,o),
(317,644,o),
(324,644,cs),
(361,644,ls),
(368,644,o),
(369,645,o),
(376,650,cs),
(438,698,ls),
(449,706,o),
(447,706,o),
(457,698,cs),
(516,650,ls)
);
},
{
closed = 1;
nodes = (
(518,876,o),
(545,886,o),
(565,886,cs),
(608,886,o),
(636,861,o),
(636,821,cs),
(636,790,o),
(611,761,o),
(580,730,cs),
(578,728,o),
(576,729,o),
(574,731,cs),
(560,748,ls),
(558,750,o),
(559,753,o),
(561,755,cs),
(585,779,o),
(604,802,o),
(604,819,cs),
(604,844,o),
(587,852,o),
(562,852,cs),
(545,852,o),
(529,843,o),
(512,832,cs),
(509,830,o),
(508,832,o),
(507,834,cs),
(497,857,ls),
(495,861,o),
(496,862,o),
(499,864,cs)
);
}
);
};
layerId = "91AB5BCA-6A50-42DA-B2F7-8181BF189245";
shapes = (
{
ref = E;
},
{
pos = (35,212);
ref = circumflexcomb_hookabovecomb;
}
);
width = 612;
},
{
background = {
anchors = (
{
name = bottom;
pos = (336,0);
},
{
name = ogonek;
pos = (610,10);
},
{
name = top;
pos = (338,717);
},
{
name = topviet;
pos = (486,699);
}
);
shapes = (
{
closed = 1;
nodes = (
(52,719,l),
(52,25,ls),
(52,8,o),
(59,0,o),
(79,0,c),
(614,0,ls),
(631,0,o),
(638,10,o),
(638,22,c),
(638,145,ls),
(638,159,o),
(630,164,o),
(616,164,c),
(291,164,ls),
(282,164,o),
(279,167,o),
(279,178,c),
(279,278,ls),
(279,286,o),
(285,292,o),
(295,292,c),
(480,292,ls),
(493,292,o),
(498,300,o),
(498,309,c),
(498,433,ls),
(498,446,o),
(491,453,o),
(477,453,c),
(297,453,ls),
(287,453,o),
(279,460,o),
(279,474,c),
(279,559,ls),
(279,572,o),
(287,578,o),
(302,578,c),
(602,578,ls),
(620,578,o),
(628,589,o),
(628,605,c),
(629,721,ls),
(629,734,o),
(623,742,o),
(611,742,c),
(71,742,ls),
(59,742,o),
(52,734,o),
(52,719,c)
);
},
{
closed = 1;
nodes = (
(402,595,o),
(410,595,o),
(422,595,cs),
(527,595,ls),
(541,595,o),
(540,601,o),
(529,613,cs),
(418,739,ls),
(411,746,o),
(404,752,o),
(390,752,cs),
(295,752,ls),
(276,752,o),
(267,747,o),
(258,737,cs),
(146,613,ls),
(136,602,o),
(137,595,o),
(149,595,cs),
(248,595,ls),
(261,595,o),
(265,594,o),
(274,604,cs),
(320,658,ls),
(337,677,o),
(340,676,o),
(354,658,cs),
(395,604,ls)
);
},
{
closed = 1;
nodes = (
(486,912,o),
(510,923,o),
(539,923,cs),
(602,923,o),
(651,886,o),
(651,828,cs),
(651,777,o),
(614,740,o),
(566,704,cs),
(558,698,o),
(551,701,o),
(546,707,cs),
(518,746,ls),
(513,753,o),
(516,761,o),
(520,764,cs),
(556,791,o),
(572,802,o),
(572,823,cs),
(572,839,o),
(552,844,o),
(538,844,cs),
(521,844,o),
(505,839,o),
(485,828,cs),
(478,824,o),
(472,828,o),
(468,835,cs),
(443,882,ls),
(438,892,o),
(442,896,o),
(450,899,cs)
);
}
);
};
layerId = "258ED206-D907-4350-8EBA-CBDDA1C16BF7";
shapes = (
{
ref = E;
},
{
pos = (35,212);
ref = circumflexcomb_hookabovecomb;
}
);
width = 671;
}
);
unicode = 7874;
},
{
glyphname = Ecircumflextilde;
kernLeft = H;
kernRight = E;
lastChange = "2025-08-29 20:44:13 +0000";
layers = (
{
background = {
anchors = (
{
name = bottom;
pos = (364,0);
},
{
name = ogonek;
pos = (549,10);
},
{
name = top;
pos = (466,785);
},
{
name = topviet;
pos = (565,715);
}
);
shapes = (
{
closed = 1;
nodes = (
(114,732,l),
(114,10,ls),
(114,2,o),
(116,0,o),
(123,0,c),
(553,0,ls),
(558,0,o),
(560,2,o),
(560,7,c),
(560,33,ls),
(560,39,o),
(558,40,o),
(552,40,c),
(169,40,ls),
(162,40,o),
(160,41,o),
(160,49,c),
(160,346,ls),
(160,354,o),
(162,355,o),
(169,355,c),
(457,355,ls),
(463,355,o),
(465,356,o),
(465,362,c),
(465,388,ls),
(465,393,o),
(463,395,o),
(458,395,c),
(169,395,ls),
(162,395,o),
(160,396,o),
(160,402,c),
(160,693,ls),
(160,701,o),
(162,702,o),
(169,702,c),
(537,702,ls),
(543,702,o),
(545,703,o),
(545,709,c),
(545,735,ls),
(545,740,o),
(543,742,o),
(538,742,c),
(123,742,ls),
(116,742,o),
(114,740,o),
(114,732,c)
);
},
{
closed = 1;
nodes = (
(550,646,o),
(554,644,o),
(560,644,cs),
(601,644,ls),
(609,644,o),
(609,648,o),
(602,654,cs),
(504,734,ls),
(500,737,o),
(496,742,o),
(488,742,cs),
(470,742,ls),
(461,742,o),
(456,738,o),
(450,733,cs),
(351,654,ls),
(345,649,o),
(346,644,o),
(353,644,cs),
(390,644,ls),
(397,644,o),
(398,645,o),
(405,650,cs),
(467,698,ls),
(478,706,o),
(476,706,o),
(486,698,cs),
(545,650,ls)
);
},
{
closed = 1;
nodes = (
(607,830,o),
(608,831,o),
(606,835,cs),
(598,853,ls),
(595,859,o),
(592,860,o),
(585,856,cs),
(568,846,o),
(557,840,o),
(535,840,cs),
(491,840,o),
(460,865,o),
(416,865,cs),
(386,865,o),
(368,853,o),
(348,839,cs),
(345,837,o),
(344,836,o),
(346,831,cs),
(353,815,ls),
(356,808,o),
(358,808,o),
(364,811,cs),
(377,818,o),
(390,831,o),
(420,831,cs),
(461,831,o),
(482,807,o),
(534,807,cs),
(570,807,o),
(588,818,o),
(601,826,cs)
);
}
);
};
layerId = "91AB5BCA-6A50-42DA-B2F7-8181BF189245";
shapes = (
{
ref = E;
},
{
pos = (32,212);
ref = circumflexcomb_tildecomb;
}
);
width = 612;
},
{
background = {
anchors = (
{
name = bottom;
pos = (336,0);
},
{
name = ogonek;
pos = (610,10);
},
{
name = top;
pos = (376,928);
},
{
name = topviet;
pos = (540,699);
}
);
shapes = (
{
closed = 1;
nodes = (
(52,719,l),
(52,25,ls),
(52,8,o),
(59,0,o),
(79,0,c),
(614,0,ls),
(631,0,o),
(638,10,o),
(638,22,c),
(638,145,ls),
(638,159,o),
(630,164,o),
(616,164,c),
(291,164,ls),
(282,164,o),
(279,167,o),
(279,178,c),
(279,278,ls),
(279,286,o),
(285,292,o),
(295,292,c),
(480,292,ls),
(493,292,o),
(498,300,o),
(498,309,c),
(498,433,ls),
(498,446,o),
(491,453,o),
(477,453,c),
(297,453,ls),
(287,453,o),
(279,460,o),
(279,474,c),
(279,559,ls),
(279,572,o),
(287,578,o),
(302,578,c),
(602,578,ls),
(620,578,o),
(628,589,o),
(628,605,c),
(629,721,ls),
(629,734,o),
(623,742,o),
(611,742,c),
(71,742,ls),
(59,742,o),
(52,734,o),
(52,719,c)
);
},
{
closed = 1;
nodes = (
(456,595,o),
(464,595,o),
(476,595,cs),
(581,595,ls),
(595,595,o),
(594,601,o),
(583,613,cs),
(472,739,ls),
(465,746,o),
(458,752,o),
(444,752,cs),
(349,752,ls),
(330,752,o),
(321,747,o),
(312,737,cs),
(200,613,ls),
(190,602,o),
(191,595,o),
(203,595,cs),
(302,595,ls),
(315,595,o),
(319,594,o),
(328,604,cs),
(374,658,ls),
(391,677,o),
(394,676,o),
(408,658,cs),
(449,604,ls)
);
},
{
closed = 1;
nodes = (
(590,836,o),
(593,844,o),
(590,856,cs),
(576,921,ls),
(573,936,o),
(562,937,o),
(552,930,cs),
(534,917,o),
(507,902,o),
(475,902,cs),
(428,902,o),
(372,936,o),
(309,936,cs),
(262,936,o),
(236,916,o),
(211,895,cs),
(196,882,o),
(200,874,o),
(203,864,cs),
(220,810,ls),
(225,794,o),
(232,794,o),
(243,802,cs),
(269,821,o),
(286,827,o),
(314,827,cs),
(371,827,o),
(417,796,o),
(476,796,cs),
(517,796,o),
(555,811,o),
(576,826,cs)
);
}
);
};
layerId = "258ED206-D907-4350-8EBA-CBDDA1C16BF7";
shapes = (
{
ref = E;
},
{
pos = (26,212);
ref = circumflexcomb_tildecomb;
}
);
width = 671;
}
);
unicode = 7876;
},
{
glyphname = Edotbelow;
kernLeft = H;
kernRight = E;
lastChange = "2025-08-29 20:44:13 +0000";
layers = (
{
background = {
anchors = (
{
name = bottom;
pos = (364,0);
},
{
name = ogonek;
pos = (549,10);
},
{
name = top;
pos = (345,742);
}
);
shapes = (
{
closed = 1;
nodes = (
(114,732,l),
(114,10,ls),
(114,2,o),
(116,0,o),
(123,0,c),
(553,0,ls),
(558,0,o),
(560,2,o),
(560,7,c),
(560,33,ls),
(560,39,o),
(558,40,o),
(552,40,c),
(169,40,ls),
(162,40,o),
(160,41,o),
(160,49,c),
(160,346,ls),
(160,354,o),
(162,355,o),
(169,355,c),
(457,355,ls),
(463,355,o),
(465,356,o),
(465,362,c),
(465,388,ls),
(465,393,o),
(463,395,o),
(458,395,c),
(169,395,ls),
(162,395,o),
(160,396,o),
(160,402,c),
(160,693,ls),
(160,701,o),
(162,702,o),
(169,702,c),
(537,702,ls),
(543,702,o),
(545,703,o),
(545,709,c),
(545,735,ls),
(545,740,o),
(543,742,o),
(538,742,c),
(123,742,ls),
(116,742,o),
(114,740,o),
(114,732,c)
);
},
{
closed = 1;
nodes = (
(444,-64,o),
(442,-62,o),
(435,-62,cs),
(401,-62,ls),
(394,-62,o),
(392,-64,o),
(392,-72,cs),
(392,-155,ls),
(392,-163,o),
(394,-165,o),
(403,-165,cs),
(432,-165,ls),
(442,-165,o),
(444,-163,o),
(444,-153,cs),
(444,-72,ls)
);
}
);
};
layerId = "91AB5BCA-6A50-42DA-B2F7-8181BF189245";
shapes = (
{
ref = E;
},
{
pos = (328,0);
ref = dotbelowcomb;
}
);
width = 612;
},
{
background = {
anchors = (
{
name = bottom;
pos = (336,0);
},
{
name = ogonek;
pos = (610,10);
},
{
name = top;
pos = (336,742);
}
);
shapes = (
{
closed = 1;
nodes = (
(52,719,l),
(52,25,ls),
(52,8,o),
(59,0,o),
(79,0,c),
(614,0,ls),
(631,0,o),
(638,10,o),
(638,22,c),
(638,145,ls),
(638,159,o),
(630,164,o),
(616,164,c),
(291,164,ls),
(282,164,o),
(279,167,o),
(279,178,c),
(279,278,ls),
(279,286,o),
(285,292,o),
(295,292,c),
(480,292,ls),
(493,292,o),
(498,300,o),
(498,309,c),
(498,433,ls),
(498,446,o),
(491,453,o),
(477,453,c),
(297,453,ls),
(287,453,o),
(279,460,o),
(279,474,c),
(279,559,ls),
(279,572,o),
(287,578,o),
(302,578,c),
(602,578,ls),
(620,578,o),
(628,589,o),
(628,605,c),
(629,721,ls),
(629,734,o),
(623,742,o),
(611,742,c),
(71,742,ls),
(59,742,o),
(52,734,o),
(52,719,c)
);
},
{
closed = 1;
nodes = (
(596,-45,o),
(592,-39,o),
(583,-39,cs),
(461,-39,ls),
(452,-39,o),
(448,-45,o),
(448,-57,cs),
(448,-146,ls),
(448,-158,o),
(452,-165,o),
(467,-165,cs),
(572,-165,ls),
(589,-165,o),
(596,-158,o),
(596,-143,cs),
(596,-55,ls)
);
}
);
};
layerId = "258ED206-D907-4350-8EBA-CBDDA1C16BF7";
shapes = (
{
ref = E;
},
{
pos = (252,0);
ref = dotbelowcomb;
}
);
width = 671;
}
);
unicode = 7864;
},
{
glyphname = Schwa;
lastChange = "2025-08-29 20:44:13 +0000";
layers = (
{
background = {
shapes = (
{
closed = 1;
nodes = (
(627,386,l),
(627,381,o),
(626,380,o),
(621,380,c),
(86,380,ls),
(78,380,o),
(78,375,o),
(78,369,c),
(78,174,o),
(144,-10,o),
(379,-10,c),
(608,-10,o),
(679,180,o),
(679,366,c),
(679,531,o),
(629,752,o),
(379,752,c),
(151,752,o),
(107,560,o),
(92,522,c),
(90,517,o),
(89,514,o),
(93,513,c),
(131,500,ls),
(135,499,o),
(137,498,o),
(138,500,c),
(152,531,o),
(170,709,o),
(379,709,c),
(597,709,o),
(627,504,o),
(627,386,c)
);
},
{
closed = 1;
nodes = (
(627,338,l),
(624,191,o),
(575,33,o),
(379,33,c),
(182,33,o),
(130,192,o),
(130,332,c),
(130,336,o),
(132,338,o),
(138,338,c)
);
}
);
};
layerId = "91AB5BCA-6A50-42DA-B2F7-8181BF189245";
shapes = (
{
closed = 1;
nodes = (
(627,386,l),
(627,381,o),
(626,380,o),
(621,380,c),
(86,380,ls),
(78,380,o),
(78,375,o),
(78,369,c),
(78,174,o),
(144,-10,o),
(379,-10,c),
(608,-10,o),
(679,180,o),
(679,366,c),
(679,531,o),
(629,752,o),
(379,752,c),
(151,752,o),
(107,560,o),
(92,522,c),
(90,517,o),
(89,514,o),
(93,513,c),
(131,500,ls),
(135,499,o),
(137,498,o),
(138,500,c),
(152,531,o),
(170,709,o),
(379,709,c),
(597,709,o),
(627,504,o),
(627,386,c)
);
},
{
closed = 1;
nodes = (
(627,338,l),
(624,191,o),
(575,33,o),
(379,33,c),
(182,33,o),
(130,192,o),
(130,332,c),
(130,336,o),
(132,338,o),
(138,338,c)
);
}
);
width = 757;
},
{
background = {
shapes = (
{
closed = 1;
nodes = (
(507,447,l),
(507,431,o),
(500,425,o),
(487,425,c),
(54,425,ls),
(32,425,o),
(31,414,o),
(31,392,c),
(31,136,o),
(152,-10,o),
(385,-10,c),
(578,-10,o),
(747,158,o),
(747,380,c),
(747,599,o),
(610,752,o),
(388,752,c),
(242,752,o),
(136,689,o),
(74,567,c),
(66,551,o),
(67,542,o),
(79,536,c),
(217,468,ls),
(234,459,o),
(240,462,o),
(244,469,c),
(290,544,o),
(328,578,o),
(390,578,c),
(488,578,o),
(507,506,o),
(507,447,c)
);
},
{
closed = 1;
nodes = (
(505,284,l),
(493,192,o),
(464,146,o),
(383,146,c),
(315,146,o),
(274,201,o),
(274,267,c),
(274,282,o),
(279,285,o),
(296,285,c)
);
}
);
};
layerId = "258ED206-D907-4350-8EBA-CBDDA1C16BF7";
shapes = (
{
closed = 1;
nodes = (
(507,447,l),
(507,431,o),
(500,425,o),
(487,425,c),
(54,425,ls),
(32,425,o),
(31,414,o),
(31,392,c),
(31,136,o),
(152,-10,o),
(385,-10,c),
(578,-10,o),
(747,158,o),
(747,380,c),
(747,599,o),
(610,752,o),
(388,752,c),
(242,752,o),
(136,689,o),
(74,567,c),
(66,551,o),
(67,542,o),
(79,536,c),
(217,468,ls),
(234,459,o),
(240,462,o),
(244,469,c),
(290,544,o),
(328,578,o),
(390,578,c),
(488,578,o),
(507,506,o),
(507,447,c)
);
},
{
closed = 1;
nodes = (
(505,285,l),
(493,193,o),
(464,146,o),
(383,146,c),
(315,146,o),
(274,201,o),
(274,267,c),
(274,282,o),
(279,285,o),
(296,285,c)
);
}
);
width = 778;
}
);
metricLeft = O;
metricRight = O;
unicode = 399;
},
{
glyphname = F;
kernLeft = H;
kernRight = F;
lastChange = "2025-08-29 20:44:13 +0000";
layers = (
{
background = {
shapes = (
{
closed = 1;
nodes = (
(114,732,l),
(114,10,ls),
(114,2,o),
(116,0,o),
(123,0,c),
(153,0,ls),
(158,0,o),
(160,2,o),
(160,7,c),
(160,333,ls),
(160,341,o),
(162,342,o),
(169,342,c),
(467,342,ls),
(473,342,o),
(475,343,o),
(475,349,c),
(475,375,ls),
(475,380,o),
(473,382,o),
(468,382,c),
(169,382,ls),
(162,382,o),
(160,383,o),
(160,389,c),
(160,693,ls),
(160,701,o),
(162,702,o),
(169,702,c),
(527,702,ls),
(533,702,o),
(535,703,o),
(535,709,c),
(535,735,ls),
(535,740,o),
(533,742,o),
(528,742,c),
(123,742,ls),
(116,742,o),
(114,740,o),
(114,732,c)
);
}
);
};
layerId = "91AB5BCA-6A50-42DA-B2F7-8181BF189245";
shapes = (
{
closed = 1;
nodes = (
(114,732,l),
(114,10,ls),
(114,2,o),
(116,0,o),
(123,0,c),
(153,0,ls),
(158,0,o),
(160,2,o),
(160,7,c),
(160,333,ls),
(160,341,o),
(162,342,o),
(169,342,c),
(467,342,ls),
(473,342,o),
(475,343,o),
(475,349,c),
(475,375,ls),
(475,380,o),
(473,382,o),
(468,382,c),
(169,382,ls),
(162,382,o),
(160,383,o),
(160,389,c),
(160,693,ls),
(160,701,o),
(162,702,o),
(169,702,c),
(527,702,ls),
(533,702,o),
(535,703,o),
(535,709,c),
(535,735,ls),
(535,740,o),
(533,742,o),
(528,742,c),
(123,742,ls),
(116,742,o),
(114,740,o),
(114,732,c)
);
}
);
width = 583;
},
{
background = {
shapes = (
{
closed = 1;
nodes = (
(52,719,l),
(52,25,ls),
(52,8,o),
(58,0,o),
(79,0,c),
(246,0,ls),
(269,0,o),
(279,8,o),
(279,29,c),
(279,271,ls),
(279,280,o),
(285,286,o),
(295,286,c),
(482,286,ls),
(496,286,o),
(500,293,o),
(500,303,c),
(500,425,ls),
(500,438,o),
(494,445,o),
(480,445,c),
(297,445,ls),
(286,445,o),
(279,451,o),
(279,465,c),
(279,559,ls),
(279,572,o),
(286,578,o),
(302,578,c),
(596,578,ls),
(614,578,o),
(621,589,o),
(621,605,c),
(622,721,ls),
(622,734,o),
(616,742,o),
(604,742,c),
(71,742,ls),
(60,742,o),
(52,734,o),
(52,719,c)
);
}
);
};
layerId = "258ED206-D907-4350-8EBA-CBDDA1C16BF7";
shapes = (
{
closed = 1;
nodes = (
(52,719,l),
(52,25,ls),
(52,8,o),
(58,0,o),
(79,0,c),
(246,0,ls),
(269,0,o),
(279,8,o),
(279,29,c),
(279,271,ls),
(279,280,o),
(285,286,o),
(295,286,c),
(482,286,ls),
(496,286,o),
(500,293,o),
(500,303,c),
(500,425,ls),
(500,438,o),
(494,445,o),
(480,445,c),
(297,445,ls),
(286,445,o),
(279,451,o),
(279,465,c),
(279,559,ls),
(279,572,o),
(286,578,o),
(302,578,c),
(597,578,ls),
(615,578,o),
(622,589,o),
(622,605,c),
(622,721,ls),
(622,734,o),
(616,742,o),
(604,742,c),
(71,742,ls),
(60,742,o),
(52,734,o),
(52,719,c)
);
}
);
width = 650;
}
);
unicode = 70;
},
{
glyphname = G;
kernLeft = O;
kernRight = G;
lastChange = "2025-08-29 20:44:13 +0000";
layers = (
{
anchors = (
{
name = bottom;
pos = (379,0);
},
{
name = top;
pos = (374,742);
}
);
background = {
anchors = (
{
name = bottom;
pos = (379,0);
},
{
name = top;
pos = (374,742);
}
);
shapes = (
{
closed = 1;
nodes = (
(373,-10,l),
(484,-10,o),
(557,45,o),
(596,115,c),
(600,122,o),
(604,121,o),
(604,115,c),
(604,9,ls),
(604,0,o),
(609,0,o),
(617,0,c),
(634,0,ls),
(641,0,o),
(644,2,o),
(644,11,c),
(644,371,ls),
(644,375,o),
(642,377,o),
(638,377,c),
(402,377,ls),
(399,377,o),
(397,375,o),
(397,371,c),
(397,348,ls),
(397,344,o),
(399,342,o),
(404,342,c),
(593,342,ls),
(599,342,o),
(604,341,o),
(604,334,c),
(604,255,ls),
(604,161,o),
(532,32,o),
(374,32,c),
(211,32,o),
(126,153,o),
(126,374,c),
(126,584,o),
(213,710,o),
(374,710,c),
(480,710,o),
(565,640,o),
(581,551,c),
(582,546,o),
(585,544,o),
(588,545,c),
(623,551,ls),
(628,552,o),
(628,555,o),
(628,559,c),
(616,663,o),
(497,752,o),
(374,752,c),
(193,752,o),
(78,614,o),
(78,368,c),
(78,129,o),
(188,-10,o),
(373,-10,c)
);
}
);
};
layerId = "91AB5BCA-6A50-42DA-B2F7-8181BF189245";
shapes = (
{
closed = 1;
nodes = (
(373,-10,l),
(484,-10,o),
(557,45,o),
(596,115,c),
(600,122,o),
(604,121,o),
(604,115,c),
(604,9,ls),
(604,0,o),
(609,0,o),
(617,0,c),
(634,0,ls),
(641,0,o),
(644,2,o),
(644,11,c),
(644,371,ls),
(644,375,o),
(642,377,o),
(638,377,c),
(402,377,ls),
(399,377,o),
(397,375,o),
(397,371,c),
(397,348,ls),
(397,344,o),
(399,342,o),
(404,342,c),
(593,342,ls),
(599,342,o),
(604,341,o),
(604,334,c),
(604,255,ls),
(604,161,o),
(532,32,o),
(374,32,c),
(211,32,o),
(126,153,o),
(126,374,c),
(126,584,o),
(213,710,o),
(374,710,c),
(480,710,o),
(565,640,o),
(581,551,c),
(582,546,o),
(585,544,o),
(588,545,c),
(623,551,ls),
(628,552,o),
(628,555,o),
(628,559,c),
(616,663,o),
(497,752,o),
(374,752,c),
(193,752,o),
(78,614,o),
(78,368,c),
(78,129,o),
(188,-10,o),
(373,-10,c)
);
}
);
width = 730;
},
{
anchors = (
{
name = bottom;
pos = (382,0);
},
{
name = top;
pos = (382,742);
}
);
background = {
anchors = (
{
name = bottom;
pos = (382,0);
},
{
name = top;
pos = (382,742);
}
);
shapes = (
{
closed = 1;
nodes = (
(380,-10,l),
(498,-10,o),
(549,40,o),
(585,75,c),
(590,81,o),
(593,81,o),
(596,77,c),
(636,19,ls),
(646,5,o),
(656,0,o),
(668,0,c),
(706,0,ls),
(716,0,o),
(723,8,o),
(723,17,c),
(723,344,ls),
(723,362,o),
(710,375,o),
(685,375,c),
(405,377,ls),
(390,377,o),
(384,370,o),
(384,360,c),
(384,264,ls),
(384,247,o),
(390,242,o),
(404,242,c),
(498,242,ls),
(508,242,o),
(511,236,o),
(507,225,c),
(504,216,l),
(486,170,o),
(452,146,o),
(396,146,c),
(320,146,o),
(268,193,o),
(268,374,c),
(268,544,o),
(314,597,o),
(388,597,c),
(460,597,o),
(495,547,o),
(505,492,c),
(508,479,o),
(509,472,o),
(525,472,c),
(696,498,ls),
(712,500,o),
(716,505,o),
(710,533,c),
(686,640,o),
(573,752,o),
(393,752,c),
(179,752,o),
(30,599,o),
(30,368,c),
(30,145,o),
(169,-10,o),
(380,-10,c)
);
}
);
};
layerId = "258ED206-D907-4350-8EBA-CBDDA1C16BF7";
shapes = (
{
closed = 1;
nodes = (
(380,-10,l),
(498,-10,o),
(549,40,o),
(585,75,c),
(590,81,o),
(593,81,o),
(596,77,c),
(636,19,ls),
(646,5,o),
(656,0,o),
(668,0,c),
(706,0,ls),
(716,0,o),
(723,8,o),
(723,17,c),
(723,346,ls),
(723,364,o),
(710,377,o),
(685,377,c),
(405,377,ls),
(390,377,o),
(384,370,o),
(384,360,c),
(384,264,ls),
(384,247,o),
(390,242,o),
(404,242,c),
(498,242,ls),
(508,242,o),
(511,236,o),
(507,225,c),
(504,216,l),
(486,170,o),
(452,146,o),
(396,146,c),
(320,146,o),
(268,193,o),
(268,374,c),
(268,544,o),
(314,597,o),
(388,597,c),
(460,597,o),
(495,547,o),
(505,492,c),
(508,479,o),
(509,472,o),
(525,472,c),
(696,498,ls),
(712,500,o),
(716,505,o),
(710,533,c),
(686,640,o),
(573,752,o),
(393,752,c),
(179,752,o),
(30,599,o),
(30,368,c),
(30,145,o),
(169,-10,o),
(380,-10,c)
);
}
);
width = 761;
}
);
unicode = 71;
},
{
glyphname = Gacute;
kernLeft = O;
lastChange = "2025-08-29 20:44:13 +0000";
layers = (
{
layerId = "91AB5BCA-6A50-42DA-B2F7-8181BF189245";
shapes = (
{
ref = G;
},
{
pos = (238,212);
ref = acutecomb;
}
);
width = 730;
},
{
background = {
shapes = (
{
closed = 1;
nodes = (
(132,57,o),
(74,172,cs,{
name = inserted;
}),
(45,228,o,{
name = inserted;
}),
(30,294,o),
(30,368,c),
(30,521,o),
(94,640,o),
(205,704,cs,{
name = inserted;
}),
(260,736,o,{
name = inserted;
}),
(322,752,o),
(393,752,c),
(508,752,o),
(600,706,o),
(656,639,cs,{
name = inserted;
}),
(683,606,o,{
name = inserted;
}),
(702,571,o),
(710,533,c),
(713,525,o,{
name = inserted;
}),
(713,519,o),
(713,514,c),
(713,502,o),
(708,499,o),
(696,498,c),
(525,472,l),
(510,472,o),
(509,476,o),
(505,492,c),
(494,554,o),
(455,597,o),
(388,597,c),
(309,597,o),
(268,537,o),
(268,374,c),
(268,202,o),
(313,146,o),
(396,146,c),
(451,146,o,{
name = inserted;
}),
(487,169,o),
(504,216,c),
(507,225,l),
(509,233,l),
(509,240,o,{
name = inserted;
}),
(506,242,o),
(498,242,c),
(404,242,l),
(389,242,o),
(384,248,o),
(384,264,c),
(384,360,l),
(384,372,o,{
name = inserted;
}),
(392,377,o),
(405,377,c),
(685,375,l),
(709,375,o),
(723,363,o),
(723,344,c),
(723,17,l),
(723,8,o),
(715,0,o),
(706,0,c),
(668,0,l),
(656,0,o,{
name = inserted;
}),
(645,7,o),
(636,19,c),
(596,77,l),
(596,80,o,{
name = inserted;
}),
(595,80,o),
(592,80,c),
(591,80,o,{
name = inserted;
}),
(589,79,o),
(585,75,c),
(550,42,o),
(525,20,o),
(473,3,cs,{
name = inserted;
}),
(448,-5,o,{
name = inserted;
}),
(416,-10,o),
(380,-10,c),
(241,-10,o)
);
},
{
closed = 1;
nodes = (
(531,867,o,{
name = inserted;
}),
(532,864,o),
(532,859,c),
(532,850,o,{
name = inserted;
}),
(526,842,o),
(511,838,c),
(278,782,l),
(271,781,o,{
name = inserted;
}),
(268,780,o),
(267,780,c),
(259,780,o,{
name = inserted;
}),
(253,786,o),
(249,795,c),
(234,838,l),
(233,843,o,{
name = inserted;
}),
(232,847,o),
(232,848,c),
(232,855,o,{
name = inserted;
}),
(235,859,o),
(242,862,c),
(480,963,l),
(481,964,o,{
name = inserted;
}),
(483,964,o),
(486,964,c),
(493,964,o,{
name = inserted;
}),
(498,960,o),
(501,951,c),
(530,870,l)
);
}
);
};
layerId = "258ED206-D907-4350-8EBA-CBDDA1C16BF7";
shapes = (
{
ref = G;
},
{
pos = (222,212);
ref = acutecomb;
}
);
width = 761;
}
);
unicode = 500;
},
{
glyphname = H;
kernLeft = H;
lastChange = "2025-08-29 20:44:13 +0000";
layers = (
{
anchors = (
{
name = bottom;
pos = (363,0);
},
{
name = top;
pos = (363,742);
}
);
background = {
anchors = (
{
name = bottom;
pos = (363,0);
},
{
name = top;
pos = (363,742);
}
);
shapes = (
{
closed = 1;
nodes = (
(558,366,l),
(563,366,o),
(565,364,o),
(565,359,c),
(565,9,ls),
(565,2,o),
(568,0,o),
(575,0,c),
(602,0,ls),
(608,0,o),
(611,3,o),
(611,10,c),
(611,732,ls),
(611,740,o),
(609,742,o),
(602,742,c),
(573,742,ls),
(567,742,o),
(565,739,o),
(565,733,c),
(565,414,ls),
(565,408,o),
(563,406,o),
(557,406,c),
(169,406,ls),
(162,406,o),
(160,407,o),
(160,415,c),
(160,732,ls),
(160,740,o),
(158,742,o),
(151,742,c),
(123,742,ls),
(116,742,o),
(114,740,o),
(114,732,c),
(114,10,ls),
(114,3,o),
(116,0,o),
(123,0,c),
(150,0,ls),
(157,0,o),
(160,3,o),
(160,9,c),
(160,360,ls),
(160,363,o),
(162,366,o),
(166,366,c)
);
}
);
};
layerId = "91AB5BCA-6A50-42DA-B2F7-8181BF189245";
shapes = (
{
closed = 1;
nodes = (
(558,366,l),
(563,366,o),
(565,364,o),
(565,359,c),
(565,9,ls),
(565,2,o),
(568,0,o),
(575,0,c),
(602,0,ls),
(608,0,o),
(611,3,o),
(611,10,c),
(611,732,ls),
(611,740,o),
(609,742,o),
(602,742,c),
(573,742,ls),
(567,742,o),
(565,739,o),
(565,733,c),
(565,414,ls),
(565,408,o),
(563,406,o),
(557,406,c),
(169,406,ls),
(162,406,o),
(160,407,o),
(160,415,c),
(160,732,ls),
(160,740,o),
(158,742,o),
(151,742,c),
(123,742,ls),
(116,742,o),
(114,740,o),
(114,732,c),
(114,10,ls),
(114,3,o),
(116,0,o),
(123,0,c),
(150,0,ls),
(157,0,o),
(160,3,o),
(160,9,c),
(160,360,ls),
(160,363,o),
(162,366,o),
(166,366,c)
);
}
);
width = 725;
},
{
anchors = (
{
name = bottom;
pos = (378,0);
},
{
name = top;
pos = (380,742);
}
);
background = {
anchors = (
{
name = bottom;
pos = (378,0);
},
{
name = top;
pos = (380,742);
}
);
shapes = (
{
closed = 1;
nodes = (
(467,297,l),
(477,297,o),
(483,290,o),
(483,282,c),
(483,29,ls),
(483,8,o),
(493,0,o),
(516,0,c),
(683,0,ls),
(704,0,o),
(710,8,o),
(710,25,c),
(710,719,ls),
(710,734,o),
(702,742,o),
(691,742,c),
(501,742,ls),
(490,742,o),
(483,734,o),
(483,721,c),
(483,489,ls),
(483,476,o),
(476,469,o),
(465,469,c),
(297,469,ls),
(286,469,o),
(279,476,o),
(279,489,c),
(279,721,ls),
(279,734,o),
(272,742,o),
(261,742,c),
(71,742,ls),
(60,742,o),
(52,734,o),
(52,719,c),
(52,25,ls),
(52,8,o),
(58,0,o),
(79,0,c),
(246,0,ls),
(269,0,o),
(279,8,o),
(279,29,c),
(279,282,ls),
(279,290,o),
(285,297,o),
(295,297,c)
);
}
);
};
layerId = "258ED206-D907-4350-8EBA-CBDDA1C16BF7";
shapes = (
{
closed = 1;
nodes = (
(467,297,l),
(477,297,o),
(483,290,o),
(483,282,c),
(483,29,ls),
(483,8,o),
(493,0,o),
(516,0,c),
(683,0,ls),
(704,0,o),
(710,8,o),
(710,25,c),
(710,719,ls),
(710,734,o),
(702,742,o),
(691,742,c),
(501,742,ls),
(490,742,o),
(483,734,o),
(483,721,c),
(483,489,ls),
(483,476,o),
(476,469,o),
(465,469,c),
(297,469,ls),
(286,469,o),
(279,476,o),
(279,489,c),
(279,721,ls),
(279,734,o),
(272,742,o),
(261,742,c),
(71,742,ls),
(60,742,o),
(52,734,o),
(52,719,c),
(52,25,ls),
(52,8,o),
(58,0,o),
(79,0,c),
(246,0,ls),
(269,0,o),
(279,8,o),
(279,29,c),
(279,282,ls),
(279,290,o),
(285,297,o),
(295,297,c)
);
}
);
width = 762;
}
);
unicode = 72;
},
{
glyphname = Hbar;
kernLeft = H;
lastChange = "2025-08-29 20:44:13 +0000";
layers = (
{
background = {
anchors = (
{
name = bottom;
pos = (362,0);
},
{
name = top;
pos = (362,742);
}
);
shapes = (
{
closed = 1;
nodes = (
(702,610,l),
(702,615,o),
(700,618,o),
(695,618,c),
(12,618,ls),
(7,618,o),
(5,615,o),
(5,609,c),
(5,588,ls),
(5,581,o),
(7,578,o),
(15,578,c),
(689,578,ls),
(698,578,o),
(702,581,o),
(702,589,c)
);
},
{
closed = 1;
nodes = (
(557,366,l),
(562,366,o),
(564,364,o),
(564,359,c),
(564,9,ls),
(564,2,o),
(567,0,o),
(574,0,c),
(601,0,ls),
(607,0,o),
(610,3,o),
(610,10,c),
(610,732,ls),
(610,740,o),
(608,742,o),
(601,742,c),
(572,742,ls),
(566,742,o),
(564,739,o),
(564,733,c),
(564,414,ls),
(564,408,o),
(562,406,o),
(556,406,c),
(168,406,ls),
(161,406,o),
(159,407,o),
(159,415,c),
(159,732,ls),
(159,740,o),
(157,742,o),
(150,742,c),
(122,742,ls),
(115,742,o),
(113,740,o),
(113,732,c),
(113,10,ls),
(113,3,o),
(115,0,o),
(122,0,c),
(149,0,ls),
(156,0,o),
(159,3,o),
(159,9,c),
(159,360,ls),
(159,363,o),
(161,366,o),
(165,366,c)
);
}
);
};
layerId = "91AB5BCA-6A50-42DA-B2F7-8181BF189245";
shapes = (
{
closed = 1;
nodes = (
(702,610,l),
(702,615,o),
(700,618,o),
(695,618,c),
(12,618,ls),
(7,618,o),
(5,615,o),
(5,609,c),
(5,588,ls),
(5,581,o),
(7,578,o),
(15,578,c),
(689,578,ls),
(698,578,o),
(702,581,o),
(702,589,c)
);
},
{
pos = (-1,0);
ref = H;
}
);
width = 707;
},
{
background = {
anchors = (
{
name = bottom;
pos = (403,0);
},
{
name = top;
pos = (405,742);
}
);
shapes = (
{
closed = 1;
nodes = (
(799,640,l),
(799,651,o),
(793,658,o),
(783,658,c),
(16,658,ls),
(6,658,o),
(0,651,o),
(0,638,c),
(0,577,ls),
(0,562,o),
(5,555,o),
(22,555,c),
(770,555,ls),
(790,555,o),
(799,562,o),
(799,579,c)
);
},
{
closed = 1;
nodes = (
(492,297,l),
(502,297,o),
(508,290,o),
(508,282,c),
(508,29,ls),
(508,8,o),
(518,0,o),
(541,0,c),
(708,0,ls),
(729,0,o),
(735,8,o),
(735,25,c),
(735,719,ls),
(735,734,o),
(727,742,o),
(716,742,c),
(526,742,ls),
(515,742,o),
(508,734,o),
(508,721,c),
(508,489,ls),
(508,476,o),
(501,469,o),
(490,469,c),
(322,469,ls),
(311,469,o),
(304,476,o),
(304,489,c),
(304,721,ls),
(304,734,o),
(297,742,o),
(286,742,c),
(96,742,ls),
(85,742,o),
(77,734,o),
(77,719,c),
(77,25,ls),
(77,8,o),
(83,0,o),
(104,0,c),
(271,0,ls),
(294,0,o),
(304,8,o),
(304,29,c),
(304,282,ls),
(304,290,o),
(310,297,o),
(320,297,c)
);
}
);
};
layerId = "258ED206-D907-4350-8EBA-CBDDA1C16BF7";
shapes = (
{
closed = 1;
nodes = (
(799,640,l),
(799,651,o),
(793,658,o),
(783,658,c),
(16,658,ls),
(6,658,o),
(0,651,o),
(0,638,c),
(0,577,ls),
(0,562,o),
(5,555,o),
(22,555,c),
(770,555,ls),
(790,555,o),
(799,562,o),
(799,579,c)
);
},
{
pos = (25,0);
ref = H;
}
);
width = 799;
}
);
unicode = 294;
},
{
glyphname = I;
kernLeft = H;
lastChange = "2025-08-29 20:44:13 +0000";
layers = (
{
anchors = (
{
name = bottom;
pos = (137,0);
},
{
name = ogonek;
pos = (149,10);
},
{
name = top;
pos = (140,742);
}
);
background = {
anchors = (
{
name = bottom;
pos = (137,0);
},
{
name = ogonek;
pos = (149,10);
},
{
name = top;
pos = (140,742);
}
);
shapes = (
{
closed = 1;
nodes = (
(123,742,l),
(116,742,o),
(114,740,o),
(114,732,c),
(114,10,ls),
(114,2,o),
(116,0,o),
(125,0,c),
(148,0,ls),
(158,0,o),
(160,2,o),
(160,12,c),
(160,732,ls),
(160,740,o),
(158,742,o),
(151,742,c)
);
}
);
};
layerId = "91AB5BCA-6A50-42DA-B2F7-8181BF189245";
shapes = (
{
closed = 1;
nodes = (
(123,742,l),
(116,742,o),
(114,740,o),
(114,732,c),
(114,10,ls),
(114,2,o),
(116,0,o),
(125,0,c),
(148,0,ls),
(158,0,o),
(160,2,o),
(160,12,c),
(160,732,ls),
(160,740,o),
(158,742,o),
(151,742,c)
);
}
);
width = 274;
},
{
anchors = (
{
name = bottom;
pos = (165,0);
},
{
name = ogonek;
pos = (247,10);
},
{
name = top;
pos = (166,742);
}
);
background = {
anchors = (
{
name = bottom;
pos = (165,0);
},
{
name = ogonek;
pos = (247,10);
},
{
name = top;
pos = (166,742);
}
);
shapes = (
{
closed = 1;
nodes = (
(71,742,l),
(60,742,o),
(52,734,o),
(52,719,c),
(52,25,ls),
(52,8,o),
(58,0,o),
(79,0,c),
(246,0,ls),
(269,0,o),
(279,8,o),
(279,29,c),
(279,721,ls),
(279,734,o),
(273,742,o),
(261,742,c)
);
}
);
};
layerId = "258ED206-D907-4350-8EBA-CBDDA1C16BF7";
shapes = (
{
closed = 1;
nodes = (
(71,742,l),
(60,742,o),
(52,734,o),
(52,719,c),
(52,25,ls),
(52,8,o),
(58,0,o),
(79,0,c),
(246,0,ls),
(269,0,o),
(279,8,o),
(279,29,c),
(279,721,ls),
(279,734,o),
(273,742,o),
(261,742,c)
);
}
);
width = 331;
}
);
unicode = 73;
},
{
glyphname = J;
kernLeft = J;
kernRight = J;
lastChange = "2025-08-29 20:44:13 +0000";
layers = (
{
anchors = (
{
name = top;
pos = (266,742);
}
);
background = {
anchors = (
{
name = top;
pos = (266,742);
}
);
shapes = (
{
closed = 1;
nodes = (
(289,144,l),
(289,732,ls),
(289,739,o),
(287,742,o),
(281,742,c),
(251,742,ls),
(245,742,o),
(243,739,o),
(243,733,c),
(243,154,ls),
(243,61,o),
(221,34,o),
(156,34,c),
(107,34,o),
(85,49,o),
(64,59,c),
(60,61,o),
(57,60,o),
(56,55,c),
(47,24,ls),
(46,20,o),
(48,17,o),
(51,15,c),
(58,10,o),
(103,-10,o),
(158,-10,c),
(255,-10,o),
(289,49,o),
(289,144,c)
);
}
);
};
layerId = "91AB5BCA-6A50-42DA-B2F7-8181BF189245";
shapes = (
{
closed = 1;
nodes = (
(289,144,l),
(289,732,ls),
(289,739,o),
(287,742,o),
(281,742,c),
(251,742,ls),
(245,742,o),
(243,739,o),
(243,733,c),
(243,154,ls),
(243,61,o),
(221,34,o),
(156,34,c),
(107,34,o),
(85,49,o),
(64,59,c),
(60,61,o),
(57,60,o),
(56,55,c),
(47,24,ls),
(46,20,o),
(48,17,o),
(51,15,c),
(58,10,o),
(103,-10,o),
(158,-10,c),
(255,-10,o),
(289,49,o),
(289,144,c)
);
}
);
width = 399;
},
{
anchors = (
{
name = top;
pos = (243,742);
}
);
background = {
anchors = (
{
name = top;
pos = (243,742);
}
);
shapes = (
{
closed = 1;
nodes = (
(420,212,l),
(420,721,ls),
(420,734,o),
(414,742,o),
(402,742,c),
(213,742,ls),
(201,742,o),
(193,734,o),
(193,719,c),
(193,268,ls),
(193,200,o),
(164,175,o),
(115,175,c),
(93,175,o),
(76,180,o),
(60,182,c),
(44,184,o),
(37,174,o),
(36,159,c),
(27,45,ls),
(25,17,o),
(35,6,o),
(58,2,c),
(103,-6,o),
(141,-10,o),
(182,-10,c),
(338,-10,o),
(420,48,o),
(420,212,c)
);
}
);
};
layerId = "258ED206-D907-4350-8EBA-CBDDA1C16BF7";
shapes = (
{
closed = 1;
nodes = (
(420,212,l),
(420,721,ls),
(420,734,o),
(414,742,o),
(402,742,c),
(213,742,ls),
(201,742,o),
(193,734,o),
(193,719,c),
(193,268,ls),
(193,200,o),
(164,175,o),
(115,175,c),
(93,175,o),
(76,180,o),
(60,182,c),
(44,184,o),
(37,174,o),
(36,159,c),
(27,45,ls),
(25,17,o),
(35,6,o),
(58,2,c),
(103,-6,o),
(141,-10,o),
(182,-10,c),
(338,-10,o),
(420,48,o),
(420,212,c)
);
}
);
width = 467;
}
);
unicode = 74;
},
{
glyphname = Jcircumflex;
kernLeft = J;
kernRight = J;
lastChange = "2025-08-29 20:44:13 +0000";
layers = (
{
background = {
anchors = (
{
name = top;
pos = (265,876);
},
{
name = topviet;
pos = (354,927);
}
);
shapes = (
{
closed = 1;
nodes = (
(289,144,l),
(289,732,ls),
(289,739,o),
(287,742,o),
(281,742,c),
(251,742,ls),
(245,742,o),
(243,739,o),
(243,733,c),
(243,154,ls),
(243,61,o),
(221,34,o),
(156,34,c),
(107,34,o),
(85,49,o),
(64,59,c),
(60,61,o),
(57,60,o),
(56,55,c),
(47,24,ls),
(46,20,o),
(48,17,o),
(51,15,c),
(58,10,o),
(103,-10,o),
(158,-10,c),
(255,-10,o),
(289,49,o),
(289,144,c)
);
},
{
closed = 1;
nodes = (
(339,858,o),
(343,856,o),
(349,856,cs),
(390,856,ls),
(398,856,o),
(398,860,o),
(391,866,cs),
(293,946,ls),
(289,949,o),
(285,954,o),
(277,954,cs),
(259,954,ls),
(250,954,o),
(245,950,o),
(239,945,cs),
(140,866,ls),
(134,861,o),
(135,856,o),
(142,856,cs),
(179,856,ls),
(186,856,o),
(187,857,o),
(194,862,cs),
(256,910,ls),
(267,918,o),
(265,918,o),
(275,910,cs),
(334,862,ls)
);
}
);
};
layerId = "91AB5BCA-6A50-42DA-B2F7-8181BF189245";
shapes = (
{
ref = J;
},
{
pos = (126,212);
ref = circumflexcomb;
}
);
width = 399;
},
{
background = {
anchors = (
{
name = top;
pos = (725,929);
},
{
name = topviet;
pos = (873,911);
}
);
shapes = (
{
closed = 1;
nodes = (
(420,212,l),
(420,721,ls),
(420,734,o),
(414,742,o),
(402,742,c),
(213,742,ls),
(201,742,o),
(193,734,o),
(193,719,c),
(193,268,ls),
(193,200,o),
(164,175,o),
(115,175,c),
(93,175,o),
(76,180,o),
(60,182,c),
(44,184,o),
(37,174,o),
(36,159,c),
(27,45,ls),
(25,17,o),
(35,6,o),
(58,2,c),
(103,-6,o),
(141,-10,o),
(182,-10,c),
(338,-10,o),
(420,48,o),
(420,212,c)
);
},
{
closed = 1;
nodes = (
(789,807,o),
(797,807,o),
(809,807,cs),
(914,807,ls),
(928,807,o),
(927,813,o),
(916,825,cs),
(805,951,ls),
(798,958,o),
(791,964,o),
(777,964,cs),
(682,964,ls),
(663,964,o),
(654,959,o),
(645,949,cs),
(533,825,ls),
(523,814,o),
(524,807,o),
(536,807,cs),
(635,807,ls),
(648,807,o),
(652,806,o),
(661,816,cs),
(707,870,ls),
(724,889,o),
(727,888,o),
(741,870,cs),
(782,816,ls)
);
}
);
};
layerId = "258ED206-D907-4350-8EBA-CBDDA1C16BF7";
shapes = (
{
ref = J;
},
{
pos = (33,212);
ref = circumflexcomb;
}
);
width = 467;
}
);
unicode = 308;
},
{
glyphname = K;
kernLeft = H;
kernRight = K;
lastChange = "2025-08-29 20:44:13 +0000";
layers = (
{
anchors = (
{
name = bottom;
pos = (343,0);
},
{
name = top;
pos = (373,742);
}
);
background = {
anchors = (
{
name = bottom;
pos = (343,0);
},
{
name = top;
pos = (373,742);
}
);
shapes = (
{
closed = 1;
nodes = (
(623,7,l),
(343,445,ls),
(341,449,o),
(341,449,o),
(343,451,c),
(602,734,ls),
(606,738,o),
(605,742,o),
(599,742,c),
(561,742,ls),
(555,742,o),
(553,741,o),
(550,738,c),
(167,322,ls),
(162,317,o),
(160,317,o),
(160,323,c),
(160,734,ls),
(160,740,o),
(157,742,o),
(152,742,c),
(122,742,ls),
(116,742,o),
(114,739,o),
(114,734,c),
(114,9,ls),
(114,2,o),
(117,0,o),
(124,0,c),
(150,0,ls),
(157,0,o),
(160,3,o),
(160,9,c),
(160,246,ls),
(160,254,o),
(162,257,o),
(168,263,c),
(300,409,ls),
(305,414,o),
(308,415,o),
(312,409,c),
(570,5,ls),
(572,2,o),
(576,0,o),
(581,0,c),
(620,0,ls),
(624,0,o),
(626,3,o),
(623,7,c)
);
}
);
};
layerId = "91AB5BCA-6A50-42DA-B2F7-8181BF189245";
shapes = (
{
closed = 1;
nodes = (
(623,7,l),
(343,445,ls),
(341,449,o),
(341,449,o),
(343,451,c),
(602,734,ls),
(606,738,o),
(605,742,o),
(599,742,c),
(561,742,ls),
(555,742,o),
(553,741,o),
(550,738,c),
(167,322,ls),
(162,317,o),
(160,317,o),
(160,323,c),
(160,734,ls),
(160,740,o),
(157,742,o),
(152,742,c),
(122,742,ls),
(116,742,o),
(114,739,o),
(114,734,c),
(114,9,ls),
(114,2,o),
(117,0,o),
(124,0,c),
(150,0,ls),
(157,0,o),
(160,3,o),
(160,9,c),
(160,246,ls),
(160,254,o),
(162,257,o),
(168,263,c),
(300,409,ls),
(305,414,o),
(308,415,o),
(312,409,c),
(570,5,ls),
(572,2,o),
(576,0,o),
(581,0,c),
(620,0,ls),
(624,0,o),
(626,3,o),
(623,7,c)
);
}
);
width = 674;
},
{
anchors = (
{
name = bottom;
pos = (371,0);
},
{
name = top;
pos = (371,742);
}
);
background = {
anchors = (
{
name = bottom;
pos = (371,0);
},
{
name = top;
pos = (371,742);
}
);
shapes = (
{
closed = 1;
nodes = (
(745,31,l),
(527,480,ls),
(521,494,o),
(522,501,o),
(530,512,c),
(694,713,ls),
(707,728,o),
(695,742,o),
(673,742,c),
(521,742,ls),
(497,742,o),
(489,736,o),
(478,721,c),
(294,463,l),
(286,453,o),
(279,452,o),
(279,468,c),
(279,721,ls),
(279,734,o),
(273,742,o),
(261,742,c),
(71,742,ls),
(60,742,o),
(52,734,o),
(52,719,c),
(52,25,ls),
(52,8,o),
(58,0,o),
(79,0,c),
(246,0,ls),
(269,0,o),
(279,8,o),
(279,29,c),
(279,180,ls),
(279,190,o),
(280,196,o),
(285,202,c),
(356,293,ls),
(366,306,o),
(372,308,o),
(378,298,c),
(500,20,ls),
(507,5,o),
(519,0,o),
(536,0,c),
(731,0,ls),
(751,0,o),
(753,15,o),
(745,31,c)
);
}
);
};
layerId = "258ED206-D907-4350-8EBA-CBDDA1C16BF7";
shapes = (
{
closed = 1;
nodes = (
(745,31,l),
(527,480,ls),
(521,494,o),
(522,501,o),
(530,512,c),
(694,713,ls),
(707,728,o),
(695,742,o),
(673,742,c),
(521,742,ls),
(497,742,o),
(489,736,o),
(478,721,c),
(294,463,l),
(286,453,o),
(279,452,o),
(279,468,c),
(279,721,ls),
(279,734,o),
(273,742,o),
(261,742,c),
(71,742,ls),
(60,742,o),
(52,734,o),
(52,719,c),
(52,25,ls),
(52,8,o),
(58,0,o),
(79,0,c),
(246,0,ls),
(269,0,o),
(279,8,o),
(279,29,c),
(279,180,ls),
(279,190,o),
(280,196,o),
(285,202,c),
(356,293,ls),
(366,306,o),
(372,308,o),
(378,298,c),
(500,20,ls),
(507,5,o),
(519,0,o),
(536,0,c),
(731,0,ls),
(751,0,o),
(753,15,o),
(745,31,c)
);
}
);
width = 772;
}
);
unicode = 75;
},
{
glyphname = Kcommaaccent;
kernLeft = H;
kernRight = K;
lastChange = "2025-08-29 20:44:13 +0000";
layers = (
{
background = {
anchors = (
{
name = bottom;
pos = (343,0);
},
{
name = top;
pos = (373,742);
}
);
shapes = (
{
closed = 1;
nodes = (
(623,7,l),
(343,445,ls),
(341,449,o),
(341,449,o),
(343,451,c),
(602,734,ls),
(606,738,o),
(605,742,o),
(599,742,c),
(561,742,ls),
(555,742,o),
(553,741,o),
(550,738,c),
(167,322,ls),
(162,317,o),
(160,317,o),
(160,323,c),
(160,734,ls),
(160,740,o),
(157,742,o),
(152,742,c),
(122,742,ls),
(116,742,o),
(114,739,o),
(114,734,c),
(114,9,ls),
(114,2,o),
(117,0,o),
(124,0,c),
(150,0,ls),
(157,0,o),
(160,3,o),
(160,9,c),
(160,246,ls),
(160,254,o),
(162,257,o),
(168,263,c),
(300,409,ls),
(305,414,o),
(308,415,o),
(312,409,c),
(570,5,ls),
(572,2,o),
(576,0,o),
(581,0,c),
(620,0,ls),
(624,0,o),
(626,3,o),
(623,7,c)
);
},
{
closed = 1;
nodes = (
(329,-236,ls),
(337,-236,o),
(340,-235,o),
(343,-230,cs),
(374,-171,ls),
(374,-170,o),
(375,-167,o),
(375,-165,cs),
(375,-89,ls),
(375,-84,o),
(373,-82,o),
(369,-82,cs),
(324,-82,ls),
(320,-82,o),
(317,-84,o),
(317,-90,cs),
(317,-156,ls),
(317,-163,o),
(319,-165,o),
(325,-165,cs),
(333,-165,ls),
(338,-165,o),
(340,-168,o),
(337,-174,cs),
(312,-228,ls),
(310,-232,o),
(312,-236,o),
(316,-236,cs)
);
}
);
};
layerId = "91AB5BCA-6A50-42DA-B2F7-8181BF189245";
shapes = (
{
ref = K;
},
{
pos = (301,0);
ref = commaaccentcomb;
}
);
width = 674;
},
{
background = {
anchors = (
{
name = bottom;
pos = (371,0);
},
{
name = top;
pos = (371,742);
}
);
shapes = (
{
closed = 1;
nodes = (
(745,31,l),
(527,480,ls),
(521,494,o),
(522,501,o),
(530,512,c),
(694,713,ls),
(707,728,o),
(695,742,o),
(673,742,c),
(521,742,ls),
(497,742,o),
(489,736,o),
(478,721,c),
(294,463,l),
(286,453,o),
(279,452,o),
(279,468,c),
(279,721,ls),
(279,734,o),
(273,742,o),
(261,742,c),
(71,742,ls),
(60,742,o),
(52,734,o),
(52,719,c),
(52,25,ls),
(52,8,o),
(58,0,o),
(79,0,c),
(246,0,ls),
(269,0,o),
(279,8,o),
(279,29,c),
(279,180,ls),
(279,190,o),
(280,196,o),
(285,202,c),
(356,293,ls),
(366,306,o),
(372,308,o),
(378,298,c),
(500,20,ls),
(507,5,o),
(519,0,o),
(536,0,c),
(731,0,ls),
(751,0,o),
(753,15,o),
(745,31,c)
);
},
{
closed = 1;
nodes = (
(514,-246,ls),
(532,-246,o),
(539,-243,o),
(547,-232,cs),
(601,-165,ls),
(602,-162,o),
(605,-157,o),
(605,-152,cs),
(605,-65,ls),
(605,-55,o),
(599,-49,o),
(588,-49,cs),
(494,-49,ls),
(484,-49,o),
(476,-55,o),
(476,-69,cs),
(476,-130,ls),
(476,-146,o),
(482,-152,o),
(499,-152,cs),
(508,-152,ls),
(522,-152,o),
(528,-167,o),
(517,-181,cs),
(484,-226,ls),
(478,-234,o),
(485,-246,o),
(496,-246,cs)
);
}
);
};
layerId = "258ED206-D907-4350-8EBA-CBDDA1C16BF7";
shapes = (
{
ref = K;
},
{
pos = (296,0);
ref = commaaccentcomb;
}
);
width = 772;
}
);
unicode = 310;
},
{
glyphname = L;
kernLeft = H;
kernRight = L;
lastChange = "2025-08-29 20:44:13 +0000";
layers = (
{
anchors = (
{
name = bottom;
pos = (319,0);
},
{
name = top;
pos = (237,742);
},
{
name = topright;
pos = (423,742);
}
);
background = {
anchors = (
{
name = bottom;
pos = (319,0);
},
{
name = top;
pos = (137,742);
},
{
name = topright;
pos = (423,742);
}
);
shapes = (
{
closed = 1;
nodes = (
(114,732,l),
(114,10,ls),
(114,3,o),
(116,0,o),
(123,0,c),
(533,0,l),
(538,0,o),
(540,2,o),
(540,7,c),
(540,33,ls),
(540,39,o),
(538,40,o),
(532,40,c),
(169,40,ls),
(162,40,o),
(160,41,o),
(160,49,c),
(160,732,ls),
(160,740,o),
(158,742,o),
(151,742,c),
(123,742,ls),
(116,742,o),
(114,740,o),
(114,732,c)
);
}
);
};
layerId = "91AB5BCA-6A50-42DA-B2F7-8181BF189245";
shapes = (
{
closed = 1;
nodes = (
(114,732,l),
(114,10,ls),
(114,3,o),
(116,0,o),
(123,0,c),
(533,0,l),
(538,0,o),
(540,2,o),
(540,7,c),
(540,33,ls),
(540,39,o),
(538,40,o),
(532,40,c),
(169,40,ls),
(162,40,o),
(160,41,o),
(160,49,c),
(160,732,ls),
(160,740,o),
(158,742,o),
(151,742,c),
(123,742,ls),
(116,742,o),
(114,740,o),
(114,732,c)
);
}
);
width = 587;
},
{
anchors = (
{
name = bottom;
pos = (314,0);
},
{
name = top;
pos = (168,742);
},
{
name = topright;
pos = (510,742);
}
);
background = {
anchors = (
{
name = bottom;
pos = (314,0);
},
{
name = top;
pos = (168,742);
},
{
name = topright;
pos = (510,742);
}
);
shapes = (
{
closed = 1;
nodes = (
(52,719,l),
(52,25,ls),
(52,8,o),
(58,0,o),
(79,0,c),
(590,0,ls),
(607,0,o),
(615,10,o),
(615,22,c),
(615,145,ls),
(615,159,o),
(606,164,o),
(592,164,c),
(291,164,ls),
(282,164,o),
(279,167,o),
(279,178,c),
(279,721,ls),
(279,734,o),
(273,742,o),
(261,742,c),
(71,742,ls),
(60,742,o),
(52,734,o),
(52,719,c)
);
}
);
};
layerId = "258ED206-D907-4350-8EBA-CBDDA1C16BF7";
shapes = (
{
closed = 1;
nodes = (
(52,719,l),
(52,25,ls),
(52,8,o),
(58,0,o),
(79,0,c),
(590,0,ls),
(607,0,o),
(615,10,o),
(615,22,c),
(615,145,ls),
(615,159,o),
(606,164,o),
(592,164,c),
(291,164,ls),
(282,164,o),
(279,167,o),
(279,178,c),
(279,721,ls),
(279,734,o),
(273,742,o),
(261,742,c),
(71,742,ls),
(60,742,o),
(52,734,o),
(52,719,c)
);
}
);
width = 643;
}
);
unicode = 76;
},
{
glyphname = Lacute;
kernLeft = H;
kernRight = L;
lastChange = "2025-08-29 20:44:13 +0000";
layers = (
{
background = {
anchors = (
{
name = bottom;
pos = (319,0);
},
{
name = top;
pos = (414,877);
},
{
name = topright;
pos = (423,742);
}
);
shapes = (
{
closed = 1;
nodes = (
(114,732,l),
(114,10,ls),
(114,3,o),
(116,0,o),
(123,0,c),
(533,0,l),
(538,0,o),
(540,2,o),
(540,7,c),
(540,33,ls),
(540,39,o),
(538,40,o),
(532,40,c),
(169,40,ls),
(162,40,o),
(160,41,o),
(160,49,c),
(160,732,ls),
(160,740,o),
(158,742,o),
(151,742,c),
(123,742,ls),
(116,742,o),
(114,740,o),
(114,732,c)
);
},
{
closed = 1;
nodes = (
(528,967,o),
(524,968,o),
(521,967,cs),
(292,876,ls),
(289,875,o),
(287,871,o),
(289,866,cs),
(294,851,ls),
(296,845,o),
(299,844,o),
(305,846,cs),
(532,920,ls),
(540,923,o),
(541,926,o),
(539,932,cs),
(529,964,ls)
);
}
);
};
layerId = "91AB5BCA-6A50-42DA-B2F7-8181BF189245";
shapes = (
{
ref = L;
},
{
pos = (101,212);
ref = acutecomb;
}
);
width = 587;
},
{
background = {
anchors = (
{
name = bottom;
pos = (314,0);
},
{
name = top;
pos = (482,931);
},
{
name = topright;
pos = (510,742);
}
);
shapes = (
{
closed = 1;
nodes = (
(52,719,l),
(52,25,ls),
(52,8,o),
(58,0,o),
(79,0,c),
(590,0,ls),
(607,0,o),
(615,10,o),
(615,22,c),
(615,145,ls),
(615,159,o),
(606,164,o),
(592,164,c),
(291,164,ls),
(282,164,o),
(279,167,o),
(279,178,c),
(279,721,ls),
(279,734,o),
(273,742,o),
(261,742,c),
(71,742,ls),
(60,742,o),
(52,734,o),
(52,719,c)
);
},
{
closed = 1;
nodes = (
(599,959,o),
(591,964,o),
(582,960,cs),
(342,862,ls),
(333,858,o),
(330,850,o),
(334,838,cs),
(349,795,ls),
(354,781,o),
(361,778,o),
(378,782,cs),
(611,838,ls),
(631,843,o),
(635,855,o),
(630,870,cs),
(603,948,ls)
);
}
);
};
layerId = "258ED206-D907-4350-8EBA-CBDDA1C16BF7";
shapes = (
{
ref = L;
},
{
pos = (8,212);
ref = acutecomb;
}
);
width = 643;
}
);
unicode = 313;
},
{
glyphname = Lcaron;
kernLeft = H;
lastChange = "2025-08-29 20:44:13 +0000";
layers = (
{
background = {
anchors = (
{
name = bottom;
pos = (319,0);
},
{
name = top;
pos = (137,742);
},
{
name = topright;
pos = (423,742);
}
);
shapes = (
{
closed = 1;
nodes = (
(114,732,l),
(114,10,ls),
(114,3,o),
(116,0,o),
(123,0,c),
(533,0,l),
(538,0,o),
(540,2,o),
(540,7,c),
(540,33,ls),
(540,39,o),
(538,40,o),
(532,40,c),
(169,40,ls),
(162,40,o),
(160,41,o),
(160,49,c),
(160,732,ls),
(160,740,o),
(158,742,o),
(151,742,c),
(123,742,ls),
(116,742,o),
(114,740,o),
(114,732,c)
);
},
{
closed = 1;
nodes = (
(499,567,ls),
(507,567,o),
(510,569,o),
(512,574,cs),
(545,650,ls),
(545,651,o),
(546,652,o),
(546,654,cs),
(546,736,ls),
(546,740,o),
(544,742,o),
(541,742,cs),
(498,742,ls),
(494,742,o),
(492,740,o),
(492,735,cs),
(492,662,ls),
(492,656,o),
(494,655,o),
(500,654,cs),
(505,653,ls),
(510,652,o),
(510,650,o),
(508,644,cs),
(478,574,ls),
(477,571,o),
(479,567,o),
(483,567,cs)
);
}
);
};
layerId = "91AB5BCA-6A50-42DA-B2F7-8181BF189245";
shapes = (
{
ref = L;
},
{
pos = (350,0);
ref = caroncomb.alt;
}
);
width = 587;
},
{
background = {
anchors = (
{
name = bottom;
pos = (314,0);
},
{
name = top;
pos = (168,742);
},
{
name = topright;
pos = (510,742);
}
);
shapes = (
{
closed = 1;
nodes = (
(52,719,l),
(52,25,ls),
(52,8,o),
(58,0,o),
(79,0,c),
(590,0,ls),
(607,0,o),
(615,10,o),
(615,22,c),
(615,145,ls),
(615,159,o),
(606,164,o),
(592,164,c),
(291,164,ls),
(282,164,o),
(279,167,o),
(279,178,c),
(279,721,ls),
(279,734,o),
(273,742,o),
(261,742,c),
(71,742,ls),
(60,742,o),
(52,734,o),
(52,719,c)
);
},
{
closed = 1;
nodes = (
(672,495,ls),
(691,495,o),
(698,499,o),
(702,511,cs),
(740,601,ls),
(741,603,o),
(743,607,o),
(743,611,cs),
(743,729,ls),
(743,737,o),
(738,742,o),
(730,742,cs),
(633,742,ls),
(625,742,o),
(619,737,o),
(619,726,cs),
(619,628,ls),
(619,616,o),
(624,612,o),
(637,611,cs),
(649,609,ls),
(660,607,o),
(661,601,o),
(656,588,cs),
(625,511,ls),
(622,504,o),
(626,495,o),
(635,495,cs)
);
}
);
};
layerId = "258ED206-D907-4350-8EBA-CBDDA1C16BF7";
shapes = (
{
ref = L;
},
{
pos = (358,0);
ref = caroncomb.alt;
}
);
width = 643;
}
);
unicode = 317;
},
{
glyphname = Lcommaaccent;
kernLeft = H;
kernRight = L;
lastChange = "2025-08-29 20:44:13 +0000";
layers = (
{
background = {
anchors = (
{
name = bottom;
pos = (319,0);
},
{
name = top;
pos = (137,742);
},
{
name = topright;
pos = (423,742);
}
);
shapes = (
{
closed = 1;
nodes = (
(114,732,l),
(114,10,ls),
(114,3,o),
(116,0,o),
(123,0,c),
(533,0,l),
(538,0,o),
(540,2,o),
(540,7,c),
(540,33,ls),
(540,39,o),
(538,40,o),
(532,40,c),
(169,40,ls),
(162,40,o),
(160,41,o),
(160,49,c),
(160,732,ls),
(160,740,o),
(158,742,o),
(151,742,c),
(123,742,ls),
(116,742,o),
(114,740,o),
(114,732,c)
);
},
{
closed = 1;
nodes = (
(375,-236,ls),
(383,-236,o),
(386,-235,o),
(389,-230,cs),
(420,-171,ls),
(420,-170,o),
(421,-167,o),
(421,-165,cs),
(421,-89,ls),
(421,-84,o),
(419,-82,o),
(415,-82,cs),
(370,-82,ls),
(366,-82,o),
(363,-84,o),
(363,-90,cs),
(363,-156,ls),
(363,-163,o),
(365,-165,o),
(371,-165,cs),
(379,-165,ls),
(384,-165,o),
(386,-168,o),
(383,-174,cs),
(358,-228,ls),
(356,-232,o),
(358,-236,o),
(362,-236,cs)
);
}
);
};
layerId = "91AB5BCA-6A50-42DA-B2F7-8181BF189245";
shapes = (
{
ref = L;
},
{
pos = (277,0);
ref = commaaccentcomb;
}
);
width = 587;
},
{
background = {
anchors = (
{
name = bottom;
pos = (314,0);
},
{
name = top;
pos = (168,742);
},
{
name = topright;
pos = (510,742);
}
);
shapes = (
{
closed = 1;
nodes = (
(52,719,l),
(52,25,ls),
(52,8,o),
(58,0,o),
(79,0,c),
(590,0,ls),
(607,0,o),
(615,10,o),
(615,22,c),
(615,145,ls),
(615,159,o),
(606,164,o),
(592,164,c),
(291,164,ls),
(282,164,o),
(279,167,o),
(279,178,c),
(279,721,ls),
(279,734,o),
(273,742,o),
(261,742,c),
(71,742,ls),
(60,742,o),
(52,734,o),
(52,719,c)
);
},
{
closed = 1;
nodes = (
(460,-246,ls),
(478,-246,o),
(485,-243,o),
(493,-232,cs),
(547,-165,ls),
(548,-162,o),
(551,-157,o),
(551,-152,cs),
(551,-65,ls),
(551,-55,o),
(545,-49,o),
(534,-49,cs),
(440,-49,ls),
(430,-49,o),
(422,-55,o),
(422,-69,cs),
(422,-130,ls),
(422,-146,o),
(428,-152,o),
(445,-152,cs),
(454,-152,ls),
(468,-152,o),
(474,-167,o),
(463,-181,cs),
(430,-226,ls),
(424,-234,o),
(431,-246,o),
(442,-246,cs)
);
}
);
};
layerId = "258ED206-D907-4350-8EBA-CBDDA1C16BF7";
shapes = (
{
ref = L;
},
{
pos = (239,0);
ref = commaaccentcomb;
}
);
width = 643;
}
);
unicode = 315;
},
{
glyphname = Ldot;
kernLeft = H;
lastChange = "2025-08-29 20:44:13 +0000";
layers = (
{
background = {
anchors = (
{
name = bottom;
pos = (319,0);
},
{
name = top;
pos = (137,742);
},
{
name = topright;
pos = (423,742);
}
);
shapes = (
{
closed = 1;
nodes = (
(114,732,l),
(114,10,ls),
(114,3,o),
(116,0,o),
(123,0,c),
(533,0,l),
(538,0,o),
(540,2,o),
(540,7,c),
(540,33,ls),
(540,39,o),
(538,40,o),
(532,40,c),
(169,40,ls),
(162,40,o),
(160,41,o),
(160,49,c),
(160,732,ls),
(160,740,o),
(158,742,o),
(151,742,c),
(123,742,ls),
(116,742,o),
(114,740,o),
(114,732,c)
);
},
{
closed = 1;
nodes = (
(498,428,l),
(498,434,o),
(496,436,o),
(491,436,c),
(423,436,ls),
(419,436,o),
(416,434,o),
(416,427,c),
(416,367,ls),
(416,360,o),
(418,357,o),
(426,357,c),
(485,357,ls),
(495,357,o),
(498,360,o),
(498,368,c)
);
}
);
};
layerId = "91AB5BCA-6A50-42DA-B2F7-8181BF189245";
shapes = (
{
ref = L;
},
{
pos = (371,23);
ref = periodcentered;
}
);
width = 587;
},
{
background = {
anchors = (
{
name = bottom;
pos = (314,0);
},
{
name = top;
pos = (168,742);
},
{
name = topright;
pos = (510,742);
}
);
shapes = (
{
closed = 1;
nodes = (
(52,719,l),
(52,25,ls),
(52,8,o),
(58,0,o),
(79,0,c),
(590,0,ls),
(607,0,o),
(615,10,o),
(615,22,c),
(615,145,ls),
(615,159,o),
(606,164,o),
(592,164,c),
(291,164,ls),
(282,164,o),
(279,167,o),
(279,178,c),
(279,721,ls),
(279,734,o),
(273,742,o),
(261,742,c),
(71,742,ls),
(60,742,o),
(52,734,o),
(52,719,c)
);
},
{
closed = 1;
nodes = (
(571,488,l),
(571,500,o),
(566,506,o),
(555,506,c),
(402,506,ls),
(392,506,o),
(385,500,o),
(385,486,c),
(385,349,ls),
(385,334,o),
(391,327,o),
(409,327,c),
(542,327,ls),
(563,327,o),
(571,334,o),
(571,353,c)
);
}
);
};
layerId = "258ED206-D907-4350-8EBA-CBDDA1C16BF7";
shapes = (
{
ref = L;
},
{
pos = (341,43);
ref = periodcentered;
}
);
width = 643;
}
);
unicode = 319;
},
{
glyphname = Lslash;
kernLeft = H;
lastChange = "2025-08-29 20:44:13 +0000";
layers = (
{
background = {
anchors = (
{
name = bottom;
pos = (319,0);
},
{
name = top;
pos = (137,742);
},
{
name = topright;
pos = (423,742);
}
);
shapes = (
{
closed = 1;
nodes = (
(327,432,l),
(327,436,o),
(325,438,o),
(320,437,c),
(38,365,ls),
(35,364,o),
(33,361,o),
(33,356,c),
(33,332,ls),
(33,327,o),
(35,326,o),
(40,327,c),
(321,400,ls),
(325,401,o),
(327,404,o),
(327,408,c)
);
},
{
closed = 1;
nodes = (
(114,732,l),
(114,10,ls),
(114,3,o),
(116,0,o),
(123,0,c),
(533,0,l),
(538,0,o),
(540,2,o),
(540,7,c),
(540,33,ls),
(540,39,o),
(538,40,o),
(532,40,c),
(169,40,ls),
(162,40,o),
(160,41,o),
(160,49,c),
(160,732,ls),
(160,740,o),
(158,742,o),
(151,742,c),
(123,742,ls),
(116,742,o),
(114,740,o),
(114,732,c)
);
}
);
};
layerId = "91AB5BCA-6A50-42DA-B2F7-8181BF189245";
shapes = (
{
closed = 1;
nodes = (
(327,432,l),
(327,436,o),
(325,438,o),
(320,437,c),
(38,365,ls),
(35,364,o),
(33,361,o),
(33,356,c),
(33,332,ls),
(33,327,o),
(35,326,o),
(40,327,c),
(321,400,ls),
(325,401,o),
(327,404,o),
(327,408,c)
);
},
{
ref = L;
}
);
width = 587;
},
{
background = {
anchors = (
{
name = bottom;
pos = (314,0);
},
{
name = top;
pos = (168,742);
},
{
name = topright;
pos = (510,742);
}
);
shapes = (
{
closed = 1;
nodes = (
(439,534,l),
(439,550,o),
(432,557,o),
(415,552,c),
(10,444,ls),
(-2,441,o),
(-9,436,o),
(-9,421,c),
(-9,301,ls),
(-9,284,o),
(-3,277,o),
(17,283,c),
(419,397,ls),
(433,401,o),
(439,409,o),
(439,421,c)
);
},
{
closed = 1;
nodes = (
(52,719,l),
(52,25,ls),
(52,8,o),
(58,0,o),
(79,0,c),
(590,0,ls),
(607,0,o),
(615,10,o),
(615,22,c),
(615,145,ls),
(615,159,o),
(606,164,o),
(592,164,c),
(291,164,ls),
(282,164,o),
(279,167,o),
(279,178,c),
(279,721,ls),
(279,734,o),
(273,742,o),
(261,742,c),
(71,742,ls),
(60,742,o),
(52,734,o),
(52,719,c)
);
}
);
};
layerId = "258ED206-D907-4350-8EBA-CBDDA1C16BF7";
shapes = (
{
closed = 1;
nodes = (
(439,534,l),
(439,550,o),
(432,557,o),
(415,552,c),
(10,444,ls),
(-2,441,o),
(-9,436,o),
(-9,421,c),
(-9,301,ls),
(-9,284,o),
(-3,277,o),
(17,283,c),
(419,397,ls),
(433,401,o),
(439,409,o),
(439,421,c)
);
},
{
ref = L;
}
);
width = 643;
}
);
metricRight = L;
unicode = 321;
},
{
glyphname = M;
kernLeft = H;
lastChange = "2025-08-29 20:44:13 +0000";
layers = (
{
anchors = (
{
name = bottom;
pos = (440,0);
},
{
name = top;
pos = (440,742);
}
);
background = {
shapes = (
{
closed = 1;
nodes = (
(123,0,l),
(148,0,ls),
(155,0,o),
(158,3,o),
(158,9,c),
(158,622,ls),
(158,626,o),
(160,625,o),
(161,622,c),
(405,10,ls),
(408,3,o),
(413,0,o),
(424,0,c),
(451,0,ls),
(460,0,o),
(464,3,o),
(467,11,c),
(716,627,ls),
(717,630,o),
(719,632,o),
(719,627,c),
(719,9,ls),
(719,2,o),
(722,0,o),
(729,0,c),
(756,0,ls),
(762,0,o),
(765,3,o),
(765,10,c),
(765,732,ls),
(765,740,o),
(763,742,o),
(756,742,c),
(727,742,ls),
(721,742,o),
(718,740,o),
(716,735,c),
(445,65,ls),
(439,51,o),
(434,51,o),
(429,64,c),
(162,734,l),
(160,740,o),
(157,742,o),
(149,742,c),
(123,742,ls),
(116,742,o),
(114,740,o),
(114,732,c),
(114,10,ls),
(114,3,o),
(116,0,o),
(123,0,c)
);
}
);
};
guides = (
{
pos = (43,566);
}
);
layerId = "91AB5BCA-6A50-42DA-B2F7-8181BF189245";
shapes = (
{
closed = 1;
nodes = (
(123,0,l),
(148,0,ls),
(155,0,o),
(158,3,o),
(158,9,c),
(158,622,ls),
(158,626,o),
(160,625,o),
(161,622,c),
(405,10,ls),
(408,3,o),
(413,0,o),
(424,0,c),
(451,0,ls),
(460,0,o),
(464,3,o),
(467,11,c),
(716,627,ls),
(717,630,o),
(719,632,o),
(719,627,c),
(719,9,ls),
(719,2,o),
(722,0,o),
(729,0,c),
(756,0,ls),
(762,0,o),
(765,3,o),
(765,10,c),
(765,732,ls),
(765,740,o),
(763,742,o),
(756,742,c),
(727,742,ls),
(721,742,o),
(718,740,o),
(716,735,c),
(445,65,ls),
(439,51,o),
(434,51,o),
(429,64,c),
(162,734,l),
(160,740,o),
(157,742,o),
(149,742,c),
(123,742,ls),
(116,742,o),
(114,740,o),
(114,732,c),
(114,10,ls),
(114,3,o),
(116,0,o),
(123,0,c)
);
}
);
width = 879;
},
{
anchors = (
{
name = bottom;
pos = (468,0);
},
{
name = top;
pos = (489,742);
}
);
background = {
shapes = (
{
closed = 1;
nodes = (
(78,0,l),
(211,0,ls),
(229,0,o),
(233,4,o),
(233,22,c),
(233,464,ls),
(233,477,o),
(240,481,o),
(245,465,c),
(389,18,ls),
(393,6,o),
(401,0,o),
(413,0,c),
(518,0,ls),
(529,0,o),
(538,7,o),
(542,18,c),
(686,473,ls),
(690,485,o),
(698,485,o),
(698,474,c),
(698,25,ls),
(698,8,o),
(704,0,o),
(724,0,c),
(893,0,ls),
(916,0,o),
(925,8,o),
(925,29,c),
(925,721,ls),
(925,734,o),
(919,742,o),
(907,742,c),
(618,742,ls),
(604,742,o),
(596,731,o),
(591,713,c),
(498,406,ls),
(495,397,o),
(489,395,o),
(485,406,c),
(381,724,ls),
(376,738,o),
(370,742,o),
(353,742,c),
(73,742,ls),
(58,742,o),
(52,735,o),
(52,719,c),
(52,28,ls),
(52,11,o),
(62,0,o),
(78,0,c)
);
}
);
};
layerId = "258ED206-D907-4350-8EBA-CBDDA1C16BF7";
shapes = (
{
closed = 1;
nodes = (
(78,0,l),
(211,0,ls),
(229,0,o),
(233,4,o),
(233,22,c),
(233,464,ls),
(233,477,o),
(240,481,o),
(245,465,c),
(389,18,ls),
(393,6,o),
(401,0,o),
(413,0,c),
(518,0,ls),
(529,0,o),
(538,7,o),
(542,18,c),
(686,473,ls),
(690,485,o),
(698,485,o),
(698,474,c),
(698,25,ls),
(698,8,o),
(704,0,o),
(724,0,c),
(893,0,ls),
(916,0,o),
(925,8,o),
(925,29,c),
(925,721,ls),
(925,734,o),
(919,742,o),
(907,742,c),
(618,742,ls),
(604,742,o),
(596,731,o),
(591,713,c),
(498,406,ls),
(495,397,o),
(489,395,o),
(485,406,c),
(381,724,ls),
(376,738,o),
(370,742,o),
(353,742,c),
(73,742,ls),
(58,742,o),
(52,735,o),
(52,719,c),
(52,28,ls),
(52,11,o),
(62,0,o),
(78,0,c)
);
}
);
width = 977;
}
);
unicode = 77;
},
{
glyphname = Mdotbelow;
kernLeft = H;
kernRight = M;
lastChange = "2025-08-29 20:44:13 +0000";
layers = (
{
background = {
shapes = (
{
closed = 1;
nodes = (
(123,0,l),
(148,0,ls),
(155,0,o),
(158,3,o),
(158,9,c),
(158,622,ls),
(158,626,o),
(160,625,o),
(161,622,c),
(405,10,ls),
(408,3,o),
(413,0,o),
(424,0,c),
(451,0,ls),
(460,0,o),
(464,3,o),
(467,11,c),
(716,627,ls),
(717,630,o),
(719,632,o),
(719,627,c),
(719,9,ls),
(719,2,o),
(722,0,o),
(729,0,c),
(756,0,ls),
(762,0,o),
(765,3,o),
(765,10,c),
(765,732,ls),
(765,740,o),
(763,742,o),
(756,742,c),
(727,742,ls),
(721,742,o),
(718,740,o),
(716,735,c),
(445,65,ls),
(439,51,o),
(434,51,o),
(429,64,c),
(162,734,l),
(160,740,o),
(157,742,o),
(149,742,c),
(123,742,ls),
(116,742,o),
(114,740,o),
(114,732,c),
(114,10,ls),
(114,3,o),
(116,0,o),
(123,0,c)
);
},
{
closed = 1;
nodes = (
(466,-64,o),
(464,-62,o),
(457,-62,cs),
(423,-62,ls),
(416,-62,o),
(414,-64,o),
(414,-72,cs),
(414,-155,ls),
(414,-163,o),
(416,-165,o),
(425,-165,cs),
(454,-165,ls),
(464,-165,o),
(466,-163,o),
(466,-153,cs),
(466,-72,ls)
);
}
);
};
layerId = "91AB5BCA-6A50-42DA-B2F7-8181BF189245";
shapes = (
{
ref = M;
},
{
pos = (404,0);
ref = dotbelowcomb;
}
);
width = 879;
},
{
background = {
shapes = (
{
closed = 1;
nodes = (
(78,0,l),
(211,0,ls),
(229,0,o),
(233,4,o),
(233,22,c),
(233,464,ls),
(233,477,o),
(240,481,o),
(245,465,c),
(389,18,ls),
(393,6,o),
(401,0,o),
(413,0,c),
(518,0,ls),
(529,0,o),
(538,7,o),
(542,18,c),
(686,473,ls),
(690,485,o),
(698,485,o),
(698,474,c),
(698,25,ls),
(698,8,o),
(704,0,o),
(724,0,c),
(893,0,ls),
(916,0,o),
(925,8,o),
(925,29,c),
(925,721,ls),
(925,734,o),
(919,742,o),
(907,742,c),
(618,742,ls),
(604,742,o),
(596,731,o),
(591,713,c),
(498,406,ls),
(495,397,o),
(489,395,o),
(485,406,c),
(381,724,ls),
(376,738,o),
(370,742,o),
(353,742,c),
(73,742,ls),
(58,742,o),
(52,735,o),
(52,719,c),
(52,28,ls),
(52,11,o),
(62,0,o),
(78,0,c)
);
},
{
closed = 1;
nodes = (
(563,-45,o),
(559,-39,o),
(550,-39,cs),
(428,-39,ls),
(419,-39,o),
(415,-45,o),
(415,-57,cs),
(415,-146,ls),
(415,-158,o),
(419,-165,o),
(434,-165,cs),
(539,-165,ls),
(556,-165,o),
(563,-158,o),
(563,-143,cs),
(563,-55,ls)
);
}
);
};
layerId = "258ED206-D907-4350-8EBA-CBDDA1C16BF7";
shapes = (
{
ref = M;
},
{
pos = (384,0);
ref = dotbelowcomb;
}
);
width = 977;
}
);
unicode = 7746;
},
{
glyphname = N;
kernLeft = H;
lastChange = "2025-08-29 20:44:13 +0000";
layers = (
{
anchors = (
{
name = bottom;
pos = (359,0);
},
{
name = top;
pos = (394,742);
}
);
background = {
anchors = (
{
name = bottom;
pos = (359,0);
},
{
name = top;
pos = (394,742);
}
);
shapes = (
{
closed = 1;
nodes = (
(605,742,l),
(599,742,o),
(597,739,o),
(597,733,c),
(597,107,ls),
(597,101,o),
(590,95,o),
(583,105,c),
(156,735,ls),
(152,741,o),
(149,742,o),
(141,742,c),
(123,742,l),
(116,742,o),
(114,740,o),
(114,732,c),
(114,10,ls),
(114,3,o),
(116,0,o),
(123,0,c),
(148,0,ls),
(155,0,o),
(158,3,o),
(158,9,c),
(158,637,ls),
(158,645,o),
(163,647,o),
(170,637,c),
(598,6,ls),
(603,-1,o),
(609,0,o),
(617,0,c),
(632,0,ls),
(638,0,o),
(641,3,o),
(641,10,c),
(641,732,ls),
(641,740,o),
(639,742,o),
(632,742,c)
);
}
);
};
guides = (
{
pos = (48,576);
}
);
layerId = "91AB5BCA-6A50-42DA-B2F7-8181BF189245";
shapes = (
{
closed = 1;
nodes = (
(605,742,l),
(599,742,o),
(597,739,o),
(597,733,c),
(597,107,ls),
(597,101,o),
(590,95,o),
(583,105,c),
(156,735,ls),
(152,741,o),
(149,742,o),
(141,742,c),
(123,742,l),
(116,742,o),
(114,740,o),
(114,732,c),
(114,10,ls),
(114,3,o),
(116,0,o),
(123,0,c),
(148,0,ls),
(155,0,o),
(158,3,o),
(158,9,c),
(158,637,ls),
(158,645,o),
(163,647,o),
(170,637,c),
(598,6,ls),
(603,-1,o),
(609,0,o),
(617,0,c),
(632,0,ls),
(638,0,o),
(641,3,o),
(641,10,c),
(641,732,ls),
(641,740,o),
(639,742,o),
(632,742,c)
);
}
);
width = 755;
},
{
anchors = (
{
name = bottom;
pos = (381,0);
},
{
name = top;
pos = (381,742);
}
);
background = {
anchors = (
{
name = bottom;
pos = (381,0);
},
{
name = top;
pos = (381,742);
}
);
shapes = (
{
closed = 1;
nodes = (
(549,742,l),
(534,742,o),
(527,734,o),
(527,721,c),
(527,394,ls),
(527,378,o),
(520,378,o),
(511,390,c),
(271,724,ls),
(260,739,o),
(254,742,o),
(237,742,c),
(74,742,ls),
(59,742,o),
(52,735,o),
(52,719,c),
(52,20,ls),
(52,5,o),
(62,0,o),
(77,0,c),
(213,0,ls),
(231,0,o),
(238,6,o),
(237,22,c),
(237,386,ls),
(237,393,o),
(242,395,o),
(247,388,c),
(522,15,ls),
(532,2,o),
(538,0,o),
(549,0,c),
(686,0,ls),
(699,0,o),
(709,7,o),
(709,18,c),
(709,725,ls),
(709,736,o),
(704,742,o),
(694,742,c)
);
}
);
};
layerId = "258ED206-D907-4350-8EBA-CBDDA1C16BF7";
shapes = (
{
closed = 1;
nodes = (
(549,742,l),
(534,742,o),
(527,734,o),
(527,721,c),
(527,394,ls),
(527,378,o),
(520,378,o),
(511,390,c),
(271,724,ls),
(260,739,o),
(254,742,o),
(237,742,c),
(74,742,ls),
(59,742,o),
(52,735,o),
(52,719,c),
(52,20,ls),
(52,5,o),
(62,0,o),
(77,0,c),
(213,0,ls),
(231,0,o),
(238,6,o),
(237,22,c),
(237,386,ls),
(237,393,o),
(242,395,o),
(247,388,c),
(522,15,ls),
(532,2,o),
(538,0,o),
(549,0,c),
(686,0,ls),
(699,0,o),
(709,7,o),
(709,18,c),
(709,725,ls),
(709,736,o),
(704,742,o),
(694,742,c)
);
}
);
width = 761;
}
);
unicode = 78;
},
{
glyphname = Ncommaaccent;
kernLeft = H;
lastChange = "2025-08-29 20:44:13 +0000";
layers = (
{
background = {
anchors = (
{
name = bottom;
pos = (359,0);
},
{
name = top;
pos = (394,742);
}
);
shapes = (
{
closed = 1;
nodes = (
(605,742,l),
(599,742,o),
(597,739,o),
(597,733,c),
(597,107,ls),
(597,101,o),
(590,95,o),
(583,105,c),
(156,735,ls),
(152,741,o),
(149,742,o),
(141,742,c),
(123,742,l),
(116,742,o),
(114,740,o),
(114,732,c),
(114,10,ls),
(114,3,o),
(116,0,o),
(123,0,c),
(148,0,ls),
(155,0,o),
(158,3,o),
(158,9,c),
(158,637,ls),
(158,645,o),
(163,647,o),
(170,637,c),
(598,6,ls),
(603,-1,o),
(609,0,o),
(617,0,c),
(632,0,ls),
(638,0,o),
(641,3,o),
(641,10,c),
(641,732,ls),
(641,740,o),
(639,742,o),
(632,742,c)
);
},
{
closed = 1;
nodes = (
(345,-236,ls),
(353,-236,o),
(356,-235,o),
(359,-230,cs),
(390,-171,ls),
(390,-170,o),
(391,-167,o),
(391,-165,cs),
(391,-89,ls),
(391,-84,o),
(389,-82,o),
(385,-82,cs),
(340,-82,ls),
(336,-82,o),
(333,-84,o),
(333,-90,cs),
(333,-156,ls),
(333,-163,o),
(335,-165,o),
(341,-165,cs),
(349,-165,ls),
(354,-165,o),
(356,-168,o),
(353,-174,cs),
(328,-228,ls),
(326,-232,o),
(328,-236,o),
(332,-236,cs)
);
}
);
};
layerId = "91AB5BCA-6A50-42DA-B2F7-8181BF189245";
shapes = (
{
ref = N;
},
{
pos = (317,0);
ref = commaaccentcomb;
}
);
width = 755;
},
{
background = {
anchors = (
{
name = bottom;
pos = (381,0);
},
{
name = top;
pos = (381,742);
}
);
shapes = (
{
closed = 1;
nodes = (
(549,742,l),
(534,742,o),
(527,734,o),
(527,721,c),
(527,394,ls),
(527,378,o),
(520,378,o),
(511,390,c),
(271,724,ls),
(260,739,o),
(254,742,o),
(237,742,c),
(74,742,ls),
(59,742,o),
(52,735,o),
(52,719,c),
(52,20,ls),
(52,5,o),
(62,0,o),
(77,0,c),
(213,0,ls),
(231,0,o),
(238,6,o),
(237,22,c),
(237,386,ls),
(237,393,o),
(242,395,o),
(247,388,c),
(522,15,ls),
(532,2,o),
(538,0,o),
(549,0,c),
(686,0,ls),
(699,0,o),
(709,7,o),
(709,18,c),
(709,725,ls),
(709,736,o),
(704,742,o),
(694,742,c)
);
},
{
closed = 1;
nodes = (
(511,-246,ls),
(529,-246,o),
(536,-243,o),
(544,-232,cs),
(598,-165,ls),
(599,-162,o),
(602,-157,o),
(602,-152,cs),
(602,-65,ls),
(602,-55,o),
(596,-49,o),
(585,-49,cs),
(491,-49,ls),
(481,-49,o),
(473,-55,o),
(473,-69,cs),
(473,-130,ls),
(473,-146,o),
(479,-152,o),
(496,-152,cs),
(505,-152,ls),
(519,-152,o),
(525,-167,o),
(514,-181,cs),
(481,-226,ls),
(475,-234,o),
(482,-246,o),
(493,-246,cs)
);
}
);
};
layerId = "258ED206-D907-4350-8EBA-CBDDA1C16BF7";
shapes = (
{
ref = N;
},
{
pos = (306,0);
ref = commaaccentcomb;
}
);
width = 761;
}
);
unicode = 325;
},
{
glyphname = Eng;
kernLeft = H;
lastChange = "2025-08-29 20:44:13 +0000";
layers = (
{
background = {
shapes = (
{
closed = 1;
nodes = (
(632,742,l),
(606,742,ls),
(600,742,o),
(598,739,o),
(598,733,c),
(598,107,ls),
(598,101,o),
(591,94,o),
(584,104,c),
(158,735,ls),
(154,741,o),
(151,742,o),
(144,742,c),
(123,742,ls),
(116,742,o),
(114,740,o),
(114,732,c),
(114,10,ls),
(114,3,o),
(116,0,o),
(123,0,c),
(148,0,ls),
(155,0,o),
(158,3,o),
(158,9,c),
(158,640,ls),
(158,648,o),
(160,650,o),
(167,640,c),
(595,12,l),
(595,-41,ls),
(595,-112,o),
(564,-135,o),
(510,-135,c),
(480,-135,o),
(456,-128,o),
(440,-122,c),
(435,-120,o),
(433,-121,o),
(432,-126,c),
(429,-151,l),
(429,-155,o),
(430,-158,o),
(433,-160,c),
(440,-165,o),
(473,-175,o),
(514,-175,c),
(608,-175,o),
(641,-124,o),
(641,-46,c),
(641,732,ls),
(641,740,o),
(639,742,o),
(632,742,c)
);
}
);
};
layerId = "91AB5BCA-6A50-42DA-B2F7-8181BF189245";
shapes = (
{
closed = 1;
nodes = (
(632,742,l),
(606,742,ls),
(600,742,o),
(598,739,o),
(598,733,c),
(598,107,ls),
(598,101,o),
(591,94,o),
(584,104,c),
(158,735,ls),
(154,741,o),
(151,742,o),
(144,742,c),
(123,742,ls),
(116,742,o),
(114,740,o),
(114,732,c),
(114,10,ls),
(114,3,o),
(116,0,o),
(123,0,c),
(148,0,ls),
(155,0,o),
(158,3,o),
(158,9,c),
(158,640,ls),
(158,648,o),
(160,650,o),
(167,640,c),
(595,12,l),
(595,-41,ls),
(595,-112,o),
(564,-135,o),
(510,-135,c),
(480,-135,o),
(456,-128,o),
(440,-122,c),
(435,-120,o),
(433,-121,o),
(432,-126,c),
(429,-151,l),
(429,-155,o),
(430,-158,o),
(433,-160,c),
(440,-165,o),
(473,-175,o),
(514,-175,c),
(608,-175,o),
(641,-124,o),
(641,-46,c),
(641,732,ls),
(641,740,o),
(639,742,o),
(632,742,c)
);
}
);
width = 755;
},
{
background = {
shapes = (
{
closed = 1;
nodes = (
(694,742,l),
(549,742,ls),
(534,742,o),
(527,734,o),
(527,721,c),
(527,434,ls),
(527,418,o),
(520,418,o),
(511,430,c),
(271,724,ls),
(259,739,o),
(254,742,o),
(237,742,c),
(74,742,ls),
(59,742,o),
(52,735,o),
(52,719,c),
(52,20,ls),
(52,5,o),
(62,0,o),
(77,0,c),
(213,0,ls),
(231,0,o),
(238,6,o),
(237,22,c),
(237,386,l),
(237,393,o),
(241,395,o),
(247,388,c),
(487,97,l),
(487,88,ls),
(484,31,o),
(454,10,o),
(409,10,c),
(387,10,o),
(364,15,o),
(348,17,c),
(332,19,o),
(325,9,o),
(324,-6,c),
(315,-120,ls),
(313,-148,o),
(323,-159,o),
(346,-163,c),
(391,-171,o),
(435,-175,o),
(476,-175,c),
(628,-175,o),
(709,-114,o),
(709,47,c),
(709,725,ls),
(709,736,o),
(704,742,o),
(694,742,c)
);
}
);
};
guides = (
{
angle = 90;
pos = (527,578);
}
);
layerId = "258ED206-D907-4350-8EBA-CBDDA1C16BF7";
shapes = (
{
closed = 1;
nodes = (
(694,742,l),
(549,742,ls),
(534,742,o),
(527,734,o),
(527,721,c),
(527,434,ls),
(527,418,o),
(520,418,o),
(511,430,c),
(271,724,ls),
(259,739,o),
(254,742,o),
(237,742,c),
(74,742,ls),
(59,742,o),
(52,735,o),
(52,719,c),
(52,20,ls),
(52,5,o),
(62,0,o),
(77,0,c),
(213,0,ls),
(231,0,o),
(238,6,o),
(237,22,c),
(237,386,l),
(237,393,o),
(241,395,o),
(247,388,c),
(509,71,l),
(509,62,ls),
(505,7,o),
(486,-13,o),
(428,-13,c),
(406,-13,o),
(363,-8,o),
(347,-6,c),
(331,-4,o),
(324,-14,o),
(323,-29,c),
(315,-120,ls),
(313,-148,o),
(323,-159,o),
(346,-163,c),
(391,-171,o),
(435,-175,o),
(476,-175,c),
(628,-175,o),
(709,-114,o),
(709,47,c),
(709,725,ls),
(709,736,o),
(704,742,o),
(694,742,c)
);
}
);
width = 761;
}
);
metricLeft = N;
metricRight = N;
unicode = 330;
},
{
glyphname = O;
kernLeft = O;
kernRight = O;
lastChange = "2025-08-29 20:44:13 +0000";
layers = (
{
anchors = (
{
name = bottom;
pos = (381,0);
},
{
name = center;
pos = (379,371);
},
{
name = ogonek;
pos = (451,9);
},
{
name = top;
pos = (381,742);
},
{
name = topleft;
pos = (20,742);
},
{
name = topright;
pos = (517,742);
}
);
background = {
anchors = (
{
name = bottom;
pos = (381,0);
},
{
name = ogonek;
pos = (451,9);
},
{
name = top;
pos = (381,742);
}
);
shapes = (
{
closed = 1;
nodes = (
(379,-10,l),
(567,-10,o),
(680,122,o),
(680,369,c),
(680,618,o),
(567,752,o),
(380,752,c),
(192,752,o),
(78,617,o),
(78,367,c),
(78,121,o),
(190,-10,o),
(379,-10,c)
);
},
{
closed = 1;
nodes = (
(381,32,l),
(215,32,o),
(126,143,o),
(126,369,c),
(126,597,o),
(215,710,o),
(380,710,c),
(544,710,o),
(632,598,o),
(632,369,c),
(632,142,o),
(546,32,o),
(381,32,c)
);
}
);
};
guides = (
{
angle = 90;
pos = (-576,431);
},
{
angle = 90;
pos = (381,640);
}
);
layerId = "91AB5BCA-6A50-42DA-B2F7-8181BF189245";
shapes = (
{
closed = 1;
nodes = (
(379,-10,l),
(567,-10,o),
(680,122,o),
(680,369,c),
(680,618,o),
(567,752,o),
(380,752,c),
(192,752,o),
(78,617,o),
(78,367,c),
(78,121,o),
(190,-10,o),
(379,-10,c)
);
},
{
closed = 1;
nodes = (
(381,32,l),
(215,32,o),
(126,143,o),
(126,369,c),
(126,597,o),
(215,710,o),
(380,710,c),
(544,710,o),
(632,598,o),
(632,369,c),
(632,142,o),
(546,32,o),
(381,32,c)
);
}
);
width = 758;
},
{
anchors = (
{
name = bottom;
pos = (392,0);
},
{
name = center;
pos = (390,371);
},
{
name = ogonek;
pos = (483,10);
},
{
name = top;
pos = (390,742);
},
{
name = topleft;
pos = (20,742);
},
{
name = topright;
pos = (582,742);
}
);
background = {
anchors = (
{
name = bottom;
pos = (392,0);
},
{
name = ogonek;
pos = (483,10);
},
{
name = top;
pos = (390,742);
}
);
shapes = (
{
closed = 1;
nodes = (
(391,-10,l),
(609,-10,o),
(749,139,o),
(749,369,c),
(749,601,o),
(606,752,o),
(391,752,c),
(174,752,o),
(31,601,o),
(31,369,c),
(31,138,o),
(170,-10,o),
(391,-10,c)
);
},
{
closed = 1;
nodes = (
(391,146,l),
(302,146,o),
(269,206,o),
(269,366,c),
(269,531,o),
(304,598,o),
(391,598,c),
(476,598,o),
(511,531,o),
(511,366,c),
(511,206,o),
(478,146,o),
(391,146,c)
);
}
);
};
guides = (
{
angle = 90;
pos = (-606,431);
}
);
layerId = "258ED206-D907-4350-8EBA-CBDDA1C16BF7";
shapes = (
{
closed = 1;
nodes = (
(391,-10,l),
(609,-10,o),
(749,139,o),
(749,369,c),
(749,601,o),
(606,752,o),
(391,752,c),
(174,752,o),
(31,601,o),
(31,369,c),
(31,138,o),
(170,-10,o),
(391,-10,c)
);
},
{
closed = 1;
nodes = (
(391,146,l),
(302,146,o),
(269,206,o),
(269,366,c),
(269,531,o),
(304,598,o),
(391,598,c),
(476,598,o),
(511,531,o),
(511,366,c),
(511,206,o),
(478,146,o),
(391,146,c)
);
}
);
width = 780;
}
);
unicode = 79;
},
{
glyphname = Ocircumflexacute;
kernLeft = O;
kernRight = O;
lastChange = "2025-08-29 20:44:13 +0000";
layers = (
{
background = {
anchors = (
{
name = bottom;
pos = (381,0);
},
{
name = center;
pos = (379,371);
},
{
name = ogonek;
pos = (451,9);
},
{
name = top;
pos = (496,799);
},
{
name = topleft;
pos = (20,742);
},
{
name = topright;
pos = (517,742);
},
{
name = topviet;
pos = (581,715);
}
);
shapes = (
{
closed = 1;
nodes = (
(379,-10,l),
(567,-10,o),
(680,122,o),
(680,369,c),
(680,618,o),
(567,752,o),
(380,752,c),
(192,752,o),
(78,617,o),
(78,367,c),
(78,121,o),
(190,-10,o),
(379,-10,c)
);
},
{
closed = 1;
nodes = (
(381,32,l),
(215,32,o),
(126,143,o),
(126,369,c),
(126,597,o),
(215,710,o),
(380,710,c),
(544,710,o),
(632,598,o),
(632,369,c),
(632,142,o),
(546,32,o),
(381,32,c)
);
},
{
closed = 1;
nodes = (
(566,646,o),
(570,644,o),
(576,644,cs),
(617,644,ls),
(625,644,o),
(625,648,o),
(618,654,cs),
(520,734,ls),
(516,737,o),
(512,742,o),
(504,742,cs),
(486,742,ls),
(477,742,o),
(472,738,o),
(466,733,cs),
(367,654,ls),
(361,649,o),
(362,644,o),
(369,644,cs),
(406,644,ls),
(413,644,o),
(414,645,o),
(421,650,cs),
(483,698,ls),
(494,706,o),
(492,706,o),
(502,698,cs),
(561,650,ls)
);
},
{
closed = 1;
nodes = (
(610,889,o),
(606,890,o),
(603,889,cs),
(374,798,ls),
(371,797,o),
(369,793,o),
(371,788,cs),
(376,773,ls),
(378,767,o),
(381,766,o),
(387,768,cs),
(614,842,ls),
(622,845,o),
(623,848,o),
(621,854,cs),
(611,886,ls)
);
}
);
};
layerId = "91AB5BCA-6A50-42DA-B2F7-8181BF189245";
shapes = (
{
ref = O;
},
{
pos = (89,212);
ref = circumflexcomb_acutecomb;
}
);
width = 758;
},
{
background = {
anchors = (
{
name = bottom;
pos = (392,0);
},
{
name = center;
pos = (390,371);
},
{
name = ogonek;
pos = (483,10);
},
{
name = top;
pos = (443,906);
},
{
name = topleft;
pos = (20,742);
},
{
name = topright;
pos = (582,742);
},
{
name = topviet;
pos = (591,699);
}
);
shapes = (
{
closed = 1;
nodes = (
(391,-10,l),
(609,-10,o),
(749,139,o),
(749,369,c),
(749,601,o),
(606,752,o),
(391,752,c),
(174,752,o),
(31,601,o),
(31,369,c),
(31,138,o),
(170,-10,o),
(391,-10,c)
);
},
{
closed = 1;
nodes = (
(391,146,l),
(302,146,o),
(269,206,o),
(269,366,c),
(269,531,o),
(304,598,o),
(391,598,c),
(476,598,o),
(511,531,o),
(511,366,c),
(511,206,o),
(478,146,o),
(391,146,c)
);
},
{
closed = 1;
nodes = (
(507,595,o),
(515,595,o),
(527,595,cs),
(632,595,ls),
(646,595,o),
(645,601,o),
(634,613,cs),
(523,739,ls),
(516,746,o),
(509,752,o),
(495,752,cs),
(400,752,ls),
(381,752,o),
(372,747,o),
(363,737,cs),
(251,613,ls),
(241,602,o),
(242,595,o),
(254,595,cs),
(353,595,ls),
(366,595,o),
(370,594,o),
(379,604,cs),
(425,658,ls),
(442,677,o),
(445,676,o),
(459,658,cs),
(500,604,ls)
);
},
{
closed = 1;
nodes = (
(560,934,o),
(552,939,o),
(543,935,cs),
(303,837,ls),
(294,833,o),
(291,825,o),
(295,813,cs),
(310,770,ls),
(315,756,o),
(322,753,o),
(339,757,cs),
(572,813,ls),
(592,818,o),
(596,830,o),
(591,845,cs),
(564,923,ls)
);
}
);
};
layerId = "258ED206-D907-4350-8EBA-CBDDA1C16BF7";
shapes = (
{
ref = O;
},
{
pos = (87,212);
ref = circumflexcomb_acutecomb;
}
);
width = 780;
}
);
unicode = 7888;
},
{
glyphname = Ocircumflexdotbelow;
kernLeft = O;
kernRight = O;
lastChange = "2025-08-29 20:44:13 +0000";
layers = (
{
background = {
anchors = (
{
name = bottom;
pos = (381,0);
},
{
name = center;
pos = (379,371);
},
{
name = ogonek;
pos = (451,9);
},
{
name = top;
pos = (380,876);
},
{
name = topleft;
pos = (20,742);
},
{
name = topright;
pos = (517,742);
},
{
name = topviet;
pos = (469,927);
}
);
shapes = (
{
closed = 1;
nodes = (
(379,-10,l),
(567,-10,o),
(680,122,o),
(680,369,c),
(680,618,o),
(567,752,o),
(380,752,c),
(192,752,o),
(78,617,o),
(78,367,c),
(78,121,o),
(190,-10,o),
(379,-10,c)
);
},
{
closed = 1;
nodes = (
(381,32,l),
(215,32,o),
(126,143,o),
(126,369,c),
(126,597,o),
(215,710,o),
(380,710,c),
(544,710,o),
(632,598,o),
(632,369,c),
(632,142,o),
(546,32,o),
(381,32,c)
);
},
{
closed = 1;
nodes = (
(479,-64,o),
(477,-62,o),
(470,-62,cs),
(436,-62,ls),
(429,-62,o),
(427,-64,o),
(427,-72,cs),
(427,-155,ls),
(427,-163,o),
(429,-165,o),
(438,-165,cs),
(467,-165,ls),
(477,-165,o),
(479,-163,o),
(479,-153,cs),
(479,-72,ls)
);
},
{
closed = 1;
nodes = (
(454,858,o),
(458,856,o),
(464,856,cs),
(505,856,ls),
(513,856,o),
(513,860,o),
(506,866,cs),
(408,946,ls),
(404,949,o),
(400,954,o),
(392,954,cs),
(374,954,ls),
(365,954,o),
(360,950,o),
(354,945,cs),
(255,866,ls),
(249,861,o),
(250,856,o),
(257,856,cs),
(294,856,ls),
(301,856,o),
(302,857,o),
(309,862,cs),
(371,910,ls),
(382,918,o),
(380,918,o),
(390,910,cs),
(449,862,ls)
);
}
);
};
layerId = "91AB5BCA-6A50-42DA-B2F7-8181BF189245";
shapes = (
{
ref = O;
},
{
pos = (345,0);
ref = dotbelowcomb;
},
{
pos = (241,212);
ref = circumflexcomb;
}
);
width = 758;
},
{
background = {
anchors = (
{
name = bottom;
pos = (392,0);
},
{
name = center;
pos = (390,371);
},
{
name = ogonek;
pos = (483,10);
},
{
name = top;
pos = (389,929);
},
{
name = topleft;
pos = (20,742);
},
{
name = topright;
pos = (582,742);
},
{
name = topviet;
pos = (537,911);
}
);
shapes = (
{
closed = 1;
nodes = (
(391,-10,l),
(609,-10,o),
(749,139,o),
(749,369,c),
(749,601,o),
(606,752,o),
(391,752,c),
(174,752,o),
(31,601,o),
(31,369,c),
(31,138,o),
(170,-10,o),
(391,-10,c)
);
},
{
closed = 1;
nodes = (
(391,146,l),
(302,146,o),
(269,206,o),
(269,366,c),
(269,531,o),
(304,598,o),
(391,598,c),
(476,598,o),
(511,531,o),
(511,366,c),
(511,206,o),
(478,146,o),
(391,146,c)
);
},
{
closed = 1;
nodes = (
(634,-45,o),
(630,-39,o),
(621,-39,cs),
(499,-39,ls),
(490,-39,o),
(486,-45,o),
(486,-57,cs),
(486,-146,ls),
(486,-158,o),
(490,-165,o),
(505,-165,cs),
(610,-165,ls),
(627,-165,o),
(634,-158,o),
(634,-143,cs),
(634,-55,ls)
);
},
{
closed = 1;
nodes = (
(453,807,o),
(461,807,o),
(473,807,cs),
(578,807,ls),
(592,807,o),
(591,813,o),
(580,825,cs),
(469,951,ls),
(462,958,o),
(455,964,o),
(441,964,cs),
(346,964,ls),
(327,964,o),
(318,959,o),
(309,949,cs),
(197,825,ls),
(187,814,o),
(188,807,o),
(200,807,cs),
(299,807,ls),
(312,807,o),
(316,806,o),
(325,816,cs),
(371,870,ls),
(388,889,o),
(391,888,o),
(405,870,cs),
(446,816,ls)
);
}
);
};
layerId = "258ED206-D907-4350-8EBA-CBDDA1C16BF7";
shapes = (
{
ref = O;
},
{
pos = (308,0);
ref = dotbelowcomb;
},
{
pos = (180,212);
ref = circumflexcomb;
}
);
width = 780;
}
);
unicode = 7896;
},
{
glyphname = Ocircumflexgrave;
kernLeft = O;
kernRight = O;
lastChange = "2025-08-29 20:44:13 +0000";
layers = (
{
background = {
anchors = (
{
name = bottom;
pos = (381,0);
},
{
name = center;
pos = (379,371);
},
{
name = ogonek;
pos = (451,9);
},
{
name = top;
pos = (499,664);
},
{
name = topleft;
pos = (20,742);
},
{
name = topright;
pos = (517,742);
},
{
name = topviet;
pos = (588,715);
}
);
shapes = (
{
closed = 1;
nodes = (
(379,-10,l),
(567,-10,o),
(680,122,o),
(680,369,c),
(680,618,o),
(567,752,o),
(380,752,c),
(192,752,o),
(78,617,o),
(78,367,c),
(78,121,o),
(190,-10,o),
(379,-10,c)
);
},
{
closed = 1;
nodes = (
(381,32,l),
(215,32,o),
(126,143,o),
(126,369,c),
(126,597,o),
(215,710,o),
(380,710,c),
(544,710,o),
(632,598,o),
(632,369,c),
(632,142,o),
(546,32,o),
(381,32,c)
);
},
{
closed = 1;
nodes = (
(573,646,o),
(577,644,o),
(583,644,cs),
(624,644,ls),
(632,644,o),
(632,648,o),
(625,654,cs),
(527,734,ls),
(523,737,o),
(519,742,o),
(511,742,cs),
(493,742,ls),
(484,742,o),
(479,738,o),
(473,733,cs),
(374,654,ls),
(368,649,o),
(369,644,o),
(376,644,cs),
(413,644,ls),
(420,644,o),
(421,645,o),
(428,650,cs),
(490,698,ls),
(501,706,o),
(499,706,o),
(509,698,cs),
(568,650,ls)
);
},
{
closed = 1;
nodes = (
(381,850,ls),
(379,844,o),
(380,841,o),
(388,838,cs),
(615,764,ls),
(621,762,o),
(624,763,o),
(626,769,cs),
(631,784,ls),
(633,789,o),
(631,793,o),
(628,794,cs),
(399,885,ls),
(396,886,o),
(392,885,o),
(391,882,cs)
);
}
);
};
layerId = "91AB5BCA-6A50-42DA-B2F7-8181BF189245";
shapes = (
{
ref = O;
},
{
pos = (81,212);
ref = circumflexcomb_gravecomb;
}
);
width = 758;
},
{
background = {
anchors = (
{
name = bottom;
pos = (392,0);
},
{
name = center;
pos = (390,371);
},
{
name = ogonek;
pos = (483,10);
},
{
name = top;
pos = (449,717);
},
{
name = topleft;
pos = (20,742);
},
{
name = topright;
pos = (582,742);
},
{
name = topviet;
pos = (597,699);
}
);
shapes = (
{
closed = 1;
nodes = (
(391,-10,l),
(609,-10,o),
(749,139,o),
(749,369,c),
(749,601,o),
(606,752,o),
(391,752,c),
(174,752,o),
(31,601,o),
(31,369,c),
(31,138,o),
(170,-10,o),
(391,-10,c)
);
},
{
closed = 1;
nodes = (
(391,146,l),
(302,146,o),
(269,206,o),
(269,366,c),
(269,531,o),
(304,598,o),
(391,598,c),
(476,598,o),
(511,531,o),
(511,366,c),
(511,206,o),
(478,146,o),
(391,146,c)
);
},
{
closed = 1;
nodes = (
(513,595,o),
(521,595,o),
(533,595,cs),
(638,595,ls),
(652,595,o),
(651,601,o),
(640,613,cs),
(529,739,ls),
(522,746,o),
(515,752,o),
(501,752,cs),
(406,752,ls),
(387,752,o),
(378,747,o),
(369,737,cs),
(257,613,ls),
(247,602,o),
(248,595,o),
(260,595,cs),
(359,595,ls),
(372,595,o),
(376,594,o),
(385,604,cs),
(431,658,ls),
(448,677,o),
(451,676,o),
(465,658,cs),
(506,604,ls)
);
},
{
closed = 1;
nodes = (
(302,848,ls),
(297,833,o),
(301,821,o),
(321,816,cs),
(554,760,ls),
(571,756,o),
(578,759,o),
(583,773,cs),
(598,816,ls),
(602,828,o),
(599,836,o),
(590,840,cs),
(351,938,ls),
(342,942,o),
(334,937,o),
(330,926,cs)
);
}
);
};
layerId = "258ED206-D907-4350-8EBA-CBDDA1C16BF7";
shapes = (
{
ref = O;
},
{
pos = (81,212);
ref = circumflexcomb_gravecomb;
}
);
width = 780;
}
);
unicode = 7890;
},
{
glyphname = Ocircumflexhookabove;
kernLeft = O;
kernRight = O;
lastChange = "2025-08-29 20:44:13 +0000";
layers = (
{
background = {
anchors = (
{
name = bottom;
pos = (381,0);
},
{
name = center;
pos = (379,371);
},
{
name = ogonek;
pos = (451,9);
},
{
name = top;
pos = (483,664);
},
{
name = topleft;
pos = (20,742);
},
{
name = topright;
pos = (517,742);
},
{
name = topviet;
pos = (572,715);
}
);
shapes = (
{
closed = 1;
nodes = (
(379,-10,l),
(567,-10,o),
(680,122,o),
(680,369,c),
(680,618,o),
(567,752,o),
(380,752,c),
(192,752,o),
(78,617,o),
(78,367,c),
(78,121,o),
(190,-10,o),
(379,-10,c)
);
},
{
closed = 1;
nodes = (
(381,32,l),
(215,32,o),
(126,143,o),
(126,369,c),
(126,597,o),
(215,710,o),
(380,710,c),
(544,710,o),
(632,598,o),
(632,369,c),
(632,142,o),
(546,32,o),
(381,32,c)
);
},
{
closed = 1;
nodes = (
(557,646,o),
(561,644,o),
(567,644,cs),
(608,644,ls),
(616,644,o),
(616,648,o),
(609,654,cs),
(511,734,ls),
(507,737,o),
(503,742,o),
(495,742,cs),
(477,742,ls),
(468,742,o),
(463,738,o),
(457,733,cs),
(358,654,ls),
(352,649,o),
(353,644,o),
(360,644,cs),
(397,644,ls),
(404,644,o),
(405,645,o),
(412,650,cs),
(474,698,ls),
(485,706,o),
(483,706,o),
(493,698,cs),
(552,650,ls)
);
},
{
closed = 1;
nodes = (
(554,876,o),
(581,886,o),
(601,886,cs),
(644,886,o),
(672,861,o),
(672,821,cs),
(672,790,o),
(647,761,o),
(616,730,cs),
(614,728,o),
(612,729,o),
(610,731,cs),
(596,748,ls),
(594,750,o),
(595,753,o),
(597,755,cs),
(621,779,o),
(640,802,o),
(640,819,cs),
(640,844,o),
(623,852,o),
(598,852,cs),
(581,852,o),
(565,843,o),
(548,832,cs),
(545,830,o),
(544,832,o),
(543,834,cs),
(533,857,ls),
(531,861,o),
(532,862,o),
(535,864,cs)
);
}
);
};
layerId = "91AB5BCA-6A50-42DA-B2F7-8181BF189245";
shapes = (
{
ref = O;
},
{
pos = (71,212);
ref = circumflexcomb_hookabovecomb;
}
);
width = 758;
},
{
background = {
anchors = (
{
name = bottom;
pos = (392,0);
},
{
name = center;
pos = (390,371);
},
{
name = ogonek;
pos = (483,10);
},
{
name = top;
pos = (392,717);
},
{
name = topleft;
pos = (20,742);
},
{
name = topright;
pos = (582,742);
},
{
name = topviet;
pos = (540,699);
}
);
shapes = (
{
closed = 1;
nodes = (
(391,-10,l),
(609,-10,o),
(749,139,o),
(749,369,c),
(749,601,o),
(606,752,o),
(391,752,c),
(174,752,o),
(31,601,o),
(31,369,c),
(31,138,o),
(170,-10,o),
(391,-10,c)
);
},
{
closed = 1;
nodes = (
(391,146,l),
(302,146,o),
(269,206,o),
(269,366,c),
(269,531,o),
(304,598,o),
(391,598,c),
(476,598,o),
(511,531,o),
(511,366,c),
(511,206,o),
(478,146,o),
(391,146,c)
);
},
{
closed = 1;
nodes = (
(456,595,o),
(464,595,o),
(476,595,cs),
(581,595,ls),
(595,595,o),
(594,601,o),
(583,613,cs),
(472,739,ls),
(465,746,o),
(458,752,o),
(444,752,cs),
(349,752,ls),
(330,752,o),
(321,747,o),
(312,737,cs),
(200,613,ls),
(190,602,o),
(191,595,o),
(203,595,cs),
(302,595,ls),
(315,595,o),
(319,594,o),
(328,604,cs),
(374,658,ls),
(391,677,o),
(394,676,o),
(408,658,cs),
(449,604,ls)
);
},
{
closed = 1;
nodes = (
(540,912,o),
(564,923,o),
(593,923,cs),
(656,923,o),
(705,886,o),
(705,828,cs),
(705,777,o),
(668,740,o),
(620,704,cs),
(612,698,o),
(605,701,o),
(600,707,cs),
(572,746,ls),
(567,753,o),
(570,761,o),
(574,764,cs),
(610,791,o),
(626,802,o),
(626,823,cs),
(626,839,o),
(606,844,o),
(592,844,cs),
(575,844,o),
(559,839,o),
(539,828,cs),
(532,824,o),
(526,828,o),
(522,835,cs),
(497,882,ls),
(492,892,o),
(496,896,o),
(504,899,cs)
);
}
);
};
layerId = "258ED206-D907-4350-8EBA-CBDDA1C16BF7";
shapes = (
{
ref = O;
},
{
pos = (89,212);
ref = circumflexcomb_hookabovecomb;
}
);
width = 780;
}
);
unicode = 7892;
},
{
glyphname = Ocircumflextilde;
kernLeft = O;
kernRight = O;
lastChange = "2025-08-29 20:44:13 +0000";
layers = (
{
background = {
anchors = (
{
name = bottom;
pos = (381,0);
},
{
name = center;
pos = (379,371);
},
{
name = ogonek;
pos = (451,9);
},
{
name = top;
pos = (502,785);
},
{
name = topleft;
pos = (20,742);
},
{
name = topright;
pos = (517,742);
},
{
name = topviet;
pos = (601,715);
}
);
shapes = (
{
closed = 1;
nodes = (
(379,-10,l),
(567,-10,o),
(680,122,o),
(680,369,c),
(680,618,o),
(567,752,o),
(380,752,c),
(192,752,o),
(78,617,o),
(78,367,c),
(78,121,o),
(190,-10,o),
(379,-10,c)
);
},
{
closed = 1;
nodes = (
(381,32,l),
(215,32,o),
(126,143,o),
(126,369,c),
(126,597,o),
(215,710,o),
(380,710,c),
(544,710,o),
(632,598,o),
(632,369,c),
(632,142,o),
(546,32,o),
(381,32,c)
);
},
{
closed = 1;
nodes = (
(586,646,o),
(590,644,o),
(596,644,cs),
(637,644,ls),
(645,644,o),
(645,648,o),
(638,654,cs),
(540,734,ls),
(536,737,o),
(532,742,o),
(524,742,cs),
(506,742,ls),
(497,742,o),
(492,738,o),
(486,733,cs),
(387,654,ls),
(381,649,o),
(382,644,o),
(389,644,cs),
(426,644,ls),
(433,644,o),
(434,645,o),
(441,650,cs),
(503,698,ls),
(514,706,o),
(512,706,o),
(522,698,cs),
(581,650,ls)
);
},
{
closed = 1;
nodes = (
(643,830,o),
(644,831,o),
(642,835,cs),
(634,853,ls),
(631,859,o),
(628,860,o),
(621,856,cs),
(604,846,o),
(593,840,o),
(571,840,cs),
(527,840,o),
(496,865,o),
(452,865,cs),
(422,865,o),
(404,853,o),
(384,839,cs),
(381,837,o),
(380,836,o),
(382,831,cs),
(389,815,ls),
(392,808,o),
(394,808,o),
(400,811,cs),
(413,818,o),
(426,831,o),
(456,831,cs),
(497,831,o),
(518,807,o),
(570,807,cs),
(606,807,o),
(624,818,o),
(637,826,cs)
);
}
);
};
layerId = "91AB5BCA-6A50-42DA-B2F7-8181BF189245";
shapes = (
{
ref = O;
},
{
pos = (68,212);
ref = circumflexcomb_tildecomb;
}
);
width = 758;
},
{
background = {
anchors = (
{
name = bottom;
pos = (392,0);
},
{
name = center;
pos = (390,371);
},
{
name = ogonek;
pos = (483,10);
},
{
name = top;
pos = (430,928);
},
{
name = topleft;
pos = (20,742);
},
{
name = topright;
pos = (582,742);
},
{
name = topviet;
pos = (594,699);
}
);
shapes = (
{
closed = 1;
nodes = (
(391,-10,l),
(609,-10,o),
(749,139,o),
(749,369,c),
(749,601,o),
(606,752,o),
(391,752,c),
(174,752,o),
(31,601,o),
(31,369,c),
(31,138,o),
(170,-10,o),
(391,-10,c)
);
},
{
closed = 1;
nodes = (
(391,146,l),
(302,146,o),
(269,206,o),
(269,366,c),
(269,531,o),
(304,598,o),
(391,598,c),
(476,598,o),
(511,531,o),
(511,366,c),
(511,206,o),
(478,146,o),
(391,146,c)
);
},
{
closed = 1;
nodes = (
(510,595,o),
(518,595,o),
(530,595,cs),
(635,595,ls),
(649,595,o),
(648,601,o),
(637,613,cs),
(526,739,ls),
(519,746,o),
(512,752,o),
(498,752,cs),
(403,752,ls),
(384,752,o),
(375,747,o),
(366,737,cs),
(254,613,ls),
(244,602,o),
(245,595,o),
(257,595,cs),
(356,595,ls),
(369,595,o),
(373,594,o),
(382,604,cs),
(428,658,ls),
(445,677,o),
(448,676,o),
(462,658,cs),
(503,604,ls)
);
},
{
closed = 1;
nodes = (
(644,836,o),
(647,844,o),
(644,856,cs),
(630,921,ls),
(627,936,o),
(616,937,o),
(606,930,cs),
(588,917,o),
(561,902,o),
(529,902,cs),
(482,902,o),
(426,936,o),
(363,936,cs),
(316,936,o),
(290,916,o),
(265,895,cs),
(250,882,o),
(254,874,o),
(257,864,cs),
(274,810,ls),
(279,794,o),
(286,794,o),
(297,802,cs),
(323,821,o),
(340,827,o),
(368,827,cs),
(425,827,o),
(471,796,o),
(530,796,cs),
(571,796,o),
(609,811,o),
(630,826,cs)
);
}
);
};
layerId = "258ED206-D907-4350-8EBA-CBDDA1C16BF7";
shapes = (
{
ref = O;
},
{
pos = (80,212);
ref = circumflexcomb_tildecomb;
}
);
width = 780;
}
);
unicode = 7894;
},
{
glyphname = Oslash;
lastChange = "2025-08-29 20:44:13 +0000";
layers = (
{
anchors = (
{
name = top;
pos = (355,742);
}
);
background = {
anchors = (
{
name = top;
pos = (355,742);
}
);
shapes = (
{
closed = 1;
nodes = (
(684,727,l),
(659,749,l),
(654,753,o),
(650,751,o),
(646,746,c),
(571,659,l),
(519,720,o),
(446,752,o),
(355,752,c),
(167,752,o),
(53,617,o),
(53,367,c),
(53,266,o),
(72,184,o),
(108,123,c),
(24,26,l),
(20,21,o),
(21,18,o),
(28,11,c),
(45,-5,l),
(53,-11,o),
(58,-11,o),
(64,-3,c),
(137,81,l),
(188,21,o),
(262,-10,o),
(354,-10,c),
(542,-10,o),
(655,122,o),
(655,369,c),
(655,472,o),
(636,555,o),
(600,617,c),
(685,716,l),
(688,720,o),
(687,724,o),
(684,727,c)
);
},
{
closed = 1;
nodes = (
(104,369,l),
(104,597,o),
(190,709,o),
(355,709,c),
(437,709,o),
(499,681,o),
(541,625,c),
(141,161,l),
(116,214,o),
(104,283,o),
(104,369,c)
);
},
{
closed = 1;
nodes = (
(604,369,l),
(604,142,o),
(521,33,o),
(356,33,c),
(273,33,o),
(210,61,o),
(167,117,c),
(567,580,l),
(592,526,o),
(604,456,o),
(604,369,c)
);
}
);
};
layerId = "91AB5BCA-6A50-42DA-B2F7-8181BF189245";
shapes = (
{
closed = 1;
nodes = (
(684,727,l),
(659,749,l),
(654,753,o),
(650,751,o),
(646,746,c),
(571,659,l),
(519,720,o),
(446,752,o),
(355,752,c),
(167,752,o),
(53,617,o),
(53,367,c),
(53,266,o),
(72,184,o),
(108,123,c),
(24,26,l),
(20,21,o),
(21,18,o),
(28,11,c),
(45,-5,l),
(53,-11,o),
(58,-11,o),
(64,-3,c),
(137,81,l),
(188,21,o),
(262,-10,o),
(354,-10,c),
(542,-10,o),
(655,122,o),
(655,369,c),
(655,472,o),
(636,555,o),
(600,617,c),
(685,716,l),
(688,720,o),
(687,724,o),
(684,727,c)
);
},
{
closed = 1;
nodes = (
(104,369,l),
(104,597,o),
(190,709,o),
(355,709,c),
(437,709,o),
(499,681,o),
(541,625,c),
(141,161,l),
(116,214,o),
(104,283,o),
(104,369,c)
);
},
{
closed = 1;
nodes = (
(604,369,l),
(604,142,o),
(521,33,o),
(356,33,c),
(273,33,o),
(210,61,o),
(167,117,c),
(567,580,l),
(592,526,o),
(604,456,o),
(604,369,c)
);
}
);
width = 708;
},
{
anchors = (
{
name = top;
pos = (393,742);
}
);
background = {
anchors = (
{
name = top;
pos = (393,742);
}
);
shapes = (
{
closed = 1;
nodes = (
(776,686,l),
(722,742,ls),
(714,750,o),
(702,748,o),
(691,737,c),
(626,674,l),
(566,724,o),
(487,752,o),
(394,752,c),
(177,752,o),
(34,601,o),
(34,369,c),
(34,283,o),
(53,209,o),
(88,150,c),
(21,84,ls),
(9,72,o),
(10,62,o),
(25,47,c),
(64,7,ls),
(80,-9,o),
(92,-8,o),
(107,7,c),
(164,63,l),
(224,16,o),
(302,-10,o),
(394,-10,c),
(612,-10,o),
(752,139,o),
(752,369,c),
(752,453,o),
(733,526,o),
(699,585,c),
(775,659,l),
(785,668,o),
(784,678,o),
(776,686,c)
);
},
{
closed = 1;
nodes = (
(272,366,l),
(272,531,o),
(307,598,o),
(394,598,c),
(438,598,o),
(469,580,o),
(488,539,c),
(273,329,l),
(272,342,o),
(272,354,o),
(272,366,c)
);
},
{
closed = 1;
nodes = (
(514,366,l),
(514,206,o),
(481,146,o),
(394,146,c),
(350,146,o),
(319,161,o),
(300,195,c),
(513,404,l),
(514,391,o),
(514,379,o),
(514,366,c)
);
}
);
};
layerId = "258ED206-D907-4350-8EBA-CBDDA1C16BF7";
shapes = (
{
closed = 1;
nodes = (
(776,686,l),
(722,742,ls),
(714,750,o),
(702,748,o),
(691,737,c),
(626,674,l),
(566,724,o),
(487,752,o),
(394,752,c),
(177,752,o),
(34,601,o),
(34,369,c),
(34,283,o),
(53,209,o),
(88,150,c),
(21,84,ls),
(9,72,o),
(10,62,o),
(25,47,c),
(64,7,ls),
(80,-9,o),
(92,-8,o),
(107,7,c),
(164,63,l),
(224,16,o),
(302,-10,o),
(394,-10,c),
(612,-10,o),
(752,139,o),
(752,369,c),
(752,453,o),
(733,526,o),
(699,585,c),
(775,659,l),
(785,668,o),
(784,678,o),
(776,686,c)
);
},
{
closed = 1;
nodes = (
(272,366,l),
(272,531,o),
(307,598,o),
(394,598,c),
(438,598,o),
(469,580,o),
(488,539,c),
(273,329,l),
(272,342,o),
(272,354,o),
(272,366,c)
);
},
{
closed = 1;
nodes = (
(514,366,l),
(514,206,o),
(481,146,o),
(394,146,c),
(350,146,o),
(319,161,o),
(300,195,c),
(513,404,l),
(514,391,o),
(514,379,o),
(514,366,c)
);
}
);
width = 786;
}
);
unicode = 216;
},
{
glyphname = OE;
kernLeft = O;
lastChange = "2025-08-29 20:44:13 +0000";
layers = (
{
background = {
shapes = (
{
closed = 1;
nodes = (
(1062,40,l),
(689,40,ls),
(682,40,o),
(680,41,o),
(680,49,c),
(680,346,ls),
(680,354,o),
(682,355,o),
(689,355,c),
(966,355,ls),
(972,355,o),
(974,356,o),
(974,362,c),
(974,388,ls),
(974,393,o),
(972,395,o),
(967,395,c),
(689,395,ls),
(682,395,o),
(680,396,o),
(680,402,c),
(680,693,ls),
(680,701,o),
(682,702,o),
(689,702,c),
(1047,702,ls),
(1053,702,o),
(1055,703,o),
(1055,709,c),
(1055,735,ls),
(1055,740,o),
(1053,742,o),
(1048,742,c),
(643,742,ls),
(636,742,o),
(634,740,o),
(634,732,c),
(634,600,l),
(584,700,o),
(497,752,o),
(380,752,c),
(192,752,o),
(78,617,o),
(78,367,c),
(78,121,o),
(190,-10,o),
(379,-10,c),
(496,-10,o),
(584,41,o),
(634,140,c),
(634,10,ls),
(634,2,o),
(636,0,o),
(643,0,c),
(1063,0,ls),
(1068,0,o),
(1070,2,o),
(1070,7,c),
(1070,33,ls),
(1070,39,o),
(1068,40,o),
(1062,40,c)
);
},
{
closed = 1;
nodes = (
(381,32,l),
(215,32,o),
(126,143,o),
(126,369,c),
(126,597,o),
(215,710,o),
(380,710,c),
(544,710,o),
(629,598,o),
(629,369,c),
(629,142,o),
(546,32,o),
(381,32,c)
);
}
);
};
layerId = "91AB5BCA-6A50-42DA-B2F7-8181BF189245";
shapes = (
{
closed = 1;
nodes = (
(1062,40,l),
(689,40,ls),
(682,40,o),
(680,41,o),
(680,49,c),
(680,346,ls),
(680,354,o),
(682,355,o),
(689,355,c),
(966,355,ls),
(972,355,o),
(974,356,o),
(974,362,c),
(974,388,ls),
(974,393,o),
(972,395,o),
(967,395,c),
(689,395,ls),
(682,395,o),
(680,396,o),
(680,402,c),
(680,693,ls),
(680,701,o),
(682,702,o),
(689,702,c),
(1047,702,ls),
(1053,702,o),
(1055,703,o),
(1055,709,c),
(1055,735,ls),
(1055,740,o),
(1053,742,o),
(1048,742,c),
(643,742,ls),
(636,742,o),
(634,740,o),
(634,732,c),
(634,601,l),
(584,701,o),
(497,752,o),
(380,752,c),
(192,752,o),
(78,617,o),
(78,367,c),
(78,121,o),
(190,-10,o),
(379,-10,c),
(496,-10,o),
(583,32,o),
(633,131,c),
(633,10,ls),
(633,2,o),
(635,0,o),
(642,0,c),
(1063,0,ls),
(1068,0,o),
(1070,2,o),
(1070,7,c),
(1070,33,ls),
(1070,39,o),
(1068,40,o),
(1062,40,c)
);
},
{
closed = 1;
nodes = (
(381,32,l),
(215,32,o),
(126,143,o),
(126,369,c),
(126,597,o),
(215,710,o),
(380,710,c),
(540,710,o),
(632,601,o),
(632,433,c),
(632,333,ls),
(632,138,o),
(546,32,o),
(381,32,c)
);
}
);
width = 1122;
},
{
background = {
shapes = (
{
closed = 1;
nodes = (
(1075,164,l),
(750,164,ls),
(741,164,o),
(738,167,o),
(738,178,c),
(738,278,ls),
(738,286,o),
(744,292,o),
(754,292,c),
(939,292,ls),
(952,292,o),
(957,300,o),
(957,309,c),
(957,433,ls),
(957,446,o),
(950,453,o),
(936,453,c),
(756,453,ls),
(746,453,o),
(738,460,o),
(738,474,c),
(738,559,ls),
(738,572,o),
(746,578,o),
(761,578,c),
(1061,578,ls),
(1079,578,o),
(1087,589,o),
(1087,605,c),
(1088,721,ls),
(1088,734,o),
(1082,742,o),
(1070,742,c),
(522,742,l),
(515,742,o),
(512,740,o),
(512,735,c),
(512,730,l),
(486,745,o),
(450,752,o),
(401,752,c),
(175,752,o),
(31,601,o),
(31,367,c),
(31,138,o),
(169,-10,o),
(393,-10,c),
(445,-10,o),
(482,-2,o),
(512,16,c),
(512,8,ls),
(512,2,o),
(515,0,o),
(522,0,c),
(1073,0,ls),
(1090,0,o),
(1097,10,o),
(1097,22,c),
(1097,145,ls),
(1097,159,o),
(1089,164,o),
(1075,164,c)
);
},
{
closed = 1;
nodes = (
(390,146,l),
(302,146,o),
(269,206,o),
(269,366,c),
(269,530,o),
(304,598,o),
(391,598,c),
(476,598,o),
(511,532,o),
(511,366,c),
(511,205,o),
(478,146,o),
(390,146,c)
);
}
);
};
layerId = "258ED206-D907-4350-8EBA-CBDDA1C16BF7";
shapes = (
{
closed = 1;
nodes = (
(1075,164,l),
(750,164,ls),
(741,164,o),
(738,167,o),
(738,178,c),
(738,278,ls),
(738,286,o),
(744,292,o),
(754,292,c),
(939,292,ls),
(952,292,o),
(957,300,o),
(957,309,c),
(957,433,ls),
(957,446,o),
(950,453,o),
(936,453,c),
(756,453,ls),
(746,453,o),
(738,460,o),
(738,474,c),
(738,559,ls),
(738,572,o),
(746,578,o),
(761,578,c),
(1061,578,ls),
(1079,578,o),
(1087,589,o),
(1087,605,c),
(1087,721,ls),
(1087,734,o),
(1081,742,o),
(1069,742,c),
(522,742,l),
(515,742,o),
(512,740,o),
(512,735,c),
(512,720,l),
(483,742,o),
(431,752,o),
(378,752,c),
(172,752,o),
(31,601,o),
(31,368,c),
(31,137,o),
(169,-10,o),
(363,-10,c),
(425,-10,o),
(482,5,o),
(512,26,c),
(512,8,ls),
(512,2,o),
(515,0,o),
(522,0,c),
(1073,0,ls),
(1090,0,o),
(1097,10,o),
(1097,22,c),
(1097,145,ls),
(1097,159,o),
(1089,164,o),
(1075,164,c)
);
},
{
closed = 1;
nodes = (
(390,146,l),
(302,146,o),
(269,206,o),
(269,366,c),
(269,530,o),
(304,598,o),
(391,598,c),
(474,598,o),
(511,544,o),
(511,390,c),
(511,346,ls),
(511,205,o),
(478,146,o),
(390,146,c)
);
}
);
width = 1130;
}
);
metricLeft = O;
metricRight = E;
unicode = 338;
},
{
glyphname = P;
kernLeft = H;
kernRight = P;
lastChange = "2025-08-29 20:44:13 +0000";
layers = (
{
background = {
shapes = (
{
closed = 1;
nodes = (
(611,535,l),
(611,684,o),
(500,742,o),
(345,742,c),
(123,742,ls),
(116,742,o),
(114,740,o),
(114,732,c),
(114,8,ls),
(114,3,o),
(117,0,o),
(122,0,c),
(152,0,ls),
(157,0,o),
(160,3,o),
(160,9,c),
(160,318,ls),
(160,324,o),
(162,327,o),
(168,327,c),
(351,327,ls),
(502,327,o),
(611,387,o),
(611,535,c)
);
},
{
closed = 1;
nodes = (
(563,538,l),
(563,415,o),
(479,367,o),
(351,367,c),
(167,367,ls),
(162,367,o),
(160,370,o),
(160,377,c),
(160,694,ls),
(160,700,o),
(163,702,o),
(169,702,c),
(344,702,ls),
(479,702,o),
(563,662,o),
(563,538,c)
);
}
);
};
layerId = "91AB5BCA-6A50-42DA-B2F7-8181BF189245";
shapes = (
{
closed = 1;
nodes = (
(611,535,l),
(611,684,o),
(500,742,o),
(345,742,c),
(123,742,ls),
(116,742,o),
(114,740,o),
(114,732,c),
(114,8,ls),
(114,3,o),
(117,0,o),
(122,0,c),
(152,0,ls),
(157,0,o),
(160,3,o),
(160,9,c),
(160,318,ls),
(160,324,o),
(162,327,o),
(168,327,c),
(351,327,ls),
(502,327,o),
(611,387,o),
(611,535,c)
);
},
{
closed = 1;
nodes = (
(563,538,l),
(563,415,o),
(479,367,o),
(351,367,c),
(167,367,ls),
(162,367,o),
(160,370,o),
(160,377,c),
(160,694,ls),
(160,700,o),
(163,702,o),
(169,702,c),
(344,702,ls),
(479,702,o),
(563,662,o),
(563,538,c)
);
}
);
width = 674;
},
{
background = {
shapes = (
{
closed = 1;
nodes = (
(703,501,l),
(703,662,o),
(566,742,o),
(402,742,c),
(71,742,ls),
(59,742,o),
(52,734,o),
(52,719,c),
(52,25,ls),
(52,8,o),
(58,0,o),
(78,0,c),
(246,0,ls),
(269,0,o),
(279,8,o),
(279,29,c),
(279,255,ls),
(279,262,o),
(282,266,o),
(291,266,c),
(428,266,ls),
(591,266,o),
(703,355,o),
(703,501,c)
);
},
{
closed = 1;
nodes = (
(471,504,l),
(471,461,o),
(442,426,o),
(394,426,c),
(296,426,ls),
(283,426,o),
(279,433,o),
(279,448,c),
(279,561,ls),
(279,576,o),
(285,582,o),
(302,582,c),
(388,582,ls),
(434,582,o),
(471,552,o),
(471,504,c)
);
}
);
};
layerId = "258ED206-D907-4350-8EBA-CBDDA1C16BF7";
shapes = (
{
closed = 1;
nodes = (
(703,501,l),
(703,662,o),
(566,742,o),
(402,742,c),
(71,742,ls),
(59,742,o),
(52,734,o),
(52,719,c),
(52,25,ls),
(52,8,o),
(58,0,o),
(78,0,c),
(246,0,ls),
(269,0,o),
(279,8,o),
(279,29,c),
(279,255,ls),
(279,262,o),
(282,266,o),
(291,266,c),
(428,266,ls),
(591,266,o),
(703,355,o),
(703,501,c)
);
},
{
closed = 1;
nodes = (
(471,504,l),
(471,461,o),
(442,426,o),
(394,426,c),
(296,426,ls),
(283,426,o),
(279,433,o),
(279,448,c),
(279,561,ls),
(279,576,o),
(285,582,o),
(302,582,c),
(388,582,ls),
(434,582,o),
(471,552,o),
(471,504,c)
);
}
);
width = 731;
}
);
unicode = 80;
},
{
glyphname = Thorn;
kernLeft = H;
lastChange = "2025-08-29 20:44:13 +0000";
layers = (
{
background = {
shapes = (
{
closed = 1;
nodes = (
(611,390,l),
(611,522,o),
(501,579,o),
(345,579,c),
(166,579,ls),
(162,579,o),
(160,581,o),
(160,584,c),
(160,732,ls),
(160,740,o),
(158,742,o),
(151,742,c),
(123,742,ls),
(116,742,o),
(114,740,o),
(114,732,c),
(114,8,ls),
(114,3,o),
(117,0,o),
(122,0,c),
(152,0,ls),
(157,0,o),
(160,3,o),
(160,9,c),
(160,173,ls),
(160,179,o),
(162,182,o),
(168,182,c),
(351,182,ls),
(501,182,o),
(611,239,o),
(611,390,c)
);
},
{
closed = 1;
nodes = (
(563,390,l),
(563,268,o),
(479,222,o),
(351,222,c),
(167,222,ls),
(162,222,o),
(160,225,o),
(160,232,c),
(160,531,ls),
(160,537,o),
(163,539,o),
(169,539,c),
(344,539,ls),
(479,539,o),
(563,501,o),
(563,390,c)
);
}
);
};
layerId = "91AB5BCA-6A50-42DA-B2F7-8181BF189245";
shapes = (
{
closed = 1;
nodes = (
(611,390,l),
(611,522,o),
(501,579,o),
(345,579,c),
(166,579,ls),
(162,579,o),
(160,581,o),
(160,584,c),
(160,732,ls),
(160,740,o),
(158,742,o),
(151,742,c),
(123,742,ls),
(116,742,o),
(114,740,o),
(114,732,c),
(114,8,ls),
(114,3,o),
(117,0,o),
(122,0,c),
(152,0,ls),
(157,0,o),
(160,3,o),
(160,9,c),
(160,173,ls),
(160,179,o),
(162,182,o),
(168,182,c),
(351,182,ls),
(501,182,o),
(611,239,o),
(611,390,c)
);
},
{
closed = 1;
nodes = (
(563,390,l),
(563,268,o),
(479,222,o),
(351,222,c),
(167,222,ls),
(162,222,o),
(160,225,o),
(160,232,c),
(160,531,ls),
(160,537,o),
(163,539,o),
(169,539,c),
(344,539,ls),
(479,539,o),
(563,501,o),
(563,390,c)
);
}
);
width = 674;
},
{
background = {
shapes = (
{
closed = 1;
nodes = (
(716,372,l),
(716,530,o),
(579,608,o),
(415,608,c),
(289,608,ls),
(282,608,o),
(279,612,o),
(279,620,c),
(279,721,ls),
(279,734,o),
(273,742,o),
(261,742,c),
(71,742,ls),
(60,742,o),
(52,734,o),
(52,719,c),
(52,25,ls),
(52,8,o),
(58,0,o),
(78,0,c),
(246,0,ls),
(269,0,o),
(279,8,o),
(279,29,c),
(279,131,ls),
(279,138,o),
(282,142,o),
(291,142,c),
(441,142,ls),
(604,142,o),
(716,229,o),
(716,372,c)
);
},
{
closed = 1;
nodes = (
(484,375,l),
(484,335,o),
(455,302,o),
(407,302,c),
(296,302,ls),
(283,302,o),
(279,309,o),
(279,324,c),
(279,427,ls),
(279,442,o),
(285,448,o),
(302,448,c),
(401,448,ls),
(447,448,o),
(484,420,o),
(484,375,c)
);
}
);
};
layerId = "258ED206-D907-4350-8EBA-CBDDA1C16BF7";
shapes = (
{
closed = 1;
nodes = (
(716,372,l),
(716,530,o),
(579,608,o),
(415,608,c),
(289,608,ls),
(282,608,o),
(279,612,o),
(279,620,c),
(279,721,ls),
(279,734,o),
(273,742,o),
(261,742,c),
(71,742,ls),
(60,742,o),
(52,734,o),
(52,719,c),
(52,25,ls),
(52,8,o),
(58,0,o),
(78,0,c),
(246,0,ls),
(269,0,o),
(279,8,o),
(279,29,c),
(279,131,ls),
(279,138,o),
(282,142,o),
(291,142,c),
(441,142,ls),
(604,142,o),
(716,229,o),
(716,372,c)
);
},
{
closed = 1;
nodes = (
(484,375,l),
(484,335,o),
(455,302,o),
(407,302,c),
(296,302,ls),
(283,302,o),
(279,309,o),
(279,324,c),
(279,427,ls),
(279,442,o),
(285,448,o),
(302,448,c),
(401,448,ls),
(447,448,o),
(484,420,o),
(484,375,c)
);
}
);
width = 744;
}
);
metricLeft = P;
metricRight = P;
unicode = 222;
},
{
glyphname = Q;
kernLeft = O;
kernRight = O;
lastChange = "2025-08-29 20:44:13 +0000";
layers = (
{
background = {
shapes = (
{
closed = 1;
nodes = (
(78,369,l),
(78,116,o),
(195,-10,o),
(379,-10,c),
(405,-10,o),
(435,-7,o),
(460,-1,c),
(467,1,o),
(472,-1,o),
(475,-5,c),
(540,-96,o),
(606,-122,o),
(650,-122,c),
(664,-122,o),
(670,-120,o),
(670,-109,c),
(670,-87,ls),
(670,-84,o),
(669,-81,o),
(663,-80,c),
(588,-70,o),
(521,-11,o),
(521,16,c),
(521,20,o),
(522,22,o),
(527,25,c),
(624,83,o),
(680,189,o),
(680,369,c),
(680,620,o),
(567,752,o),
(379,752,c),
(191,752,o),
(78,620,o),
(78,369,c)
);
},
{
closed = 1;
nodes = (
(126,367,l),
(126,592,o),
(212,710,o),
(379,710,c),
(546,710,o),
(632,592,o),
(632,369,c),
(632,141,o),
(543,32,o),
(379,32,c),
(215,32,o),
(126,141,o),
(126,367,c)
);
}
);
};
layerId = "91AB5BCA-6A50-42DA-B2F7-8181BF189245";
shapes = (
{
closed = 1;
nodes = (
(78,369,l),
(78,116,o),
(195,-10,o),
(379,-10,c),
(405,-10,o),
(435,-7,o),
(460,-1,c),
(467,1,o),
(472,-1,o),
(475,-5,c),
(540,-96,o),
(606,-122,o),
(650,-122,c),
(664,-122,o),
(670,-120,o),
(670,-109,c),
(670,-87,ls),
(670,-84,o),
(669,-81,o),
(663,-80,c),
(588,-70,o),
(521,-11,o),
(521,16,c),
(521,20,o),
(522,22,o),
(527,25,c),
(624,83,o),
(680,189,o),
(680,369,c),
(680,620,o),
(567,752,o),
(379,752,c),
(191,752,o),
(78,620,o),
(78,369,c)
);
},
{
closed = 1;
nodes = (
(126,367,l),
(126,592,o),
(212,710,o),
(379,710,c),
(546,710,o),
(632,592,o),
(632,369,c),
(632,141,o),
(543,32,o),
(379,32,c),
(215,32,o),
(126,141,o),
(126,367,c)
);
}
);
width = 758;
},
{
background = {
shapes = (
{
closed = 1;
nodes = (
(31,369,l),
(31,138,o),
(170,-10,o),
(391,-10,c),
(417,-10,o),
(438,-9,o),
(462,-6,c),
(469,-5,o),
(474,-6,o),
(477,-10,c),
(534,-84,o),
(606,-128,o),
(706,-128,c),
(738,-128,o),
(750,-122,o),
(750,-97,c),
(750,13,ls),
(750,20,o),
(747,28,o),
(733,30,c),
(690,36,o),
(643,61,o),
(643,78,c),
(643,82,o),
(643,84,o),
(645,86,c),
(712,152,o),
(750,249,o),
(750,369,c),
(750,601,o),
(607,752,o),
(391,752,c),
(174,752,o),
(31,601,o),
(31,369,c)
);
},
{
closed = 1;
nodes = (
(269,367,l),
(269,532,o),
(304,598,o),
(391,598,c),
(477,598,o),
(512,532,o),
(512,367,c),
(512,206,o),
(479,146,o),
(391,146,c),
(302,146,o),
(269,206,o),
(269,367,c)
);
}
);
};
layerId = "258ED206-D907-4350-8EBA-CBDDA1C16BF7";
shapes = (
{
closed = 1;
nodes = (
(31,369,l),
(31,138,o),
(170,-10,o),
(391,-10,c),
(417,-10,o),
(438,-9,o),
(462,-6,c),
(469,-5,o),
(474,-6,o),
(477,-10,c),
(534,-84,o),
(606,-128,o),
(706,-128,c),
(738,-128,o),
(750,-122,o),
(750,-97,c),
(750,13,ls),
(750,20,o),
(747,28,o),
(733,30,c),
(690,36,o),
(643,61,o),
(643,78,c),
(643,82,o),
(643,84,o),
(645,86,c),
(712,152,o),
(750,249,o),
(750,369,c),
(750,601,o),
(607,752,o),
(391,752,c),
(174,752,o),
(31,601,o),
(31,369,c)
);
},
{
closed = 1;
nodes = (
(269,367,l),
(269,532,o),
(304,598,o),
(391,598,c),
(477,598,o),
(512,532,o),
(512,367,c),
(512,206,o),
(479,146,o),
(391,146,c),
(302,146,o),
(269,206,o),
(269,367,c)
);
}
);
width = 782;
}
);
unicode = 81;
},
{
glyphname = R;
kernLeft = H;
kernRight = R;
lastChange = "2025-08-29 20:44:13 +0000";
layers = (
{
anchors = (
{
name = bottom;
pos = (341,0);
},
{
name = top;
pos = (334,742);
}
);
background = {
anchors = (
{
name = bottom;
pos = (341,0);
},
{
name = top;
pos = (334,742);
}
);
shapes = (
{
closed = 1;
nodes = (
(599,14,l),
(453,359,l),
(452,362,o),
(453,365,o),
(457,366,c),
(526,384,o),
(609,435,o),
(609,558,c),
(609,680,o),
(525,742,o),
(381,742,c),
(123,742,ls),
(116,742,o),
(114,740,o),
(114,732,c),
(114,9,ls),
(114,3,o),
(116,0,o),
(124,0,c),
(150,0,ls),
(158,0,o),
(160,3,o),
(160,11,c),
(160,344,ls),
(160,351,o),
(163,355,o),
(172,355,c),
(388,355,ls),
(401,355,o),
(406,352,o),
(409,345,c),
(551,9,ls),
(554,3,o),
(556,0,o),
(563,0,c),
(591,0,ls),
(598,0,o),
(602,7,o),
(599,14,c)
);
},
{
closed = 1;
nodes = (
(346,395,l),
(167,395,ls),
(162,395,o),
(160,398,o),
(160,404,c),
(160,694,ls),
(160,700,o),
(163,702,o),
(171,702,c),
(380,702,ls),
(501,702,o),
(561,653,o),
(561,551,c),
(561,439,o),
(489,395,o),
(346,395,c)
);
}
);
};
layerId = "91AB5BCA-6A50-42DA-B2F7-8181BF189245";
shapes = (
{
closed = 1;
nodes = (
(599,14,l),
(453,359,l),
(452,362,o),
(453,365,o),
(457,366,c),
(526,384,o),
(609,435,o),
(609,558,c),
(609,680,o),
(525,742,o),
(381,742,c),
(123,742,ls),
(116,742,o),
(114,740,o),
(114,732,c),
(114,9,ls),
(114,3,o),
(116,0,o),
(124,0,c),
(150,0,ls),
(158,0,o),
(160,3,o),
(160,11,c),
(160,344,ls),
(160,351,o),
(163,355,o),
(172,355,c),
(388,355,ls),
(401,355,o),
(406,352,o),
(409,345,c),
(551,9,ls),
(554,3,o),
(556,0,o),
(563,0,c),
(591,0,ls),
(598,0,o),
(602,7,o),
(599,14,c)
);
},
{
closed = 1;
nodes = (
(346,395,l),
(167,395,ls),
(162,395,o),
(160,398,o),
(160,404,c),
(160,694,ls),
(160,700,o),
(163,702,o),
(171,702,c),
(380,702,ls),
(501,702,o),
(561,653,o),
(561,551,c),
(561,439,o),
(489,395,o),
(346,395,c)
);
}
);
width = 679;
},
{
anchors = (
{
name = bottom;
pos = (368,0);
},
{
name = top;
pos = (358,742);
}
);
background = {
anchors = (
{
name = bottom;
pos = (368,0);
},
{
name = top;
pos = (358,742);
}
);
shapes = (
{
closed = 1;
nodes = (
(701,32,l),
(575,312,ls),
(572,320,o),
(572,328,o),
(579,331,c),
(655,360,o),
(710,436,o),
(710,530,c),
(710,664,o),
(598,742,o),
(405,742,c),
(71,742,ls),
(59,742,o),
(52,734,o),
(52,719,c),
(52,25,ls),
(52,8,o),
(58,0,o),
(78,0,c),
(246,0,ls),
(269,0,o),
(279,8,o),
(279,29,c),
(279,284,ls),
(279,287,o),
(282,295,o),
(291,295,c),
(337,295,ls),
(356,295,o),
(364,290,o),
(368,279,c),
(462,21,ls),
(466,7,o),
(475,0,o),
(489,0,c),
(683,0,ls),
(699,0,o),
(708,15,o),
(701,32,c)
);
},
{
closed = 1;
nodes = (
(396,444,l),
(296,444,ls),
(283,444,o),
(279,450,o),
(279,465,c),
(279,574,ls),
(279,589,o),
(285,594,o),
(302,594,c),
(390,594,ls),
(435,594,o),
(475,567,o),
(475,516,c),
(475,473,o),
(447,444,o),
(396,444,c)
);
}
);
};
layerId = "258ED206-D907-4350-8EBA-CBDDA1C16BF7";
shapes = (
{
closed = 1;
nodes = (
(701,32,l),
(575,312,ls),
(572,320,o),
(572,328,o),
(579,331,c),
(655,360,o),
(710,436,o),
(710,530,c),
(710,664,o),
(598,742,o),
(405,742,c),
(71,742,ls),
(59,742,o),
(52,734,o),
(52,719,c),
(52,25,ls),
(52,8,o),
(58,0,o),
(78,0,c),
(246,0,ls),
(269,0,o),
(279,8,o),
(279,29,c),
(279,284,ls),
(279,287,o),
(282,295,o),
(291,295,c),
(337,295,ls),
(356,295,o),
(364,290,o),
(368,279,c),
(462,21,ls),
(466,7,o),
(475,0,o),
(489,0,c),
(683,0,ls),
(699,0,o),
(708,15,o),
(701,32,c)
);
},
{
closed = 1;
nodes = (
(396,444,l),
(296,444,ls),
(283,444,o),
(279,450,o),
(279,465,c),
(279,574,ls),
(279,589,o),
(285,594,o),
(302,594,c),
(390,594,ls),
(435,594,o),
(475,567,o),
(475,516,c),
(475,473,o),
(447,444,o),
(396,444,c)
);
}
);
width = 739;
}
);
unicode = 82;
},
